<?xml version="1.0" encoding="iso-8859-1"?>
<!-- Generator: Adobe Illustrator 19.0.0, SVG Export Plug-In . SVG Version: 6.00 Build 0)  -->
<svg version="1.1" id="Capa_1" xmlns="http://www.w3.org/2000/svg" xmlns:xlink="http://www.w3.org/1999/xlink" x="0px" y="0px"
	 viewBox="0 0 511.997 511.997" style="enable-background:new 0 0 511.997 511.997;" xml:space="preserve">
<path style="fill:#91E0B7;" d="M429.02,83.662c-24.66,24.66-67.912,21.389-67.912,21.389s-3.271-43.252,21.389-67.912
	s67.912-21.389,67.912-21.389S453.679,59.003,429.02,83.662z"/>
<path style="fill:#36D28F;" d="M124.126,220.098c24.66,24.66,21.389,67.912,21.389,67.912s-43.252,3.271-67.912-21.389
	s-21.389-67.912-21.389-67.912S99.466,195.439,124.126,220.098z"/>
<path style="fill:#FFC66C;" d="M233.596,174.003c-1.401,5.564-2.975,11.554-4.528,17.93h-90.485
	c-1.553-6.376-3.127-12.367-4.528-17.93c1.401-5.564,2.975-11.564,4.528-17.94h90.485
	C230.621,162.439,232.195,168.44,233.596,174.003z"/>
<path style="fill:#36D28F;" d="M138.583,156.063h90.485c-4.579-18.722-9.057-40.643-9.057-64.066
	c0-31.394,8.051-60.086,13.585-81.997h-99.541c5.534,21.91,13.585,50.603,13.585,81.997
	C147.64,115.42,143.162,137.341,138.583,156.063z"/>
<path style="fill:#FFC66C;" d="M233.596,337.996c-1.391,5.503-2.934,11.422-4.478,17.717h-90.586
	c-1.543-6.295-3.087-12.214-4.478-17.717c1.422-5.625,3.005-11.696,4.579-18.154h90.383
	C230.59,326.3,232.174,332.372,233.596,337.996z"/>
<path style="fill:#36D28F;" d="M229.118,355.714h-90.586c4.589,18.773,9.107,40.775,9.107,64.29
	c0,31.393-8.051,60.086-13.585,81.997h99.541c-5.533-21.91-13.585-50.603-13.585-81.997
	C220.011,396.488,224.529,374.487,229.118,355.714z"/>
<path style="fill:#91E0B7;" d="M138.634,319.843h90.383c-4.559-18.672-9.006-40.511-9.006-63.843
	c0-23.423,4.477-45.344,9.057-64.066h-90.485c4.579,18.722,9.057,40.643,9.057,64.066
	C147.64,279.332,143.193,301.171,138.634,319.843z"/>
<path style="fill:#36D28F;" d="M434.393,286.849c-24.66,24.66-67.912,21.389-67.912,21.389s-3.271-43.252,21.389-67.912
	s67.912-21.389,67.912-21.389S459.053,262.189,434.393,286.849z"/>
<path style="fill:#FFC66C;" d="M371.295,174.003c-1.401,5.564-2.975,11.554-4.528,17.93h-90.485
	c-1.553-6.376-3.127-12.367-4.528-17.93c1.401-5.564,2.975-11.564,4.528-17.94h90.485
	C368.321,162.439,369.894,168.44,371.295,174.003z"/>
<path style="fill:#36D28F;" d="M276.282,156.063h90.485c-4.579-18.722-9.057-40.643-9.057-64.066
	c0-31.394,8.051-60.086,13.585-81.997h-99.541c5.534,21.91,13.585,50.603,13.585,81.997
	C285.339,115.42,280.862,137.341,276.282,156.063z"/>
<path style="fill:#FFC66C;" d="M371.295,337.996c-1.391,5.503-2.934,11.422-4.478,17.717h-90.586
	c-1.543-6.295-3.087-12.214-4.478-17.717c1.421-5.625,3.005-11.696,4.579-18.154h90.383
	C368.29,326.3,369.874,332.372,371.295,337.996z"/>
<path style="fill:#36D28F;" d="M366.818,355.714h-90.586c4.589,18.773,9.107,40.775,9.107,64.29
	c0,31.393-8.051,60.086-13.585,81.997h99.541c-5.533-21.91-13.585-50.603-13.585-81.997
	C357.71,396.488,362.229,374.487,366.818,355.714z"/>
<path style="fill:#91E0B7;" d="M276.333,319.843h90.383c-4.559-18.672-9.006-40.511-9.006-63.843
	c0-23.423,4.478-45.344,9.057-64.066h-90.485c4.579,18.722,9.057,40.643,9.057,64.066
	C285.339,279.332,280.892,301.171,276.333,319.843z"/>
<path d="M183.828,404.21c-2.63,0-5.2-1.07-7.07-2.93c-0.46-0.46-0.87-0.97-1.24-1.52c-0.36-0.54-0.67-1.12-0.92-1.73
	c-0.25-0.6-0.44-1.23-0.57-1.87c-0.13-0.64-0.19-1.3-0.19-1.95s0.06-1.31,0.19-1.95s0.32-1.27,0.57-1.87
	c0.25-0.61,0.56-1.19,0.92-1.73c0.37-0.55,0.78-1.06,1.24-1.52c0.47-0.46,0.98-0.88,1.52-1.24c0.55-0.36,1.13-0.67,1.73-0.92
	c0.6-0.25,1.23-0.45,1.87-0.57c1.29-0.26,2.62-0.26,3.91,0c0.64,0.12,1.27,0.32,1.87,0.57c0.6,0.25,1.18,0.56,1.73,0.92
	c0.54,0.36,1.06,0.78,1.52,1.24c0.46,0.461,0.88,0.97,1.24,1.52c0.36,0.54,0.67,1.12,0.92,1.73c0.25,0.6,0.44,1.23,0.57,1.87
	c0.13,0.64,0.2,1.3,0.2,1.95s-0.07,1.31-0.2,1.95c-0.13,0.64-0.32,1.27-0.57,1.87c-0.25,0.61-0.56,1.19-0.92,1.73
	c-0.36,0.55-0.78,1.06-1.24,1.52s-0.98,0.88-1.52,1.24c-0.55,0.36-1.13,0.67-1.73,0.92c-0.6,0.25-1.23,0.45-1.87,0.58
	C185.138,404.14,184.488,404.21,183.828,404.21z"/>
<path d="M321.528,52.61c-0.65,0-1.31-0.07-1.96-0.2c-0.64-0.12-1.26-0.32-1.87-0.57c-0.6-0.25-1.18-0.56-1.72-0.92
	c-0.55-0.36-1.06-0.78-1.52-1.24c-0.46-0.46-0.88-0.97-1.25-1.52c-0.36-0.54-0.67-1.12-0.92-1.73c-0.25-0.6-0.44-1.23-0.57-1.87
	s-0.19-1.3-0.19-1.95s0.06-1.31,0.19-1.96c0.13-0.63,0.32-1.26,0.57-1.87c0.25-0.6,0.56-1.18,0.92-1.72
	c0.37-0.55,0.79-1.06,1.25-1.52s0.97-0.88,1.52-1.25c0.54-0.36,1.12-0.67,1.72-0.92c0.61-0.25,1.23-0.44,1.87-0.559
	c1.29-0.26,2.62-0.26,3.91,0c0.64,0.12,1.27,0.309,1.87,0.559s1.19,0.56,1.73,0.92c0.54,0.37,1.06,0.79,1.52,1.25
	s0.88,0.97,1.24,1.52c0.36,0.54,0.67,1.12,0.92,1.72c0.25,0.61,0.44,1.24,0.57,1.87c0.13,0.65,0.2,1.31,0.2,1.96
	c0,0.65-0.07,1.31-0.2,1.95s-0.32,1.27-0.57,1.87c-0.25,0.61-0.56,1.19-0.92,1.73c-0.36,0.55-0.78,1.06-1.24,1.52
	s-0.98,0.88-1.52,1.24c-0.54,0.36-1.13,0.67-1.73,0.92s-1.23,0.45-1.87,0.57C322.838,52.54,322.178,52.61,321.528,52.61z"/>
<path d="M243.292,12.448c0.755-2.989,0.088-6.16-1.807-8.593S236.679,0,233.596,0h-99.541c-3.084,0-5.995,1.422-7.89,3.855
	c-1.895,2.433-2.561,5.603-1.806,8.593c0.459,1.814,0.934,3.673,1.42,5.577c5.284,20.682,11.861,46.421,11.861,73.971
	c0,22.763-4.434,43.959-8.77,61.69c-0.002,0.007-0.003,0.014-0.005,0.021c-1.006,4.13-2.021,8.103-3.004,11.944
	c-0.516,2.02-1.02,3.99-1.503,5.909c-0.404,1.603-0.404,3.282,0,4.885c0.489,1.941,0.998,3.933,1.521,5.975
	c0.977,3.82,1.988,7.77,2.989,11.88c0,0,0,0.001,0,0.002c0.001,0.002,0.001,0.004,0.002,0.006
	c1.616,6.607,3.245,13.696,4.654,21.167c-0.75-0.831-1.525-1.647-2.326-2.449c-27.59-27.589-73.788-24.436-75.737-24.29
	c-4.928,0.373-8.845,4.29-9.218,9.218c-0.147,1.953-3.3,48.147,24.289,75.737c18.91,18.909,46.56,23.377,62.714,24.27
	c-1.327,6.854-2.828,13.372-4.319,19.478c-0.003,0.011-0.006,0.023-0.009,0.034c-1.075,4.41-2.152,8.63-3.194,12.711
	c-0.467,1.828-0.923,3.616-1.364,5.36c-0.406,1.608-0.406,3.292,0,4.9c0.451,1.784,0.918,3.611,1.395,5.48
	c0.99,3.877,2.028,7.937,3.065,12.168c0.001,0.005,0.003,0.01,0.004,0.016c4.36,17.839,8.816,39.141,8.816,61.893
	c0,27.55-6.577,53.289-11.861,73.971c-0.486,1.904-0.961,3.764-1.42,5.577c-0.755,2.99-0.088,6.161,1.806,8.593
	c1.895,2.433,4.806,3.855,7.89,3.855h99.541c3.083,0,5.995-1.422,7.889-3.855c1.895-2.433,2.561-5.604,1.807-8.593
	c-0.458-1.815-0.934-3.676-1.421-5.582c-5.284-20.681-11.859-46.419-11.859-73.967c0-22.746,4.454-44.045,8.813-61.883
	c0.002-0.008,0.004-0.017,0.007-0.025c1.032-4.209,2.064-8.249,3.05-12.107c0.483-1.891,0.955-3.738,1.411-5.541
	c0.406-1.608,0.406-3.292,0-4.9c-0.441-1.745-0.898-3.532-1.364-5.36c-1.042-4.081-2.12-8.301-3.194-12.711
	c0-0.001-0.001-0.002-0.001-0.003v-0.001c-4.312-17.662-8.72-38.777-8.72-61.471c0-22.762,4.434-43.958,8.771-61.691
	c0-0.002,0.001-0.004,0.001-0.006c0-0.001,0-0.001,0-0.002c0.999-4.098,2.006-8.038,2.98-11.848
	c0.525-2.054,1.038-4.057,1.529-6.008c0.404-1.602,0.404-3.28,0-4.883c-0.486-1.93-0.992-3.912-1.511-5.943
	c-0.979-3.831-1.992-7.792-2.995-11.911c-0.002-0.007-0.003-0.014-0.005-0.021c-4.337-17.731-8.771-38.927-8.771-61.69
	c0-27.548,6.576-53.286,11.859-73.967C242.357,16.125,242.833,14.263,243.292,12.448z M154.575,292.244
	c0.5-1.07,0.817-2.243,0.911-3.48c0.023-0.3,0.116-1.64,0.158-3.794c1.224-9.222,1.995-18.913,1.995-28.97
	c0-19.664-2.949-37.942-6.466-54.066h65.303c-3.517,16.124-6.466,34.402-6.466,54.066c0,19.591,2.927,37.789,6.42,53.843h-65.212
	C152.441,304.228,153.593,298.351,154.575,292.244z M222.404,170.571c0.297,1.161,0.589,2.305,0.876,3.432
	c-0.292,1.148-0.59,2.312-0.892,3.494c-0.373,1.459-0.751,2.936-1.132,4.437h-74.861c-0.384-1.511-0.765-3-1.141-4.469
	c-0.299-1.171-0.595-2.324-0.884-3.462c0.284-1.116,0.573-2.249,0.867-3.398c0.381-1.493,0.768-3.005,1.158-4.542h74.859
	C221.642,167.588,222.026,169.089,222.404,170.571z M146.34,345.713c-0.408-1.607-0.811-3.186-1.207-4.737
	c-0.257-1.006-0.511-1.999-0.761-2.98c0.24-0.942,0.483-1.896,0.73-2.861c0.444-1.737,0.894-3.498,1.348-5.292h74.752
	c0.454,1.794,0.904,3.555,1.348,5.292c0.247,0.965,0.49,1.919,0.73,2.862c-0.255,1-0.514,2.015-0.776,3.041
	c-0.391,1.531-0.789,3.09-1.192,4.676L146.34,345.713L146.34,345.713z M220.733,20c-5.159,20.48-10.722,45.043-10.722,71.997
	c0,19.665,2.949,37.942,6.465,54.066h-65.302c3.517-16.124,6.465-34.402,6.465-54.066c0-26.954-5.563-51.516-10.723-71.997H220.733z
	 M66.194,208.69c12.845,0.583,36.161,3.78,50.86,18.48c14.702,14.702,17.897,38.022,18.479,50.859
	c-12.845-0.582-36.161-3.779-50.86-18.478C69.972,244.848,66.776,221.528,66.194,208.69z M193.833,492v-60.278
	c0-5.523-4.477-10-10-10s-10,4.477-10,10V492h-26.917c5.159-20.48,10.723-45.043,10.723-71.997c0-19.691-2.973-38.064-6.516-54.289
	h65.403c-3.542,16.226-6.516,34.6-6.516,54.289c0,26.954,5.564,51.517,10.722,71.997H193.833z"/>
<path d="M465.754,218.183c-0.373-4.928-4.29-8.845-9.218-9.218c-1.953-0.146-48.148-3.3-75.737,24.29
	c-5.458,5.459-9.713,11.645-13.026,18.074c0.548-20.988,4.67-40.506,8.708-57.019c0.001-0.002,0.001-0.004,0.001-0.006
	c0-0.001,0-0.001,0-0.001c1.001-4.111,2.012-8.061,2.989-11.881c0.522-2.042,1.032-4.034,1.521-5.975
	c0.404-1.603,0.404-3.282,0-4.885c-0.483-1.919-0.987-3.889-1.503-5.909c-0.982-3.841-1.997-7.813-3.004-11.944
	c-0.002-0.007-0.003-0.014-0.005-0.021c-2.824-11.545-5.688-24.559-7.343-38.517c15.113-0.345,46.265-3.748,66.953-24.436
	c0-0.001,0-0.001,0-0.001c27.589-27.589,24.437-73.784,24.289-75.737c-0.372-4.928-4.289-8.845-9.218-9.218
	c-1.918-0.145-46.548-3.19-74.274,22.872c0.906-3.669,1.812-7.216,2.683-10.625c0.486-1.904,0.961-3.764,1.42-5.577
	c0.755-2.99,0.088-6.161-1.806-8.593C377.29,1.422,374.379,0,371.295,0h-99.541c-3.083,0-5.995,1.422-7.889,3.855
	c-1.895,2.433-2.561,5.603-1.807,8.593c0.459,1.816,0.935,3.678,1.421,5.584c5.284,20.68,11.859,46.417,11.859,73.964
	c0,22.763-4.434,43.959-8.771,61.69c0,0.002-0.001,0.004-0.001,0.006c0,0.001,0,0.001,0,0.001
	c-1.004,4.118-2.015,8.078-2.994,11.908c-0.521,2.037-1.029,4.024-1.516,5.959c-0.404,1.603-0.404,3.28,0,4.883
	c0.492,1.956,1.006,3.965,1.533,6.024c0.974,3.805,1.98,7.74,2.977,11.833c0.001,0.002,0.001,0.004,0.002,0.006
	c0,0.001,0,0.001,0,0.001c4.337,17.733,8.771,38.929,8.771,61.691c0,22.692-4.408,43.808-8.721,61.471v0.001
	c0,0.001,0,0.002-0.001,0.003c-1.075,4.41-2.152,8.63-3.194,12.711c-0.467,1.828-0.923,3.616-1.364,5.36
	c-0.406,1.608-0.406,3.292,0,4.9c0.456,1.803,0.928,3.65,1.411,5.541c0.986,3.858,2.018,7.898,3.05,12.107
	c0.002,0.008,0.004,0.017,0.007,0.025c4.359,17.839,8.813,39.139,8.813,61.883c0,27.547-6.576,53.284-11.859,73.964
	c-0.487,1.906-0.963,3.769-1.421,5.585c-0.755,2.989-0.088,6.16,1.807,8.593c1.895,2.433,4.806,3.855,7.889,3.855h99.541
	c3.083,0,5.995-1.422,7.89-3.855c1.894-2.433,2.561-5.604,1.806-8.593c-0.458-1.814-0.934-3.673-1.42-5.577
	c-5.284-20.682-11.861-46.421-11.861-73.971c0-22.747,4.454-44.046,8.813-61.883c0.002-0.008,0.004-0.017,0.006-0.025
	c1.038-4.231,2.075-8.292,3.065-12.168c0.477-1.869,0.944-3.696,1.395-5.479c0.407-1.608,0.407-3.293,0.001-4.9
	c-0.441-1.745-0.898-3.532-1.364-5.36c-0.978-3.829-1.987-7.781-2.995-11.897c15.756-0.618,45.069-4.606,64.833-24.37l0,0
	C469.054,266.33,465.901,220.135,465.754,218.183z M358.954,166.063c0.39,1.537,0.777,3.049,1.158,4.542
	c0.294,1.149,0.583,2.282,0.867,3.398c-0.289,1.137-0.584,2.291-0.884,3.462c-0.376,1.469-0.757,2.958-1.141,4.469h-74.861
	c-0.379-1.495-0.756-2.967-1.128-4.421c-0.304-1.187-0.603-2.357-0.896-3.51c0.288-1.132,0.582-2.282,0.88-3.448
	c0.377-1.477,0.76-2.973,1.146-4.492H358.954z M354.131,309.843h-65.212c3.493-16.055,6.42-34.253,6.42-53.843
	c0-19.664-2.949-37.942-6.466-54.066h65.302c-3.517,16.124-6.466,34.402-6.466,54.066
	C347.71,275.589,350.638,293.788,354.131,309.843z M284.039,345.713c-0.403-1.586-0.801-3.145-1.192-4.676
	c-0.262-1.026-0.522-2.04-0.776-3.041c0.24-0.942,0.483-1.897,0.73-2.862c0.444-1.737,0.894-3.498,1.348-5.292h74.752
	c0.454,1.794,0.904,3.555,1.348,5.292c0.247,0.965,0.49,1.919,0.73,2.861c-0.25,0.981-0.504,1.975-0.761,2.98
	c-0.396,1.55-0.799,3.13-1.207,4.737L284.039,345.713L284.039,345.713z M440.454,25.729c-0.554,12.811-3.717,36.074-18.506,50.862
	c-14.712,14.712-38.054,17.902-50.886,18.481c0.554-12.811,3.717-36.074,18.505-50.862C404.28,29.498,427.622,26.309,440.454,25.729
	z M358.433,20c-5.159,20.48-10.723,45.043-10.723,71.997c0,19.665,2.949,37.942,6.465,54.066h-22.651V80.121c0-5.523-4.477-10-10-10
	s-10,4.477-10,10v65.942h-22.651c3.517-16.124,6.465-34.402,6.465-54.066c0-26.953-5.564-51.517-10.723-71.997H358.433z
	 M284.617,492c5.159-20.479,10.723-45.043,10.723-71.997c0-19.688-2.974-38.062-6.516-54.289h65.403
	c-3.543,16.226-6.516,34.598-6.516,54.289c0,26.954,5.564,51.517,10.723,71.997H284.617z M427.323,279.777
	c-14.713,14.712-38.055,17.902-50.887,18.481c0.554-12.811,3.717-36.074,18.505-50.862c14.713-14.712,38.055-17.902,50.887-18.481
	C445.274,241.727,442.111,264.989,427.323,279.777z"/>
<g>
</g>
<g>
</g>
<g>
</g>
<g>
</g>
<g>
</g>
<g>
</g>
<g>
</g>
<g>
</g>
<g>
</g>
<g>
</g>
<g>
</g>
<g>
</g>
<g>
</g>
<g>
</g>
<g>
</g>
</svg>
