<svg id="4e8a1d76-9439-43b9-9fcb-ddf9b92d8438" data-name="2238c246-80a2-42a8-8139-29365a0dfe3e" xmlns="http://www.w3.org/2000/svg" viewBox="0 0 196.28 54.5"><title>clickandcollect</title><text transform="translate(51.84 44.17)" font-size="24" font-family="OpenSans, Open Sans">Click<tspan x="51.3" y="0" fill="#ea536a" font-family="OpenSans-Bold, Open Sans" font-weight="700">&amp;</tspan><tspan x="69.3" y="0">Collect</tspan></text><path d="M53.65,49.46,50,14.31a1.67,1.67,0,0,0-1.74-1.37H40.81c-.1-5.86-5.68-10.6-12.53-10.6S15.86,7.08,15.75,12.94H8.28a1.66,1.66,0,0,0-1.74,1.37L2.91,49.46s0,.08,0,.13c0,4,4.27,7.25,9.52,7.25H44.14c5.26,0,9.52-3.25,9.52-7.25A.53.53,0,0,0,53.65,49.46ZM28.28,5.35c4.92,0,8.92,3.39,9,7.59H19.25C19.36,8.74,23.37,5.35,28.28,5.35ZM44.23,53.76l-31.72.15c-3.29,0-6-1.84-6-4.15L9.79,16.05l5.86,0,0,4.57a1.64,1.64,0,0,0,1.76,1.5,1.63,1.63,0,0,0,1.74-1.51l0-4.57,18.07-.09,0,4.57a1.77,1.77,0,0,0,3.5,0l0-4.57,5.86,0,3.65,33.67C50.19,51.86,47.51,53.74,44.23,53.76Z" transform="translate(-2.9 -2.34)" fill="#ef546a"/><path d="M45.22,54.84,11.37,55C7.86,55,5,53,4.93,50.49l3.53-36.6,6.26,0,0,5a1.77,1.77,0,0,0,1.88,1.63,1.77,1.77,0,0,0,1.86-1.65l0-5,19.28-.09,0,5a1.89,1.89,0,0,0,3.74,0l0-5,6.25,0,3.9,36.57C51.57,52.77,48.72,54.82,45.22,54.84Z" transform="translate(-2.9 -2.34)" fill="#ef546a"/><path d="M35,29c.09,0,.52-.8,1.18-.8a1.34,1.34,0,0,1,1.26,1.36,1.63,1.63,0,0,1-.28,1A6.87,6.87,0,0,1,35,32.46a6.82,6.82,0,0,1-2.18-1.93,1.63,1.63,0,0,1-.28-1,1.34,1.34,0,0,1,1.26-1.33C34.47,28.19,34.88,29,35,29Z" transform="translate(-2.9 -2.34)" fill="#fff"/><path d="M32.12,20.83c.44,0,.69.52.76.52s.33-.52.76-.52a.87.87,0,0,1,.82.86,1,1,0,0,1-.18.64,4.49,4.49,0,0,1-1.38,1.23,4.3,4.3,0,0,1-1.39-1.23,1,1,0,0,1-.18-.64.87.87,0,0,1,.82-.86Z" transform="translate(-2.9 -2.34)" fill="#fff"/><path d="M26.75,24.77c.56,0,.88.64.95.64s.41-.64.94-.64a1.07,1.07,0,0,1,1,1,1.28,1.28,0,0,1-.21.83,5.49,5.49,0,0,1-1.72,1.5A5.28,5.28,0,0,1,26,26.64a1.33,1.33,0,0,1-.22-.83A1.06,1.06,0,0,1,26.75,24.77Z" transform="translate(-2.9 -2.34)" fill="#fff"/><path d="M28.46,46c-2.78,1.68-5.82,3.12-6.66,2.91-1.39-.32-6.43-7.48-7.39-10.21a7.33,7.33,0,0,1-.28-4.49A5.55,5.55,0,0,1,20.55,30c2.81.67,3.83,4.42,4.25,4.53s2.78-2.85,5.62-2.14a5.58,5.58,0,0,1,3.68,3.26s0,.06-.08,0a5.29,5.29,0,0,0-3-1.07,4.21,4.21,0,0,0-1,.12,5.35,5.35,0,0,0-3.34,2.55,6.35,6.35,0,0,0-.82,4.27,7.08,7.08,0,0,0,2.6,4.36c.08,0,.08.09,0,.15Z" transform="translate(-2.9 -2.34)" fill="#fff"/><path d="M42.29,40.9c-.7,2-4.51,7.38-5.56,7.63s-6.54-2.87-8-4.38a5.26,5.26,0,0,1-1.51-2.92,4.47,4.47,0,0,1,3.08-5.08c2.19-.51,4,1.63,4.23,1.63s1.11-2.87,3.18-3.36A4.11,4.11,0,0,1,42.5,37.6,5.47,5.47,0,0,1,42.29,40.9Z" transform="translate(-2.9 -2.34)" fill="#fff"/><rect x="8.52" y="11.89" width="7.19" height="6.44" fill="#ef546a"/><rect x="35.14" y="11.89" width="5.81" height="6.44" fill="#ef546a"/></svg>