<svg id="a35769fe-80b7-46d5-b449-ba65c397cf1e" data-name="3cd17773-b953-49cd-9617-cd99bbb93497" xmlns="http://www.w3.org/2000/svg" viewBox="0 0 805 155.6"><title>househomelove</title><path d="M131.27,53,75.07,6.1a9.35,9.35,0,0,0-11.9.1L8.07,53a8.62,8.62,0,0,0-3.2,7v82.14h0a9.18,9.18,0,0,0,9.2,9.16H125.41a9.18,9.18,0,0,0,9.16-9.2V60A9,9,0,0,0,131.27,53ZM89.92,77.57c.3,0,1.58-2.24,3.59-2.24a3.91,3.91,0,0,1,3.83,3.73,4.48,4.48,0,0,1-.83,2.83c-1.06,1.61-5.6,5.42-6.58,5.42s-5.54-3.83-6.59-5.42a4.48,4.48,0,0,1-.83-2.83,3.91,3.91,0,0,1,3.83-3.73C88.43,75.32,89.66,77.57,89.92,77.57Zm-8.61-22.9c1.35,0,2.13,1.44,2.3,1.44s1-1.44,2.3-1.44a2.5,2.5,0,0,1,2.45,2.39,2.88,2.88,0,0,1-.53,1.81c-.67,1-3.58,3.47-4.21,3.47s-3.55-2.45-4.22-3.47a2.87,2.87,0,0,1-.53-1.81A2.5,2.5,0,0,1,81.32,54.67ZM65.08,65.72c1.67,0,2.64,1.78,2.85,1.78s1.25-1.78,2.85-1.78a3.1,3.1,0,0,1,3,3,3.55,3.55,0,0,1-.66,2.24c-.84,1.27-4.43,4.29-5.21,4.29s-4.39-3-5.22-4.29a3.55,3.55,0,0,1-.66-2.24A3.1,3.1,0,0,1,65.08,65.72Zm5.16,59.58c-8.4,4.73-17.61,8.76-20.13,8.2-4.1-.91-19.46-21-22.36-28.66a19.13,19.13,0,0,1-.85-12.56c2.35-8.41,10.88-13.89,19.4-12S57.92,92.7,59.18,93c1.1.25,8.29-8,17-6a16.52,16.52,0,0,1,11.13,9.15c0,.07-.08.17-.26.07a16.77,16.77,0,0,0-9.17-3,13.58,13.58,0,0,0-3,.33,16.12,16.12,0,0,0-10.07,7.07,16.9,16.9,0,0,0-2.48,12,18.54,18.54,0,0,0,5.78,10.55,19.55,19.55,0,0,0,2.09,1.75C70.43,125,70.45,125.17,70.25,125.31ZM112.06,111c-2.17,5.71-13.63,20.71-16.69,21.39s-19.88-8.05-24.23-12.27a14.28,14.28,0,0,1-4.55-8.21,12.45,12.45,0,0,1,9.31-14.24c6.54-1.46,11.9,4.67,12.72,4.49s3.35-8.07,9.61-9.46a12.45,12.45,0,0,1,14.47,8.94A14.26,14.26,0,0,1,112.06,111Z" fill="#ef546a"/><path d="M166.78,92.38a16.84,16.84,0,0,1,15.41-8.93q7.45,0,11.43,4.62t4,14.33v29h-5.23V102.25q0-7.68-3-11A10.69,10.69,0,0,0,181,87.89a14.07,14.07,0,0,0-8.95,2.81,16.37,16.37,0,0,0-5.29,7.48v33.25h-5.22V63.51h5.22Z"/><path d="M208.27,107.18q0-10.41,5.7-17.07t15.11-6.66q9.45,0,15.15,6.66t5.7,17.07v1.44q0,10.45-5.68,17.09t-15.09,6.64q-9.49,0-15.2-6.64t-5.7-17.09Zm5.23,1.41a22.4,22.4,0,0,0,4.14,13.75,14.63,14.63,0,0,0,23,0,22.32,22.32,0,0,0,4.16-13.75v-1.44a22.21,22.21,0,0,0-4.18-13.66,14.54,14.54,0,0,0-22.95,0,22.38,22.38,0,0,0-4.14,13.66Z"/><path d="M291.7,123.73a16.24,16.24,0,0,1-6.1,6.38,17.61,17.61,0,0,1-9.06,2.24q-7.45,0-11.67-5.05t-4.22-15.67V84.32h5.23v27.44q0,8.64,2.94,12.39a10,10,0,0,0,8.34,3.75q5.92,0,9.45-2.66a13.84,13.84,0,0,0,4.92-7.33V84.32h5.22v47.11h-4.62Z"/><path d="M338.68,119.44a7.59,7.59,0,0,0-2.72-5.78q-2.72-2.48-9.82-4-8.45-1.83-12.47-4.83a10,10,0,0,1-4-8.49,11.38,11.38,0,0,1,4.55-9.12q4.55-3.72,12-3.72,8,0,12.63,3.94a11.78,11.78,0,0,1,4.44,9.86l-.09.26h-4.83a8.72,8.72,0,0,0-3.29-6.75q-3.29-2.87-8.86-2.87t-8.56,2.45a7.37,7.37,0,0,0-2.85,5.74,6.79,6.79,0,0,0,2.46,5.37q2.46,2.12,9.82,3.73,8.4,1.88,12.58,5.13a10.61,10.61,0,0,1,4.18,8.85,11.45,11.45,0,0,1-4.77,9.54q-4.77,3.65-12.61,3.65-8.58,0-13.48-4.09t-4.64-9.75l.09-.26h4.79a8.58,8.58,0,0,0,4.16,7.37,17.39,17.39,0,0,0,9.08,2.3q5.66,0,8.93-2.48A7.33,7.33,0,0,0,338.68,119.44Z"/><path d="M373.56,132.35a18.9,18.9,0,0,1-14.7-6.53Q353,119.29,353,109.27v-2.39q0-10.1,5.81-16.76a18,18,0,0,1,14.09-6.66q8.66,0,13.63,5.49t5,14.63V108H358.23v1.26a20.78,20.78,0,0,0,4.22,13.29,13.47,13.47,0,0,0,11.1,5.34,22.78,22.78,0,0,0,8.32-1.35,16.36,16.36,0,0,0,5.88-3.87l2.22,3.57a18.9,18.9,0,0,1-6.73,4.45A25.77,25.77,0,0,1,373.56,132.35Zm-.65-44.46a12.48,12.48,0,0,0-9.71,4.41,18.93,18.93,0,0,0-4.57,11.05l.09.22h27.61v-1.3A15,15,0,0,0,382.7,92,12.36,12.36,0,0,0,372.9,87.89Z"/><path d="M407,92.38a16.84,16.84,0,0,1,15.41-8.93q7.45,0,11.43,4.62t4,14.33v29h-5.23V102.25q0-7.68-3-11a10.69,10.69,0,0,0-8.34-3.34,14.06,14.06,0,0,0-8.95,2.81A16.36,16.36,0,0,0,407,98.19v33.25h-5.22V63.51H407Z"/><path d="M448.54,107.18q0-10.41,5.7-17.07t15.11-6.66q9.45,0,15.15,6.66t5.7,17.07v1.44q0,10.45-5.68,17.09t-15.09,6.64q-9.49,0-15.2-6.64t-5.7-17.09Zm5.23,1.41a22.4,22.4,0,0,0,4.14,13.75,14.63,14.63,0,0,0,23,0A22.32,22.32,0,0,0,485,108.6v-1.44a22.21,22.21,0,0,0-4.18-13.66,14.54,14.54,0,0,0-22.95,0,22.37,22.37,0,0,0-4.14,13.66Z"/><path d="M505.49,84.32l.48,7.79a16.56,16.56,0,0,1,6-6.4,17.13,17.13,0,0,1,9-2.26,15.09,15.09,0,0,1,9,2.61,14.38,14.38,0,0,1,5.2,8,18,18,0,0,1,6.07-7.77,16.11,16.11,0,0,1,9.6-2.81q7.53,0,11.63,5t4.09,15.5v27.47H561.4V103.82q0-8.73-3.07-12.33a10.64,10.64,0,0,0-8.56-3.6q-6.05,0-9.36,3.8a18,18,0,0,0-4.09,9.73c0,.2,0,.49,0,.87s0,.65,0,.83v28.32h-5.27V103.82q0-8.55-3.11-12.24a10.6,10.6,0,0,0-8.56-3.69q-5.53,0-8.77,2.81a15,15,0,0,0-4.55,7.57v33.16h-5.27V84.32Z"/><path d="M597.8,132.35a18.9,18.9,0,0,1-14.7-6.53q-5.86-6.53-5.86-16.55v-2.39q0-10.1,5.81-16.76a18,18,0,0,1,14.09-6.66q8.66,0,13.63,5.49t5,14.63V108H582.47v1.26a20.78,20.78,0,0,0,4.22,13.29,13.47,13.47,0,0,0,11.1,5.34,22.78,22.78,0,0,0,8.32-1.35,16.36,16.36,0,0,0,5.88-3.87l2.22,3.57a18.9,18.9,0,0,1-6.73,4.45A25.77,25.77,0,0,1,597.8,132.35Zm-.65-44.46a12.48,12.48,0,0,0-9.71,4.41,18.93,18.93,0,0,0-4.57,11.05l.09.22h27.61v-1.3A15,15,0,0,0,606.94,92,12.36,12.36,0,0,0,597.14,87.89Z"/><path d="M634.68,131.43H626.1V63.51h8.58Z" fill="#ef546a"/><path d="M645.87,107.44q0-10.45,5.66-17.22t15.37-6.77q9.8,0,15.48,6.75t5.68,17.24v1q0,10.54-5.66,17.24T667,132.35q-9.75,0-15.44-6.73t-5.68-17.22Zm8.58.93q0,7.48,3.16,12.35a11.41,11.41,0,0,0,18.7,0q3.18-4.87,3.18-12.35v-1a22.11,22.11,0,0,0-3.2-12.31,10.5,10.5,0,0,0-9.38-4.91,10.35,10.35,0,0,0-9.3,4.91,22.35,22.35,0,0,0-3.16,12.31Z" fill="#ef546a"/><path d="M713.62,117.54l.74,3.31h.26l.83-3.31,10.84-33.22H735l-17.33,47.11h-6.49L693.68,84.32h8.8Z" fill="#ef546a"/><path d="M761.73,132.35q-9.84,0-15.65-6.55t-5.81-17v-1.92q0-10.06,6-16.74t14.17-6.68q9.54,0,14.41,5.75t4.88,15.33v5.36H749.15l-.13.22a18.54,18.54,0,0,0,3.44,11.14,11,11,0,0,0,9.28,4.36,21.59,21.59,0,0,0,7.64-1.24,17.59,17.59,0,0,0,5.68-3.42l3.35,5.58a19.92,19.92,0,0,1-6.66,4.16A26.84,26.84,0,0,1,761.73,132.35ZM760.43,90.2a9.3,9.3,0,0,0-7.36,3.62,17.13,17.13,0,0,0-3.75,9.09l.09.22h21.73V102a13.08,13.08,0,0,0-2.7-8.42Q765.74,90.2,760.43,90.2Z" fill="#ef546a"/></svg>