<?xml version="1.0" encoding="iso-8859-1"?>
<!-- Generator: Adobe Illustrator 19.0.0, SVG Export Plug-In . SVG Version: 6.00 Build 0)  -->
<svg version="1.1" id="Capa_1" xmlns="http://www.w3.org/2000/svg" xmlns:xlink="http://www.w3.org/1999/xlink" x="0px" y="0px"
	 viewBox="0 0 512 512" style="enable-background:new 0 0 512 512;" xml:space="preserve">
<polygon style="fill:#F4F6F7;" points="332.153,504.485 35.574,504.485 35.574,7.515 420.325,7.515 420.325,416.313 "/>
<rect x="35.574" y="7.515" style="fill:#EAECEE;" width="32.063" height="496.971"/>
<polygon style="fill:#D5D9DE;" points="420.325,416.313 332.153,416.313 332.153,504.485 "/>
<circle style="fill:#FDE180;" cx="227.947" cy="151.796" r="104.204"/>
<circle style="fill:#FCDA60;" cx="227.947" cy="151.796" r="80.157"/>
<path style="fill:#FDE180;" d="M451.416,146.128l22.671,22.671c3.13,3.13,3.13,8.206,0,11.336L304.05,350.174l-34.007-34.007
	l170.038-170.038C443.21,142.998,448.286,142.998,451.416,146.128z"/>
<path style="fill:#FCDA60;" d="M466.259,160.971L290.553,336.677l13.496,13.496l170.038-170.037c3.13-3.13,3.13-8.205,0-11.336
	L466.259,160.971z"/>
<polygon style="fill:#FDE180;" points="270.043,316.167 304.05,350.174 258.707,361.51 "/>
<rect x="333.851" y="162.133" transform="matrix(0.7071 0.7071 -0.7071 0.7071 290.3192 -176.2377)" style="fill:#76DCEB;" width="48.093" height="200.389"/>
<rect x="358.61" y="172.392" transform="matrix(0.7071 0.7071 -0.7071 0.7071 300.5777 -180.4853)" style="fill:#49D0E5;" width="19.087" height="200.389"/>
<path d="M339.668,151.796c0-61.601-50.117-111.718-111.718-111.718S116.232,90.195,116.232,151.796s50.117,111.718,111.718,111.718
	S339.668,213.398,339.668,151.796z M227.95,248.485c-53.314,0-96.689-43.375-96.689-96.689s43.375-96.689,96.689-96.689
	s96.689,43.375,96.689,96.689S281.264,248.485,227.95,248.485z"/>
<path d="M237.369,88.172h-0.501V71.64c0-4.15-3.364-7.515-7.515-7.515c-4.15,0-7.515,3.365-7.515,7.515v16.707
	c-17.973,1.767-32.063,16.965-32.063,35.395c0,19.613,15.956,35.569,35.569,35.569h8.016c11.326,0,20.54,9.214,20.54,20.54
	s-9.214,20.54-20.54,20.54h-12.023c-9.116,0-16.532-7.416-16.532-16.532c0-4.15-3.365-7.515-7.515-7.515
	c-4.15,0-7.515,3.365-7.515,7.515c0,17.403,14.159,31.562,31.562,31.562h0.501v16.532c0,4.15,3.365,7.515,7.515,7.515
	c4.151,0,7.515-3.365,7.515-7.515v-16.707c17.973-1.767,32.063-16.965,32.063-35.395c0-19.613-15.956-35.569-35.569-35.569h-8.016
	c-11.326,0-20.54-9.214-20.54-20.54s9.214-20.54,20.54-20.54h12.023c9.116,0,16.532,7.416,16.532,16.532v8.016
	c0,4.15,3.364,7.515,7.515,7.515c4.151,0,7.515-3.365,7.515-7.515v-8.016C268.931,102.331,254.772,88.172,237.369,88.172z"/>
<path d="M479.402,163.486l-22.672-22.671c-5.987-5.987-15.977-5.987-21.964,0l-6.926,6.926V7.515c0-4.15-3.364-7.515-7.515-7.515
	H35.574c-4.15,0-7.515,3.365-7.515,7.515v88.673c0,4.15,3.365,7.515,7.515,7.515s7.515-3.365,7.515-7.515V15.029h369.722v146.787
	c0,0.304,0.023,0.602,0.058,0.897l-148.141,148.14c-0.95,0.958-1.647,2.182-1.977,3.491l-10.831,43.324l-15.532,15.531
	c-2.935,2.935-2.935,7.692,0,10.627c2.896,2.896,7.732,2.895,10.628,0l15.532-15.531l43.324-10.831
	c1.308-0.33,2.537-1.022,3.491-1.977l103.447-103.447v12.752l-12.053,12.053c-2.935,2.935-2.935,7.693,0,10.627
	c1.999,1.998,5.03,2.709,7.709,1.811c1.812-0.607,3.036-1.928,4.343-3.235v122.753h-80.658c-4.151,0-7.515,3.365-7.515,7.515v80.658
	H43.087V131.256c0-4.15-3.365-7.515-7.515-7.515s-7.515,3.365-7.515,7.515v373.229c0,4.15,3.365,7.515,7.515,7.515h296.579
	c1.97,0,3.921-0.809,5.314-2.201l88.172-88.172c1.393-1.393,2.2-3.345,2.2-5.313V271.018l40.225-40.225
	c2.935-2.935,2.935-7.692,0-10.627l-11.69-11.69l23.026-23.026C485.457,179.394,485.457,169.542,479.402,163.486z M339.668,486.344
	v-62.516h62.516L339.668,486.344z M304.05,339.546l-23.381-23.38l131.071-131.071l23.381,23.38L304.05,339.546z M274.114,330.865
	l15.238,15.237l-20.317,5.08L274.114,330.865z M427.84,249.763v-12.752l17.908-17.908l6.375,6.376L427.84,249.763z M468.774,174.822
	l-23.025,23.025l-23.381-23.38l23.026-23.026c0.036-0.036,0.146-0.146,0.354-0.146c0.207,0,0.318,0.11,0.355,0.146l0,0
	l22.672,22.671c0.036,0.036,0.146,0.146,0.146,0.355C468.921,174.676,468.81,174.786,468.774,174.822z"/>
<path d="M155.809,383.75h56.11c4.15,0,7.515-3.365,7.515-7.515s-3.365-7.515-7.515-7.515h-56.11c-4.15,0-7.515,3.365-7.515,7.515
	S151.659,383.75,155.809,383.75z"/>
<path d="M300.091,408.798H155.809c-4.15,0-7.515,3.365-7.515,7.515s3.365,7.515,7.515,7.515h144.282
	c4.151,0,7.515-3.365,7.515-7.515S304.242,408.798,300.091,408.798z"/>
<path d="M155.809,448.877c-4.15,0-7.515,3.365-7.515,7.515s3.365,7.515,7.515,7.515h32.063c4.15,0,7.515-3.365,7.515-7.515
	s-3.365-7.515-7.515-7.515H155.809z"/>
<path d="M300.091,448.877h-80.157c-4.15,0-7.515,3.365-7.515,7.515s3.365,7.515,7.515,7.515h80.157c4.151,0,7.515-3.365,7.515-7.515
	S304.242,448.877,300.091,448.877z"/>
<g>
</g>
<g>
</g>
<g>
</g>
<g>
</g>
<g>
</g>
<g>
</g>
<g>
</g>
<g>
</g>
<g>
</g>
<g>
</g>
<g>
</g>
<g>
</g>
<g>
</g>
<g>
</g>
<g>
</g>
</svg>
