<?xml version="1.0" encoding="iso-8859-1"?>
<!-- Generator: Adobe Illustrator 19.0.0, SVG Export Plug-In . SVG Version: 6.00 Build 0)  -->
<svg version="1.1" id="Capa_1" xmlns="http://www.w3.org/2000/svg" xmlns:xlink="http://www.w3.org/1999/xlink" x="0px" y="0px"
	 viewBox="0 0 512.002 512.002" style="enable-background:new 0 0 512.002 512.002;" xml:space="preserve">
<polygon style="fill:#FFFFFF;" points="256.001,502.001 456.001,437.506 456.001,10.001 256.001,74.496 "/>
<polygon style="fill:#FFEFD5;" points="56.001,437.506 256.001,502.001 256.001,74.496 56.001,10.001 "/>
<polygon style="fill:#4DBAF6;" points="207.221,241.06 104.782,208.026 104.782,93.81 207.221,126.844 "/>
<polygon style="fill:#A0E557;" points="407.066,265.771 304.627,298.805 304.627,413.021 407.066,379.987 "/>
<path d="M461.888,1.917c-2.584-1.883-5.914-2.416-8.956-1.434L256.001,63.989L59.071,0.483c-3.047-0.982-6.372-0.449-8.956,1.434
	c-2.585,1.882-4.114,4.887-4.114,8.084v427.505c0,4.34,2.8,8.185,6.931,9.518l200,64.495h0.001c0.992,0.32,2.027,0.483,3.069,0.483
	c1.029,0,2.064-0.159,3.068-0.482l200-64.495c4.131-1.333,6.931-5.177,6.931-9.518V182.174c0-5.523-4.478-10-10-10s-10,4.477-10,10
	v248.05l-180,58.045V81.778l180-58.045v77.268c0,5.523,4.478,10,10,10s10-4.477,10-10v-91
	C466.001,6.804,464.473,3.799,461.888,1.917z M66.001,23.733l180,58.045v406.491l-180-58.045V23.733z"/>
<path d="M456.001,131.001c-2.63,0-5.21,1.07-7.07,2.93c-1.86,1.86-2.93,4.44-2.93,7.07s1.069,5.21,2.93,7.07s4.44,2.93,7.07,2.93
	s5.21-1.07,7.069-2.93c1.86-1.86,2.931-4.44,2.931-7.07s-1.07-5.21-2.931-7.07C461.211,132.071,458.631,131.001,456.001,131.001z"/>
<path d="M101.712,217.544l102.439,33.034c1.005,0.324,2.039,0.482,3.068,0.482c2.09,0,4.156-0.655,5.888-1.917
	c2.585-1.882,4.113-4.886,4.113-8.083V126.844c0-4.34-2.8-8.185-6.931-9.518L107.851,84.292c-3.047-0.981-6.372-0.449-8.956,1.434
	c-2.585,1.882-4.113,4.886-4.113,8.083v114.216C94.782,212.367,97.582,216.211,101.712,217.544z M114.782,107.542l82.439,26.584
	v93.202l-82.439-26.584V107.542z"/>
<path d="M210.29,292.844L107.851,259.81c-5.261-1.693-10.893,1.193-12.587,6.448c-1.694,5.256,1.192,10.892,6.448,12.587
	l102.439,33.034c1.021,0.329,2.055,0.485,3.071,0.485c4.224,0,8.149-2.698,9.516-6.934
	C218.433,300.175,215.546,294.539,210.29,292.844z"/>
<path d="M210.29,348.174L107.851,315.14c-5.261-1.693-10.893,1.193-12.587,6.448c-1.694,5.256,1.192,10.892,6.448,12.587
	l102.439,33.034c1.021,0.329,2.055,0.485,3.071,0.485c4.224,0,8.149-2.698,9.516-6.934
	C218.433,355.505,215.546,349.87,210.29,348.174z"/>
<path d="M210.29,403.504L107.851,370.47c-5.261-1.693-10.893,1.193-12.587,6.448c-1.694,5.256,1.192,10.892,6.448,12.587
	l102.439,33.034c1.021,0.329,2.055,0.485,3.071,0.485c4.224,0,8.149-2.698,9.516-6.934
	C218.433,410.834,215.546,405.199,210.29,403.504z"/>
<path d="M412.953,257.687c-2.584-1.882-5.915-2.415-8.956-1.434l-102.438,33.034c-4.131,1.333-6.931,5.177-6.931,9.518v114.216
	c0,3.197,1.528,6.202,4.113,8.083c1.731,1.261,3.797,1.917,5.888,1.917c1.029,0,2.064-0.159,3.068-0.482l102.438-33.034
	c4.131-1.333,6.931-5.177,6.931-9.518V265.771C417.066,262.574,415.538,259.569,412.953,257.687z M397.066,372.705l-82.438,26.584
	v-93.202l82.438-26.584V372.705z"/>
<path d="M416.583,201.4c-1.695-5.256-7.329-8.143-12.587-6.448l-102.438,33.034c-5.256,1.695-8.144,7.331-6.448,12.587
	c1.366,4.236,5.292,6.934,9.516,6.934c1.017,0,2.051-0.157,3.071-0.485l102.438-33.034
	C415.391,212.291,418.279,206.656,416.583,201.4z"/>
<path d="M416.583,146.07c-1.695-5.256-7.329-8.143-12.587-6.448l-102.438,33.034c-5.256,1.695-8.144,7.331-6.448,12.587
	c1.366,4.236,5.292,6.934,9.516,6.934c1.017,0,2.051-0.157,3.071-0.485l102.438-33.034
	C415.391,156.962,418.279,151.327,416.583,146.07z"/>
<path d="M416.583,90.741c-1.695-5.256-7.329-8.143-12.587-6.448l-102.438,33.034c-5.256,1.695-8.144,7.331-6.448,12.587
	c1.366,4.236,5.292,6.934,9.516,6.934c1.017,0,2.051-0.157,3.071-0.485l102.438-33.034
	C415.391,101.632,418.279,95.997,416.583,90.741z"/>
<g>
</g>
<g>
</g>
<g>
</g>
<g>
</g>
<g>
</g>
<g>
</g>
<g>
</g>
<g>
</g>
<g>
</g>
<g>
</g>
<g>
</g>
<g>
</g>
<g>
</g>
<g>
</g>
<g>
</g>
</svg>
