<?xml version="1.0" encoding="iso-8859-1"?>
<!-- Generator: Adobe Illustrator 19.0.0, SVG Export Plug-In . SVG Version: 6.00 Build 0)  -->
<svg version="1.1" id="Capa_1" xmlns="http://www.w3.org/2000/svg" xmlns:xlink="http://www.w3.org/1999/xlink" x="0px" y="0px"
	 viewBox="0 0 512.001 512.001" style="enable-background:new 0 0 512.001 512.001;" xml:space="preserve">
<path style="fill:#F9CE55;" d="M381.266,61.611l-97.341,30.162l-43.302,13.424c-23.876-59.828-3.508-97.594,64.431-97.594
	C372.983,7.603,381.266,38.293,381.266,61.611z"/>
<path style="fill:#E2A11E;" d="M283.925,91.774l-43.302,13.424c-23.876-59.828-3.508-97.594,64.431-97.594
	C280.904,14.487,265.605,64.907,283.925,91.774z"/>
<path style="fill:#FCD2BE;" d="M381.266,61.611v53.806c0,35.191-28.54,63.731-63.742,63.731c-5.201,0-10.26-0.618-15.096-1.805
	c-25.154-6.103-44.468-27.131-48.037-53.187c-2.829-0.994-5.485-2.616-7.756-4.887c-8.03-8.02-8.03-21.038,0-29.057
	c2.109-2.109,4.552-3.67,7.158-4.664c7.34-2.819,15.989-1.267,21.91,4.654c0-3.934,2.2-11.791,7.33-19.831
	C295.372,51.037,324.693,30.699,381.266,61.611z"/>
<path style="fill:#FAB998;" d="M302.428,177.344c-25.154-6.103-44.468-27.131-48.037-53.187c-2.829-0.994-5.485-2.616-7.756-4.887
	c-8.03-8.02-8.03-21.038,0-29.057c2.109-2.109,4.552-3.67,7.158-4.664c7.34-2.819,15.989-1.267,21.91,4.654
	c0-3.934,2.2-11.791,7.33-19.831C277.254,106.891,278.156,161.599,302.428,177.344z"/>
<path style="fill:#EF4A6E;" d="M381.094,371.854c-44.204,10.118-81.981,9.044-107.885,5.749c-23.39-2.981-37.097-7.776-37.097-7.776
	c0-134.844,52.234-197.734,52.234-197.734l11.588,1.277l33.67,3.731C340.347,253.678,381.094,371.854,381.094,371.854z"/>
<path style="fill:#D8254F;" d="M273.209,377.602c-23.39-2.981-37.097-7.776-37.097-7.776c0-134.844,52.234-197.734,52.234-197.734
	l11.588,1.277l2.494,3.974C302.428,177.344,255.426,278.071,273.209,377.602z"/>
<path style="fill:#6B4B3D;" d="M254.138,61.611c5.205-19.263,3.176-54.007-50.557-54.007S97.125,11.932,85.973,91.014
	s40.726,153.093,40.726,153.093"/>
<path style="fill:#5B3D2D;" d="M126.699,244.107l15.502-22.204c-3.954-44.529-15.644-208.623,26.411-212.911
	c-39.997,4.157-73.951,20.379-82.64,82.022C74.82,170.095,126.699,244.107,126.699,244.107z"/>
<path style="fill:#FCD2BE;" d="M119.512,119.27c2.271,2.271,4.927,3.893,7.756,4.887c3.569,26.056,22.883,47.084,48.037,53.187
	c4.836,1.186,9.895,1.805,15.096,1.805c35.201,0,63.742-28.54,63.742-63.731V61.611c0,0-28.256,1.014-39.409-10.139
	c-16.191,21.017-37.229,23.947-51.18,23.035c0-0.01,0-0.01,0-0.01c-8.932-0.588-14.965-2.748-14.965-2.748v18.462l-0.01-0.01
	c-5.921-5.921-14.569-7.472-21.91-4.654c-2.606,0.994-5.049,2.555-7.158,4.664C111.481,98.232,111.481,111.25,119.512,119.27z"/>
<path style="fill:#FAB998;" d="M119.512,119.27c2.271,2.271,4.927,3.893,7.756,4.887c3.569,26.056,22.883,47.084,48.037,53.187
	c-33.103-18.158-12.035-101.711-11.751-102.836c0-0.01,0-0.01,0-0.01c-8.932-0.588-14.965-2.748-14.965-2.748v18.462l-0.01-0.01
	c-5.921-5.921-14.569-7.472-21.91-4.654c-2.606,0.994-5.049,2.555-7.158,4.664C111.481,98.232,111.481,111.25,119.512,119.27z"/>
<path style="fill:#369AB2;" d="M253.966,371.854c-44.204,10.118-81.981,9.044-107.885,5.749c-23.39-2.981-37.097-7.776-37.097-7.776
	c0-134.844,52.234-197.734,52.234-197.734l11.588,1.277l33.67,3.731C213.218,253.678,253.966,371.854,253.966,371.854z"/>
<path style="fill:#025970;" d="M146.08,377.602c-23.39-2.981-37.097-7.776-37.097-7.776c0-134.844,52.234-197.734,52.234-197.734
	l11.588,1.277l2.494,3.974C175.3,177.344,128.297,278.071,146.08,377.602z"/>
<polygon style="fill:#00C7A9;" points="498.739,291.345 412.758,291.345 407.689,419.505 503.808,419.505 "/>
<polygon style="fill:#F9CE55;" points="89.695,369.725 12.73,369.725 8.192,469.185 94.233,469.185 "/>
<path d="M334.472,100.524V89.981c0-4.199-3.404-7.604-7.604-7.604s-7.604,3.405-7.604,7.604v10.542c0,4.199,3.404,7.604,7.604,7.604
	S334.472,104.723,334.472,100.524z"/>
<path d="M361.88,100.524V89.981c0-4.199-3.404-7.604-7.604-7.604s-7.604,3.405-7.604,7.604v10.542c0,4.199,3.404,7.604,7.604,7.604
	S361.88,104.723,361.88,100.524z"/>
<path d="M310.279,129.562c-2.083-3.647-6.73-4.913-10.374-2.83c-3.647,2.083-4.914,6.728-2.83,10.375
	c6.518,11.406,17.682,17.847,32.288,18.627c0.138,0.007,0.275,0.011,0.412,0.011c4.013,0,7.37-3.144,7.586-7.198
	c0.224-4.193-2.994-7.774-7.188-7.998C320.722,140.043,314.214,136.449,310.279,129.562z"/>
<path d="M270.708,19.737c9.484-3.005,21.039-4.529,34.344-4.529c51.835,0,64.51,18.562,67.608,33.626
	c-22.94-10.305-51.573-16.712-75.793-2.345c-19.624,11.639-28.767,32.966-28.767,43.714c0,1.035,0.214,2.052,0.614,2.989
	c0.357,0.836,0.869,1.623,1.54,2.314c0.001,0,0.002,0.001,0.002,0.002c0.002,0.002,0.004,0.004,0.006,0.006
	c0.003,0.003,0.006,0.006,0.009,0.009c1.489,1.526,3.461,2.291,5.435,2.291c1.915,0,3.831-0.72,5.312-2.164
	c1.527-1.489,2.292-3.464,2.291-5.442c0-0.04,0-0.079-0.001-0.119c0.102-4.028,5.483-21.13,21.315-30.521
	c17.1-10.143,40.91-7.832,69.04,6.626v49.224c0,30.949-25.183,56.127-56.138,56.127c-4.525,0-8.995-0.533-13.304-1.591
	c-14.253-3.458-26.421-12.239-34.263-24.726c-2.234-3.557-6.928-4.627-10.484-2.395c-3.557,2.234-4.628,6.928-2.395,10.483
	c9.962,15.861,25.431,27.018,43.537,31.411c5.475,1.342,11.164,2.024,16.908,2.024c39.34,0,71.346-32.001,71.346-71.335V61.61
	c0-0.01-0.001-0.02-0.001-0.03c-0.005-17.635-4.865-31.076-14.854-41.089C360.258,6.704,337.7,0,305.051,0
	c-14.865,0-27.965,1.763-38.937,5.24c-4.003,1.268-6.22,5.543-4.952,9.546C262.429,18.788,266.7,21.006,270.708,19.737z"/>
<path d="M270.275,185.881c-9.835,17.344-23.445,46.965-32.421,89.578c-0.866,4.109,1.764,8.142,5.873,9.008
	c0.528,0.112,1.055,0.165,1.576,0.165c3.519,0,6.678-2.458,7.433-6.039c8.573-40.702,21.465-68.804,30.77-85.21
	c2.071-3.653,0.789-8.293-2.863-10.366C276.985,180.946,272.346,182.227,270.275,185.881z"/>
<path d="M369.733,310.013c-1.166-4.034-5.386-6.359-9.417-5.193c-4.034,1.166-6.359,5.383-5.193,9.417
	c6.611,22.868,12.697,41.787,16.059,51.971c-40.548,8.144-74.843,6.676-97.012,3.853c-4.156-0.529-7.972,2.416-8.503,6.582
	c-0.53,4.166,2.416,7.973,6.582,8.504c2.176,0.277,4.467,0.54,6.859,0.786c4.481,29.081,3.967,70.987-19.851,114.835
	c-1.279,2.356-1.224,5.212,0.147,7.517c1.372,2.305,3.855,3.717,6.535,3.717h26.36c4.2,0,7.604-3.405,7.604-7.604
	s-3.404-7.604-7.604-7.604h-14.016c19.409-41.674,20.28-80.943,16.358-109.68c4.923,0.246,10.142,0.389,15.633,0.389
	c5.88,0,12.081-0.171,18.547-0.545c4.307,29.042,3.534,70.485-20.005,113.81c-1.28,2.356-1.225,5.212,0.146,7.517
	c1.372,2.305,3.855,3.717,6.535,3.717h26.35c4.2,0,7.604-3.405,7.604-7.604s-3.404-7.604-7.604-7.604h-14.004
	c19.72-42.336,20.306-82.212,16.17-111.07c12.203-1.284,25.191-3.347,38.778-6.456c2.103-0.482,3.903-1.834,4.951-3.721
	c1.047-1.887,1.245-4.129,0.541-6.169C388.197,369.125,379.558,344.002,369.733,310.013z"/>
<path d="M260.614,375.545c1.047-1.887,1.245-4.129,0.541-6.17c-0.345-0.999-34.547-100.7-44.999-174.812
	c-0.587-4.159-4.429-7.054-8.592-6.467c-4.158,0.586-7.053,4.433-6.467,8.591c8.895,63.068,34.532,143.937,42.96,169.519
	c-38.632,7.756-71.466,6.732-92.749,4.363c-16.288-1.813-28.325-4.651-34.688-6.391c0.596-53.901,9.678-95.639,19.983-125.91
	c9.764-4.148,16.41-4.807,16.652-4.829c4.17-0.322,7.3-3.955,6.997-8.131c-0.303-4.188-3.943-7.337-8.133-7.034
	c-0.316,0.023-3.481,0.283-8.577,1.585c4.547-10.93,9.023-19.752,12.836-26.475c2.071-3.653,0.789-8.293-2.863-10.366
	c-3.654-2.071-8.295-0.791-10.367,2.863c-5.477,9.658-12.256,23.399-18.749,41.296c-4.65,2.358-9.662,5.328-14.867,9.085
	c-29.086,20.999-46.542,53.555-56.925,82.675c-7.636,0-14.814,2.973-20.211,8.37c-5.397,5.398-8.37,12.576-8.37,20.212v14.6h-11.29
	c-4.065,0-7.411,3.197-7.596,7.257l-4.539,99.46c-0.095,2.074,0.663,4.098,2.098,5.6c1.435,1.502,3.421,2.351,5.498,2.351h53.227
	c4.2,0,7.604-3.405,7.604-7.604c0-4.199-3.404-7.604-7.604-7.604H16.151l3.846-84.252h11.611c0.006,0,0.013,0.001,0.019,0.001
	c0.006,0,0.013-0.001,0.019-0.001h41.92c0.006,0,0.013,0.001,0.019,0.001s0.013-0.001,0.019-0.001h8.826l3.845,84.252H85.75
	c-4.2,0-7.604,3.405-7.604,7.604c0,4.199,3.404,7.604,7.604,7.604h8.482c2.077,0,4.064-0.85,5.498-2.351s2.193-3.525,2.098-5.6
	l-4.538-99.46c-0.186-4.061-3.531-7.257-7.596-7.257h-8.507v-14.6c0-10.396-5.581-19.511-13.902-24.513
	c11.765-32.609,28.783-57.76,49.889-73.486c-8.857,30.934-15.796,70.905-15.796,120.304c0,3.231,2.043,6.11,5.092,7.177
	c1.315,0.46,18.046,6.166,45.518,8.999c4.468,29.08,3.937,70.953-19.862,114.764c-1.279,2.356-1.224,5.212,0.147,7.517
	c1.372,2.305,3.855,3.717,6.535,3.717h26.36c4.2,0,7.604-3.405,7.604-7.604c0-4.199-3.404-7.604-7.604-7.604h-14.016
	c19.389-41.634,20.277-80.875,16.367-109.607c4.921,0.247,10.082,0.391,15.481,0.391c5.957,0,12.205-0.178,18.697-0.562
	c4.298,29.039,3.51,70.454-20.013,113.751c-1.281,2.356-1.225,5.212,0.146,7.517c1.372,2.305,3.855,3.717,6.535,3.717h26.35
	c4.2,0,7.604-3.405,7.604-7.604c0-4.199-3.404-7.604-7.604-7.604h-14.006c19.712-42.317,20.305-82.177,16.176-111.031
	c12.224-1.304,25.195-3.386,38.774-6.495C257.766,378.784,259.565,377.432,260.614,375.545z M65.981,347.521v14.6H39.23v-14.6
	c0-3.574,1.391-6.934,3.917-9.459c1.234-1.234,2.668-2.192,4.229-2.854c-0.592,2.058-1.151,4.083-1.674,6.063
	c-1.073,4.061,1.349,8.221,5.41,9.294c0.651,0.171,1.304,0.253,1.947,0.253c3.368,0,6.446-2.255,7.346-5.664
	c0.608-2.303,1.245-4.572,1.899-6.816C64.577,340.736,65.981,343.964,65.981,347.521z"/>
<path d="M207.345,100.524V89.981c0-4.199-3.404-7.604-7.604-7.604s-7.604,3.405-7.604,7.604v10.542c0,4.199,3.404,7.604,7.604,7.604
	S207.345,104.723,207.345,100.524z"/>
<path d="M219.545,89.981v10.542c0,4.199,3.404,7.604,7.604,7.604s7.604-3.405,7.604-7.604V89.981c0-4.199-3.404-7.604-7.604-7.604
	S219.545,85.782,219.545,89.981z"/>
<path d="M183.15,129.562c-2.085-3.647-6.73-4.913-10.374-2.83c-3.647,2.083-4.914,6.728-2.83,10.375
	c6.518,11.406,17.682,17.847,32.286,18.627c0.138,0.007,0.275,0.011,0.412,0.011c4.013,0,7.37-3.143,7.586-7.198
	c0.224-4.193-2.994-7.774-7.188-7.998C193.593,140.043,187.086,136.449,183.15,129.562z"/>
<path d="M113.83,229.908c1.192,0,2.401-0.281,3.528-0.873c3.718-1.952,5.149-6.549,3.198-10.267
	C107.332,193.578,86.232,143.624,93.5,92.075c10.043-71.207,53.852-76.867,110.08-76.867c19.091,0,32.271,4.572,39.175,13.588
	c6.191,8.086,6.138,18.424,5.191,25.146c-8.72-0.413-22.216-2.225-27.836-7.845c-1.547-1.547-3.686-2.355-5.868-2.211
	c-2.183,0.141-4.199,1.216-5.534,2.949c-22.723,29.511-56.173,18.242-57.558,17.758c-2.331-0.835-4.919-0.484-6.943,0.94
	c-2.023,1.424-3.227,3.744-3.227,6.218v5.701c-5.538-1.408-11.484-1.135-17.026,0.993c-3.682,1.404-6.988,3.555-9.821,6.388
	c-5.322,5.316-8.253,12.386-8.253,19.909s2.931,14.594,8.25,19.906c1.895,1.895,4.006,3.486,6.307,4.757
	c6.569,32.979,35.918,57.348,69.959,57.348c39.34,0,71.346-32.001,71.346-71.335V84.646c0-4.199-3.404-7.604-7.604-7.604
	c-4.2,0-7.604,3.405-7.604,7.604v30.771c0,30.949-25.183,56.127-56.138,56.127c-27.914,0-51.816-20.817-55.599-48.42
	c-0.387-2.826-2.323-5.196-5.013-6.142c-1.852-0.651-3.501-1.69-4.904-3.093c-2.444-2.442-3.791-5.691-3.791-9.148
	c0-3.457,1.346-6.707,3.794-9.151c1.313-1.312,2.824-2.3,4.507-2.942c4.774-1.834,10.193-0.682,13.751,2.875
	c2.159,2.213,5.445,2.9,8.309,1.733c2.864-1.166,4.738-3.95,4.738-7.043V81.43c16.359,2.589,40.848,0.304,59.761-19.683
	c14.342,8.042,35.703,7.561,38.461,7.463c3.333-0.12,6.199-2.397,7.069-5.616c2.124-7.858,5.726-27.882-6.649-44.044
	C244.898,6.578,227.655,0,203.581,0c-26.931,0-55.156,0.996-78.254,12.893c-26.133,13.461-41.47,38.668-46.884,77.059
	c-7.865,55.772,14.574,109.075,28.65,135.885C108.453,228.426,111.095,229.908,113.83,229.908z"/>
<path d="M506.337,291.045c-0.161-4.08-3.516-7.304-7.598-7.304h-13.014v-14.6c0-15.761-12.822-28.583-28.583-28.583
	c-1.098,0-2.185,0.069-3.26,0.19c-6.873-4.579-20.776-10.807-38.217-2.551c-0.241,0.115-0.477,0.241-0.704,0.38
	c-7.467,4.551-14.915,8.493-22.136,11.716c-8.834,3.943-18.797,3.569-27.338-1.024c-6.81-3.663-12.518-9.56-15.389-16.637
	c-2.904-13.789-5.184-26.509-6.814-38.07c-0.586-4.158-4.432-7.053-8.592-6.467c-4.159,0.587-7.053,4.434-6.467,8.591
	c3.741,26.526,10.763,58.844,20.869,96.057c0.92,3.385,3.987,5.613,7.333,5.613c0.66,0,1.331-0.086,1.998-0.268
	c4.052-1.101,6.445-5.278,5.345-9.331c-2.529-9.31-4.857-18.298-6.989-26.959c0.498,0.291,0.991,0.589,1.502,0.864
	c6.879,3.7,14.38,5.561,21.9,5.561c6.388,0,12.792-1.343,18.84-4.043c7.692-3.433,15.592-7.603,23.488-12.396
	c5.172-2.368,9.806-2.666,13.656-2.056c-4.911,5.297-7.609,12.146-7.609,19.413v14.6h-15.8c-4.082,0-7.437,3.224-7.598,7.304
	l-5.069,128.159c-0.082,2.067,0.682,4.079,2.116,5.57c1.434,1.491,3.413,2.334,5.482,2.334h96.119c2.069,0,4.048-0.844,5.482-2.334
	c1.434-1.491,2.198-3.503,2.116-5.57L506.337,291.045z M443.766,269.141c0-3.574,1.391-6.934,3.917-9.459
	c1.047-1.047,2.245-1.888,3.535-2.527c2.251,0.598,4.72,0.148,6.638-1.354c7.042,0.375,12.661,6.205,12.661,13.339v14.6h-26.751
	V269.141z M415.6,411.901l4.467-112.952h16.08c0.005,0,0.01,0.001,0.015,0.001s0.01-0.001,0.015-0.001h41.929
	c0.005,0,0.01,0.001,0.015,0.001c0.005,0,0.01-0.001,0.015-0.001h13.294l4.467,112.951L415.6,411.901L415.6,411.901z"/>
<g>
</g>
<g>
</g>
<g>
</g>
<g>
</g>
<g>
</g>
<g>
</g>
<g>
</g>
<g>
</g>
<g>
</g>
<g>
</g>
<g>
</g>
<g>
</g>
<g>
</g>
<g>
</g>
<g>
</g>
</svg>
