<svg viewBox="0 -49 512.00067 512" xmlns="http://www.w3.org/2000/svg"><path d="m159.78125 353.082031c0 29.164063-23.644531 52.808594-52.808594 52.808594-29.164062 0-52.804687-23.644531-52.804687-52.808594 0-29.164062 23.640625-52.804687 52.804687-52.804687 29.164063 0 52.808594 23.640625 52.808594 52.804687zm0 0" fill="#939eb2"/><path d="m399.140625 354.382812c0 29.285157-23.738281 53.023438-53.023437 53.023438-29.28125 0-53.023438-23.738281-53.023438-53.023438 0-29.285156 23.742188-53.023437 53.023438-53.023437 29.285156 0 53.023437 23.738281 53.023437 53.023437zm0 0" fill="#939eb2"/><path d="m368.84375 353.300781c0 11.355469-9.207031 20.558594-20.5625 20.558594s-20.558594-9.203125-20.558594-20.558594 9.203125-20.558593 20.558594-20.558593 20.5625 9.203124 20.5625 20.558593zm0 0" fill="#d8deec"/><path d="m128.617188 353.300781c0 11.355469-9.207032 20.558594-20.558594 20.558594-11.355469 0-20.5625-9.203125-20.5625-20.558594s9.207031-20.558593 20.5625-20.558593c11.351562 0 20.558594 9.203124 20.558594 20.558593zm0 0" fill="#d8deec"/><path d="m54.332031 337.351562-38.363281 1.074219 3.753906 24.949219 32.734375-1.609375zm0 0" fill="#5b5d6d"/><path d="m161.015625 340.332031 132.78125-1.0625-4.601563 22.660157-128.886718-1.414063zm0 0" fill="#5b5d6d"/><path d="m400.023438 338.207031c1.0625 0 103.746093 1.0625 103.746093 1.0625l-2.125 23.371094-97.726562.707031zm0 0" fill="#5b5d6d"/><path d="m25.046875 247.5625 249.984375-4.605469 14.515625-14.515625 5.3125-89.9375 3.1875-41.78125 94.539063-3.1875 52.40625 111.535156 40.71875 37.886719 2.835937 93.480469s-87.8125.707031-88.523437 1.769531c-.707032 1.0625-12.746094-36.828125-33.636719-37.535156s-54.175781-1.414063-63.734375 20.539063c-9.558594 21.953124-23.015625 18.765624-23.015625 18.765624l-118.617188.351563s-15.582031-36.46875-41.074219-37.175781c-25.496093-.710938-42.492187-3.542969-52.40625 13.097656-9.914062 16.644531-14.515624 19.476562-23.722656 19.832031-9.207031.351563-18.769531-2.835937-18.769531-2.835937zm0 0" fill="#bce0f9"/><path d="m15.488281 224.191406 270.164063-3.894531v13.101563l-27.261719 9.558593-165.710937 3.1875-80.378907-.355469-7.082031-12.039062zm0 0" fill="#4bb8ff"/><path d="m486.066406 259.601562-14.519531.351563-10.976563 10.621094-2.476562 29.390625 32.574219.707031zm0 0" fill="#ff5a53"/><path d="m488.191406 332.539062-.355468-30.449218-29.742188-2.125s-.355469 34.699218-.355469 35.761718 30.453125-3.1875 30.453125-3.1875zm0 0" fill="#fff"/><path d="m26.464844 301.027344 12.746094 1.417968 5.664062 13.808594-1.058594 19.828125-18.769531-2.832031zm0 0" fill="#ff5a53"/><path d="m330.976562 116.902344c1.0625 0 46.738282-2.476563 48.15625-2.832032 1.414063-.351562 11.332032 11.683594 11.332032 11.683594s33.992187 74.714844 29.742187 84.628906c-4.25 9.914063-14.515625 4.601563-14.515625 4.601563l-92.417968 6.019531-3.894532-10.621094 3.539063-79.316406 4.605469-11.332031zm0 0" fill="#fff"/><path d="m290.964844 117.988281-25.5625-.765625 2.289062-110.261718s-116.367187 0-115.222656 1.527343c1.144531 1.523438-5.722656 14.117188-5.722656 14.117188l-88.898438 1.523437-.761718 98.054688-23.273438 4.578125-3.816406 99.582031 262.878906-4.578125zm0 0" fill="#ffd592"/><g fill="#f0f2fa"><path d="m95.84375 25.664062c.484375.324219-.648438 18.414063-.648438 18.414063l20.03125-4.683594-3.554687-13.566406zm0 0"/><path d="m137.515625 58.292969 23.746094-.644531-.324219 25.039062-22.9375.804688zm0 0"/><path d="m68.382812 126.300781c.96875 0 17.445313.484375 17.445313.484375l.160156 23.90625-17.765625 3.070313zm0 0"/><path d="m243.964844 120.808594c.484375-.160156 19.546875.320312 19.546875.320312l-.972657 22.132813-17.929687.96875zm0 0"/><path d="m202.613281 6.445312h18.414063l-.96875 20.027344-4.847656 6.300782-15.183594-.808594 1.617187-18.734375zm0 0"/></g><path d="m121.875 330.242188c-10.925781-6.234376-23.226562-2.007813-30.304688 7.117187-3.121093 2.734375-5.664062 6.285156-7.367187 10.667969-4.996094 12.832031-.039063 26.269531 13.171875 31.101562 13.253906 4.84375 27.363281-2.472656 32.828125-15.089844 4.972656-11.46875 3.398437-27.105468-8.328125-33.796874zm-7.15625 38.835937c-10.339844 6.910156-25.515625.191406-24.53125-12.882813.425781-5.660156 3.160156-10.839843 7.167969-14.75 6.179687-5.003906 15.054687-7.289062 21.582031-1.539062 8.585938 7.570312 4.304688 23.476562-4.21875 29.171875zm0 0"/><path d="m362.503906 330.242188c-10.925781-6.234376-23.226562-2.007813-30.300781 7.117187-3.121094 2.734375-5.664063 6.285156-7.367187 10.667969-4.996094 12.832031-.039063 26.269531 13.171874 31.101562 13.253907 4.84375 27.363282-2.472656 32.828126-15.089844 4.972656-11.46875 3.398437-27.105468-8.332032-33.796874zm-7.152344 38.835937c-10.339843 6.910156-25.515624.191406-24.53125-12.882813.425782-5.660156 3.160157-10.839843 7.164063-14.75 6.179687-5.003906 15.054687-7.289062 21.582031-1.539062 8.589844 7.570312 4.308594 23.476562-4.214844 29.171875zm0 0"/><path d="m507.304688 336.632812c-2.496094-1.785156-5.769532-2.464843-9.199219-2.679687 2.023437-17.101563 1.824219-34.421875.277343-51.554687-1.324218-14.695313-2.351562-31.113282-11.195312-43.535157-2.359375-3.316406-5.226562-6.234375-8.140625-9.070312-8.21875-8.011719-19.128906-14.734375-26.09375-23.789063-6.691406-8.691406-10.117187-19.339844-14.046875-29.4375-9.789062-25.113281-18.480469-50.839844-31.851562-74.359375-2.667969-4.691406-5.355469-10.761719-10.652344-12.960937-5.652344-2.34375-13.5-.816406-19.449219-.640625-14.539063.429687-29.078125.859375-43.617187 1.289062-7.5.222657-15.023438.394531-22.503907 1.058594-5.636719.5-13.078125.40625-17.296875 4.847656-3.628906 3.8125-3.800781 9.347657-4.027344 14.296875-.039062.859375-.074218 1.71875-.109374 2.582032-5.167969-.273438-10.527344.304687-15.738282.640624-2.214844-8.550781-1.4375-17.765624-1.429687-26.511718.007812-9.8125.015625-19.621094.023437-29.433594l.023438-30.484375c.007812-6.789063 2.613281-19.011719-4.167969-23.417969-3.128906-2.035156-7.386719-1.796875-10.9375-1.984375-5.214844-.28125-10.429687-.515625-15.648437-.714843-10.089844-.378907-20.183594-.601563-30.28125-.710938-9.746094-.109375-19.496094-.0742188-29.242188.101562-8.898438.164063-19.046875-.808593-27.757812 1.125-8.261719 1.832032-9.242188 9.496094-9.535157 16.714844-5.746093-.875-12.214843-.1875-17.507812-.207031-9.011719-.027344-18.019531.066406-27.03125.203125-9.011719.132812-18.023438.269531-27.035157.402344-6.097656.089844-15.5625-1.542969-19.917968 3.964844-4 5.066406-2.613282 14.40625-2.683594 20.421874-.101562 8.757813-.195312 17.519532-.292969 26.277344-.183593 16.652344-.527343 33.304688.097657 49.953125-.445313-.019531-.894532-.03125-1.339844-.046875-7.175782-.292968-18.453125-1.644531-20.539063 7.503906-2.0625 9.027344-1.234375 19.53125-1.203125 28.746094.039063 11.40625.480469 22.792969.8125 34.191406.3125 10.582032-.507812 21.414063.363282 31.96875-1.628907.046876-3.257813.082032-4.882813.136719-8.308594.277344-19.773437.054688-22.890625 9.820313-2.515625 7.871094 2.515625 16.1875 9.6875 19.414062 3.007812 1.351563 6.265625 2.054688 9.632812 2.371094-1.3125 4.835938-.699218 11.078125-.792968 15.375-.171875 7.910156-.195313 15.839844-.085938 23.75.113282 7.914062.296875 15.828125.558594 23.738281.160156 4.890625-.792969 11.835938.839844 17.019531-.121094.027344-.242188.039063-.359375.070313-9.425781 2.160156-9.167969 14.34375-8.554688 22.027344.316407 3.972656.523438 8.710937 3.554688 11.679687 2.617187 2.566406 6.363281 3.148438 9.851562 3.394532 5.503907.386718 11.242188.285156 16.71875-.332032 2.164063-.246094 4.457031-.371094 6.515625-.941406 1.601563 9.078125 5.363282 17.703125 11.679688 24.65625 10.40625 11.460938 26.023437 17.480469 41.117187 19.222656 16.011719 1.851563 33.683594-.933594 45.304688-12.917968 8.714843-8.988282 15.277343-20.9375 18.039062-33.375 2.589844.457031 5.328125.4375 7.9375.582031 5.566407.304687 11.15625.324219 16.730469.429687 11.5.222656 23 .28125 34.503906.269532 21.671875-.019532 43.347656-.191407 65.015625-.679688 1.402344 9.742188 5.246094 19.050781 11.984375 26.472656 10.402344 11.457032 26.023438 17.476563 41.117188 19.21875 16.011718 1.851563 33.679687-.933594 45.304687-12.917968 7.878907-8.125 13.992188-18.675782 17.132813-29.8125 15.644531 1.855468 31.847656 1.644531 47.515625 1.6875 8.613281.027343 17.222656-.105469 25.828125-.390626 4.476562-.148437 8.953125-.335937 13.421875-.570312 3.753906-.191406 7.953125.039062 11.601562-1.003906 6.285157-1.800782 8.113281-8.234375 8.933594-13.988282.875-6.132812 1.660156-15.039062-4.085937-19.15625zm-21.171876-66.15625c.996094 9.660157 1.378907 19.230469 1.382813 28.789063-3.71875-.394531-7.8125.191406-11.28125.253906-4.574219.078125-9.351563-.015625-13.949219.589844.109375-3.101563.257813-6.199219.46875-9.289063.234375-3.429687.539063-6.851562.910156-10.265624.414063-3.8125.40625-8.484376 2.21875-11.957032 3.539063-6.785156 12.585938-6.554687 19.308594-5.988281.390625 2.65625.679688 5.300781.941406 7.867187zm1.3125 36.148438c-.167968 9.125-.628906 18.257812-1.191406 27.46875-.160156 0-.324218 0-.480468 0-7.464844-.101562-14.929688-.136719-22.398438-.132812-.980469-9.394532-1.355469-18.878907-1.222656-28.339844 4.636718.652344 9.464844.582031 14.082031.691406 3.433594.078125 7.507813.671875 11.210937.3125zm-221.785156-181.933594c1.628906-.027344 3.257813-.035156 4.890625-.078125 6-.160156 12.324219.066407 18.371094-.65625-.121094 3.023438-.238281 6.046875-.355469 9.070313-.652344 16.675781-1.285156 33.351562-1.546875 50.042968-.171875 11.21875-.652343 22.566407-.363281 33.851563-1.6875-.625-3.453125-.917969-5.25-1.03125-1.820312-.113281-3.667969-.046875-5.488281.039063-19.703125.925781-39.289063.964843-58.953125 1.203124-3.636719-31.277343-2.019532-62.660156-1.21875-94.039062 3.785156 1.015625 8.117187.929688 11.753906 1.128906 4.90625.265625 9.832031.367188 14.753906.433594-.171875 1.757812-.273437 3.527344-.398437 5.304688-.289063 4.019531-1.109375 8.609374-.78125 12.640624.546875 6.671876 5.761719 5.1875 10.890625 4.867188 4.652344-.292969 12.617187 2.859375 14.3125-3.464844 1.640625-6.121094-.265625-12.835937-.617188-19.3125zm-18.597656.027344c.832031.011719 1.660156.019531 2.488281.03125 2.828125.035156 5.648438.035156 8.472657.027344-.027344 1.597656.050781 3.214844.21875 4.894531.320312 3.246094 1.382812 7.324219 1.050781 10.832031-.921875-.117187-1.859375-.300781-2.28125-.320312-2.019531-.085938-4.042969-.011719-6.054688.183594-.691406.066406-2.292969.046874-3.292969.292968-.011718-.324218-.019531-.648437-.035156-.972656-.175781-4.898438-.066406-10.007812-.566406-14.96875zm-42.375-106.558594c.074219-2.414062.195312-4.839844.101562-7.246094 3.898438.011719 7.796876.039063 11.695313.097657.21875 1.667969.425781 3.339843.585937 5.019531.242188 2.585938 1.328126 7.511719.554688 10.011719-.117188.371093-.160156.617187-.167969.785156-.152343.058594-.359375.167969-.636719.339844-1.191406.738281-3.6875.574219-5.148437.773437-2.53125.347656-5.246094.898438-7.878906 1.03125-.246094-3.15625.828125-8.726562.894531-10.8125zm-48.449219 5.0625c.144531-2.71875.3125-5.4375.445313-8.15625.128906-2.699218-.238282-2.84375 2.347656-3.171875 5.464844-.691406 11.203125-.472656 16.703125-.621093 8.011719-.21875 16.027344-.339844 24.042969-.363282-1.675782 6.074219-2.28125 12.9375-2.792969 18.777344-.675781 7.691406 5.738281 7.015625 11.585937 6.371094 5.488282-.601563 15.296876.136718 16.773438-6.769532 1.160156-5.445312.371094-12.128906-.648438-18.121093 5.261719.125 10.523438.292969 15.785157.507812 5.566406.230469 11.132812.503907 16.691406.824219 1.324219.078125 2.648437.15625 3.96875.238281.011719.363281.03125.867188.074219 1.539063-.121094 2.792968-.027344 5.613281-.042969 8.410156-.054687 10.511719-.109375 21.023438-.160156 31.535156-.058594 11.210938-.113281 22.425782-.171875 33.636719-.042969 8.601563-.683594 17.453125.871094 25.960937-4.402344.167969-8.804688.339844-13.207032.503907-7 .257812-14.007812.324219-21.003906.597656-3.636719.144531-7.835938-.039063-11.582031.832031.308593-15.097656.320312-30.195312-.644531-45.273437-.28125-4.414063-.066407-9.734375-2.332032-13.71875-2.582031-4.539063-7.214844-5.46875-12.003906-6.15625-11.246094-1.613281-22.765625-1.132813-34.089844-1.140625-3.910156-.003906-7.816406.011718-11.726562.039062 1.449218-8.53125.667968-17.824218 1.117187-26.28125zm-31.605469 107.324219c-.539062-3.683594-.941406-8.34375-3.863281-11.039063-3.132812-2.886718-8.449219-2.425781-12.375-2.351562-4.011719.074219-8.011719.355469-12.015625.683594 1.226563-7.175782.585938-15.039063.78125-22.007813.148438-5.1875.339844-10.378906.574219-15.566406.125-2.769531.265625-5.535156.414063-8.300781.085937-1.640625-.582032-6.164063.589843-7.476563 1.078125-1.210937 5.777344-.921875 7.253907-1.09375 2.734374-.324219 5.472656-.609375 8.214843-.863281 5.480469-.503906 10.976563-.875 16.472657-1.152344 1.28125-.0625 2.5625-.105468 3.839843-.160156-.804687 6.800781-.617187 14.230469-.1875 20.585938.539063 7.894531 8.96875 5.65625 14.601563 5.34375 4.738281-.261719 15.390625 1.507812 16.527344-5.050782.664062-3.847656-.523438-8.722656-.832032-12.578125-.234375-2.957031-.441406-5.917969-.691406-8.875 9.902344-.042969 19.90625-.261719 29.78125.445313 2.363281.171875 4.726562.40625 7.058594.832031 2.671875.488281 2.570312.765625 2.824218 3.433594.515626 5.441406.699219 10.9375.875 16.398437.671876 21.246094-.277343 42.496094-.921874 63.730469-.722657 23.960937-.980469 47.964844 1.75 71.816406-.28125.003907-.5625.007813-.84375.011719-23.023438.429688-46.039063 1.378906-69.0625 1.886719-3.1875.074219-6.375.136719-9.5625.207031-.011719-.097656-.023438-.191406-.039063-.285156-.476563-19.875-.890625-39.6875-.292969-59.574219.292969-9.699219.550782-19.363281-.871094-29zm31.304688-69.851563c.25 2.945313.542969 5.886719.804688 8.828126.285156 3.152343.960937 6.578124 1.042968 9.839843-2.714844.429688-7.097656-.003906-8.851562.105469-2.484375.152344-5.074219.523438-7.605469.605469-.097656-1.890625.296875-5.585938.28125-6.445313-.039063-2.042968-.050781-4.085937-.125-6.128906-.078125-2.167969-.132813-4.355469-.304687-6.523438 4.917968-.144531 9.835937-.234374 14.757812-.28125zm-49.53125-32.113281c.933594-.019531 1.867188-.054687 2.804688-.082031-.0625 2.925781.621093 5.972656 1.433593 8.65625.167969.511719.339844 1.019531.511719 1.527344-1.636719.332031-4.242188.800781-4.554688.847656-2.867187.425781-5.8125.691406-8.726562.695312-.867188-1.992187-.566406-5.9375-.703125-7.644531-.101563-1.265625-.257813-2.523437-.417969-3.785156 3.21875-.070313 6.433594-.144531 9.652344-.214844zm-45.347656 46.546875c.105468-7.746094.210937-15.496094.316406-23.242187.046875-3.675781.089844-7.351563.148438-11.023438.03125-1.929687.0625-3.855469.132812-5.785156.03125-.828125-.164062-4.234375.1875-5.453125.988281-.070312 1.980469-.113281 2.972656-.109375 1.730469-.054687 3.464844-.078125 5.199219-.117187l11.4375-.257813c4.117187-.09375 8.238281-.183594 12.355469-.277344-.3125 1.746094-.621094 3.496094-.851563 5.261719-.371093 2.882812-1.257812 6.570312-.222656 9.402344 1.789063 4.898437 9.335937 3.195312 13.273437 2.789062 4.042969-.417968 11.792969-.226562 12.65625-5.496094.441407-2.707031-1-5.683593-1.527343-8.300781-.292969-1.457031-.328125-2.851562-.242188-4.238281 4.128907-.132812 8.257813-.285156 12.386719-.453125 4.542969-.1875 10.0625.101563 15.054688-.714844-.351563 7.378907-.636719 15.378907.992187 22.523438-5.226563.101562-10.453125.25-15.675781.507812-5.84375.285157-11.679688.683594-17.5 1.242188-5.519532.523437-11.765625.582031-17.058594 2.339843-5.25 1.738282-7.496094 5.902344-7.976562 11.179688-.621094 6.804688-.621094 13.71875-.785157 20.546875-.167969 6.914063-.355469 13.847656-.269531 20.761719.050781 4.160156-.003906 8.378906.691406 12.441406-2.742187.21875-5.492187.410156-8.242187.523438-5.648438.226562-11.289063.238281-16.929688.148437-.753906-14.730469-.722656-29.449219-.523437-44.199219zm11.1875 65.246094c-.167969-3.492188-.257813-7.058594-.699219-10.554688 3.714844-.019531 7.433594-.085937 11.152344-.203124.027343 3.097656.535156 6.285156.710937 9.234374.085938 1.421876 1.289063 7.164063.5 8.234376-.824218 1.117187-4.179687 1.171874-5.972656 1.441406-1.207031.183594-3.527344 1.015625-4.628906.441406-.839844-.441406-1.113282-1.660156-1.230469-2.5-.28125-2.035156.265625-4.0625.167969-6.09375zm-34.839844 59.390625c.335938-8.617187.457031-17.269531.339844-25.894531-.113282-8.632813-.25-17.265625-.074219-25.898438.089844-4.480468.257813-8.964844.550781-13.441406.101563-1.585938-.113281-4.503906.921875-5.085938 1.128907-.632812 4.773438-.011718 6.125.019532 7.21875.167968 14.375.320312 21.523438.347656-.933594 6.746094-1.03125 14.234375-.574219 20.703125.480469 6.765625 6.5 5.707031 11.558594 5.011719 6.390625-.878906 13.121094-.507813 13.253906-8.445313.070312-4.09375-.390625-8.253906-.582031-12.347656-.089844-1.851563-.105469-3.660156-.25-5.4375 2.28125-.125 4.5625-.273437 6.851562-.453125 4.117188-.328125 8.238281-.628906 12.371094-.613281 1.019531.003906 2.082031.125 3.09375.0625.15625.007812.308594.015625.464844.027343.046875.613282.152343 1.246094.152343 1.203126-.03125 1.445312.515626 3.09375.675782 4.535156.957031 8.792968.488281 17.691406.21875 26.507812-.597656 19.652344-.792969 39.445313.289062 59.089844-17.945312.386719-35.890625.757812-53.835937 1.097656-8.417969.160156-16.835938.273438-25.25.457032 1.667969-6.976563 1.898437-14.28125 2.175781-21.445313zm-23.792969 40.695313c-2.933593-2.140626-4.039062-6.113282.117188-7.214844 4.003906-1.058594 8.886719-.417969 12.984375-.507813 5.628906-.121093 11.253906-.332031 16.882812-.507812 10.902344-.339844 21.804688-.679688 32.710938-1.019531 21.453125-.671876 42.910156-1.265626 64.367187-1.863282 37.839844-1.058594 76.027344-1.019531 113.820313-4.203125 3.316406.054688 6.632812.113281 9.957031.160157 4.59375.0625 9.347656-.230469 13.921875.230468 5.394531.542969 6.214844 4.855469 2.554688 8.585938-3.28125 3.34375-8.539063 4.050781-12.96875 4.480468-5.449219.53125-10.941407.808594-16.410157 1.140626-42.730469 2.574218-85.542969 2.511718-128.332031 2.363281-21.410156-.074219-42.816406-.164063-64.222656.050781-10.808594.105469-21.613282.34375-32.421875.457031-4.105469.042969-9.4375.417969-12.960938-2.152343zm34.265625 109.359374c-.445312 3.332032-.625 6.710938-.542968 10.082032-4.03125-.492188-8.734376.421875-12.300782.433594-3.417968.015624-7.359375.300781-10.710937-.4375-.628907-.140626-1.625-.410157-1.777344-.625-.566406-.785157-.480469-5.171876-.550781-6.179688-.136719-1.972656-1.238282-8.449219.1875-10.019531 2.027344-2.242188 9.164062-.914063 11.742187-.773438 5.226563.285157 10.316407.566407 15.425781.039063-.632812 2.460937-1.132812 4.960937-1.472656 7.480468zm-17.695312-23.511718c-.21875-3.78125-.417969-7.566406-.601563-11.347656-.167969-3.410157-.308593-6.816407-.445312-10.226563 1.550781.285156 3.125.496094 4.695312.832031 5.859375 1.238282 5.960938 7.253906 6.191407 12.214844.199218 4.335938-.234376 8.542969-.867188 12.824219-.121094.828125-.207031 1.582031-.226562 2.292969-2.839844-.1875-5.6875-.453126-8.515626-.5625.203126-1.898438-.105468-3.890626-.230468-6.027344zm115.929687 56.480468c-7.574219 12.304688-17.542969 18.867188-32.101562 19.941407-13.382813.992187-27.234375-2.050781-38.597657-9.304688-11.503906-7.34375-17.769531-19.222656-18.484374-32.773437-1.074219-20.25 9.65625-38.308594 25.835937-48.492188 5.980469-3.019531 12.53125-4.902344 19.238281-5.421875 24.980469-1.941406 47.566406 14.6875 52.28125 39.445313 2.449219 12.855468-1.4375 25.664062-8.171875 36.605468zm142.398438-32.96875c-.328125 2.433594-.5 4.894532-.550781 7.355469-21.472657.511719-42.945313.984375-64.425782 1.203125-11.152344.113282-22.304687.183594-33.460937.308594-5.574219.0625-11.15625.007812-16.726563.183594-2.53125.082031-5.226562 0-7.824218.300781.058593-.59375.125-1.1875.164062-1.78125.234375-3.65625.097656-7.25-.359375-10.765625 20.179687.796875 40.582031-.570312 60.746094-.847656 21.0625-.289063 42.128906-.402344 63.195312-.359375-.300781 1.457031-.558593 2.925781-.757812 4.402343zm98.234375 32.96875c-7.574219 12.304688-17.542969 18.867188-32.101563 19.941407-13.382812.992187-27.238281-2.050781-38.597656-9.304688-11.507813-7.34375-17.769531-19.222656-18.488281-32.773437-1.070313-20.25 9.660156-38.308594 25.839844-48.492188 5.980468-3.019531 12.53125-4.902344 19.238281-5.421875 24.980469-1.941406 47.5625 14.6875 52.28125 39.445313 2.449219 12.855468-1.4375 25.664062-8.171875 36.605468zm16.738281-46.832031c-7.039063-20.816406-25.953125-36.753906-48.589844-39.4375-16.457031-1.953125-32.894531 2.949219-45.234375 14.070313-1.683594 1.519531-3.355468 3.199218-4.964844 5.015625-5.703124 5.925781-10.027343 13.070312-12.851562 20.789062-21.925781.078125-43.851562.324219-65.769531.757813-20.617188.40625-41.636719.027344-62.183594 2.257812-6.027344-22.488281-25.753906-40.0625-49.628906-42.894531-16.457031-1.953125-32.894531 2.949219-45.234375 14.074219-1.683594 1.515625-3.355469 3.199218-4.964844 5.015625-4.648438 4.828125-8.375 10.472656-11.128906 16.570312-.269532.019531-.539063.054688-.824219.117188-1.894531.4375-3.804687.65625-5.71875.75-.179687-1.769531.277344-3.597657.40625-5.382813.210937-2.960937.179687-5.9375-.070313-8.894531-.355468-4.273437-.757812-9.269531-2.734374-13.140625-2.496094-4.878906-9.332032-6.5625-15.042969-5.832031-.101563-2.859375-.207031-5.71875-.296875-8.578125-.242188-7.570313-.46875-15.144532-.675782-22.71875-.117187-4.230469.496094-10.355469-.703124-15.175782 5.085937-.128906 10.195312-.660156 14.882812-.742187 24.5625-.425781 49.128906-.285156 73.691406-.148437 49.753906.273437 99.6875.929687 149.355469-2.617188 10.546875-.753906 22.335937-2.742188 27.503906-13.246094 1.394531-2.839844 1.902344-6.28125 1.449219-9.519531 1.257812-10.433594 1.609375-20.976563 2.128906-31.46875.691406-13.902344 1.394532-27.800781 1.996094-41.707031.597656-13.898438 1.25-27.796875 1.957031-41.691406.113281-2.183594-.324219-5.984376.808594-7.917969 1.304687-2.226563 5.320313-2.097657 7.757813-2.410157 7.445312-.960937 14.960937-1.136718 22.457031-1.335937 13.5-.363281 27-.710937 40.5-1.066406 3.113281-.082031 6.230469-.164063 9.347656-.246094 3.003906-.082031 6.757813-.800781 9.742187-.238281 4.359376.820312 7.597657 10.015625 9.539063 13.695312 11.863281 22.515625 19.867187 46.777344 29.203125 70.382813 4.753906 12.035156 9.25 24.808593 18.441406 34.265625 8.039063 8.261718 19.015625 12.707031 26.8125 21.007812 4.726563 5.035156 8.765625 12.488282 9.402344 19.445313-2.777344.867187-6.839844-.292969-9.933594.050781-3.316406.367188-6.527344 1.363281-9.265625 3.3125-6.09375 4.335938-6.675781 11.738281-7.632812 18.578125-2.53125 18.054687-2.949219 36.085937-2.035157 54.253906-17.214843.035157-34.792968-.160156-51.898437 2zm97.882813 16.394531c-.132813 1.6875-.109376 4.792969-1.121094 6.253907-1.167969 1.6875-1.960938 1.351562-4.230469 1.507812-4.460937.304688-8.949219.421875-13.417969.574219-8.949218.296875-17.90625.429688-26.859375.394531-16.542969-.0625-33.066406-1.675781-49.570312-2.027343.050781-.554688.113281-1.109376.148437-1.664063.320313-4.878906-.019531-9.65625-.921875-14.261719 16.132813.984375 32.492188.253906 48.617188.40625 9.175781.082032 18.351562.25 27.527343.492188 4.941407.128906 9.878907.265625 14.820313.457031 1.878906.074219 3.78125-.371094 4.96875 1.425781.800781 1.21875.152344 5.007813.039063 6.441406zm0 0"/><path d="m405.492188 146.132812c-3.695313-8.101562-7.367188-16.316406-11.738282-24.082031-3.671875-6.523437-7.363281-12.59375-15.601562-12.355469-7.996094.226563-16.050782 1.054688-24.050782 1.769532-6.734374.171875-13.425781.699218-19.839843 1.472656-6.136719.734375-13.84375 1.222656-18.394531 5.949219-4.144532 4.304687-4.460938 10.78125-5.164063 16.386719-2.109375 16.816406-2.761719 33.738281-3.53125 50.65625-.398437 8.761718-.84375 17.523437-1.191406 26.289062-.207031 5.15625.347656 10.851562 5.917969 12.925781 3.105468 1.152344 6.753906.703125 9.984374.628907 4.53125-.105469 9.0625-.25 13.59375-.414063 8.714844-.316406 17.425782-.71875 26.132813-1.167969 17.578125-.910156 35.441406-1.199218 52.925781-3.296875 5.34375-.640625 11.3125-.945312 11.296875-7.648437-.019531-7.554688-2.011719-15.515625-3.863281-22.789063-3.898438-15.304687-9.941406-29.976562-16.476562-44.324219zm1.90625 67.71875c-4.460938.386719-8.933594.65625-13.402344.957032-8.703125.585937-17.410156 1.132812-26.117188 1.636718-8.707031.503907-17.414062.96875-26.128906 1.355469-4.179688.1875-8.363281.355469-12.546875.503907-3.710937.128906-9.632813 1.476562-13.160156.371093-4.636719-1.453125-2.941407-8.15625-2.8125-11.714843.167969-4.554688.332031-9.113282.5-13.667969.328125-8.957031.621093-17.910157 1.003906-26.863281.292969-6.835938.574219-13.703126 1.25-20.515626.613281-6.171874.351563-13.085937 2.945313-18.839843 3.742187-8.3125 18.273437-6.050781 25.773437-6.515625 6.800781-.421875 13.59375-.949219 20.390625-1.453125 3.398438-.25 6.796875-.511719 10.195312-.753907 4.226563-.304687 6.371094.296876 8.726563 3.914063 3.617187 5.5625 6.375 11.6875 9.214844 17.667969 5.644531 11.882812 11.164062 23.839844 15.582031 36.238281 2.148438 6.027344 4.046875 12.148437 5.578125 18.359375.761719 3.101562 1.429687 6.21875 1.996094 9.363281.386719 2.160157 1.585937 6.136719 1.53125 8.871094-3.074219 1.078125-7.671875.839844-10.519531 1.085937zm0 0"/><path d="m343.863281 236.441406c-3.019531-1.484375-6.082031-1.382812-9.394531-1.449218-3.550781-.070313-7.132812-.21875-10.675781-.007813-5.128907.304687-4.902344 7.207031 0 7.808594 3.277343.402343 6.617187.480469 9.910156.632812 3.101563.144531 6.398437.632813 9.320313-.574219 2.492187-1.027343 3.847656-4.933593.839843-6.410156zm0 0"/></svg>