<svg viewBox="-88 0 512 512" xmlns="http://www.w3.org/2000/svg"><path d="m325.371094 281.53125c1.011718 14.207031-.660156 28.410156-4.847656 41.878906-.742188.609375-1.472657 1.238282-2.191407 1.898438-18.171875 16.570312-41.832031 16.570312-60 0-18.171875-16.570313-41.832031-16.570313-60 0-18.171875 16.570312-41.832031 16.570312-60 0-18.171875-16.570313-41.832031-16.570313-60 0-19.441406 17.730468-45.191406 16.480468-63.738281-3.738282-3.792969-12.921874-5.273438-26.46875-4.300781-40.039062.488281-6.902344 1.597656-13.632812 3.257812-20.121094 1.632813 1.179688 3.222657 2.480469 4.78125 3.898438 18.167969 16.570312 41.828125 16.570312 60 0 18.167969-16.570313 41.828125-16.570313 60 0 18.167969 16.570312 41.828125 16.570312 60 0 18.167969-16.570313 41.828125-16.570313 60 0 18.167969 16.570312 41.828125 16.570312 60 0 1.289063-1.179688 2.601563-2.269532 3.941407-3.269532 1.570312 6.289063 2.617187 12.8125 3.097656 19.492188zm0 0" fill="#f6d465"/><path d="m87.832031 462-62.859375-116c-4.429687-7.75-7.902344-15.949219-10.378906-24.429688 18.546875 20.21875 44.296875 21.46875 63.738281 3.738282 18.167969-16.570313 41.828125-16.570313 60 0 18.167969 16.570312 41.828125 16.570312 60 0 18.167969-16.570313 41.828125-16.570313 60 0 18.167969 16.570312 41.828125 16.570312 60 0 .71875-.660156 1.449219-1.289063 2.191407-1.898438-2.441407 7.828125-5.722657 15.398438-9.832032 22.589844l-62.859375 116h10c11.050781 0 20 8.949219 20 20s-8.949219 20-20 20h-180c-11.050781 0-20-8.949219-20-20s8.949219-20 20-20zm0 0" fill="#ff6c6c"/><path d="m322.273438 262.039062c-1.339844 1-2.652344 2.089844-3.941407 3.269532-18.171875 16.570312-41.832031 16.570312-60 0-18.171875-16.570313-41.832031-16.570313-60 0-18.171875 16.570312-41.832031 16.570312-60 0-18.171875-16.570313-41.832031-16.570313-60 0-18.171875 16.570312-41.832031 16.570312-60 0-1.558593-1.417969-3.148437-2.71875-4.78125-3.898438 11.921875-46.671875 52.519531-81.371094 101.382813-85.082031l-27.101563-126.328125h160l-27.101562 126.328125c49.082031 3.730469 89.832031 38.722656 101.542969 85.710937zm0 0" fill="#ff6c6c"/><path d="m257.832031 10c11.050781 0 20 8.949219 20 20 0 11.039062-8.960937 20-20 20-37.507812 0-139.128906 0-180 0-11.050781 0-20-8.949219-20-20 0-11.039062 8.960938-20 20-20zm0 0" fill="#f6d465"/><path d="m167.832031 452c-5.519531 0-10 4.480469-10 10s4.480469 10 10 10 10-4.480469 10-10-4.480469-10-10-10zm0 0"/><path d="m3.863281 258.933594c-.015625.058594-.03125.121094-.042969.179687-.007812.027344-.015624.050781-.019531.078125-1.792969 7.070313-2.96875 14.34375-3.484375 21.625-1.050781 14.738282.523438 29.394532 4.675782 43.5625 2.703124 9.234375 6.484374 18.144532 11.238281 26.484375l55.1875 101.835938c-13.46875 2.945312-23.585938 14.960937-23.585938 29.300781 0 16.542969 13.457031 30 30 30h180c16.542969 0 30-13.457031 30-30 0-14.339844-10.117187-26.355469-23.585937-29.300781l55.183594-101.835938c4.402343-7.71875 7.984374-15.957031 10.640624-24.484375.011719-.03125.019532-.0625.03125-.09375.003907-.019531.011719-.039062.015626-.058594 4.5625-14.738281 6.324218-30.011718 5.230468-45.414062-.515625-7.125-1.640625-14.222656-3.347656-21.089844-.011719-.046875-.023438-.09375-.035156-.144531-11.980469-48.003906-51.082032-83.726563-99.160156-91.839844l23.109374-107.738281h1.917969c16.574219 0 30-13.425781 30-30 0-16.542969-13.457031-30-30-30h-180c-16.574219 0-30 13.425781-30 30 0 16.542969 13.457031 30 30 30h1.917969l23.113281 107.742188c-47.796875 8.078124-86.832031 43.542968-99 91.191406zm311.332031 21.132812c.066407.722656.148438 1.445313.203126 2.171875.851562 12.039063-.398438 23.988281-3.671876 35.5625-.042968.039063-.089843.082031-.132812.121094-14.347656 13.085937-32.175781 13.085937-46.523438 0-21.976562-20.039063-51.503906-20.039063-73.476562 0-14.347656 13.085937-32.175781 13.085937-46.523438 0-21.972656-20.039063-51.5-20.039063-73.476562 0-14.910156 13.597656-33.546875 12.953125-48.019531-1.4375-3.003907-11.171875-4.136719-22.675781-3.308594-34.246094.066406-.914062.167969-1.828125.257813-2.742187 20.601562 12.894531 45.429687 10.636718 64.546874-6.796875 14.347657-13.085938 32.175782-13.085938 46.523438 0 10.984375 10.019531 23.859375 15.027343 36.738281 15.027343 12.875 0 25.75-5.007812 36.738281-15.027343 14.347657-13.085938 32.175782-13.085938 46.523438 0 18.820312 17.164062 43.183594 19.613281 63.601562 7.367187zm-47.363281 201.933594c0 5.515625-4.484375 10-10 10h-180c-5.515625 0-10-4.484375-10-10s4.484375-10 10-10h50c5.523438 0 10-4.476562 10-10s-4.476562-10-10-10h-34.046875l-57.277344-105.699219c3.910157.953125 7.878907 1.445313 11.847657 1.445313 12.824219 0 25.675781-4.980469 36.714843-15.046875 14.347657-13.085938 32.175782-13.085938 46.523438 0 21.972656 20.039062 51.5 20.039062 73.476562 0 14.347657-13.085938 32.175782-13.085938 46.523438 0 10.984375 10.019531 23.851562 15.027343 36.730469 15.027343 3.578125 0 7.15625-.402343 10.695312-1.175781l-57.144531 105.449219h-34.042969c-5.523437 0-10 4.476562-10 10s4.476563 10 10 10h50c5.515625 0 10 4.484375 10 10zm-200-452c0-5.523438 4.480469-10 10-10h180c5.515625 0 10 4.484375 10 10 0 5.523438-4.480469 10-10 10-13.171875 0-168.480469 0-180 0-5.515625 0-10-4.484375-10-10zm32.371094 30h135.253906l-24.503906 114.230469c-.605469 2.824219.039063 5.773437 1.769531 8.085937 1.726563 2.3125 4.371094 3.765625 7.25 3.984375 42.519532 3.230469 78.320313 31.964844 90.914063 72.238281-14.222657 12.453126-31.703125 12.253907-45.816407-.617187-21.976562-20.039063-51.503906-20.039063-73.476562 0-14.347656 13.082031-32.175781 13.082031-46.523438 0-21.976562-20.039063-51.503906-20.039063-73.476562 0-14.351562 13.085937-32.179688 13.082031-46.53125-.007813-.019531-.019531-.042969-.039062-.066406-.058593 12.792968-39.894531 48.488281-68.347657 90.691406-71.554688 2.878906-.21875 5.523438-1.671875 7.253906-3.984375 1.730469-2.3125 2.371094-5.261718 1.765625-8.082031zm0 0"/></svg>