<?xml version="1.0" encoding="iso-8859-1"?>
<!-- Generator: Adobe Illustrator 19.0.0, SVG Export Plug-In . SVG Version: 6.00 Build 0)  -->
<svg version="1.1" id="Capa_1" xmlns="http://www.w3.org/2000/svg" xmlns:xlink="http://www.w3.org/1999/xlink" x="0px" y="0px"
	 viewBox="0 0 512 512" style="enable-background:new 0 0 512 512;" xml:space="preserve">
<path style="fill:#CFD8DC;" d="M405.333,0H384c-5.891,0-10.667,4.776-10.667,10.667s-4.776,10.667-10.667,10.667
	c-5.891,0-10.667-4.776-10.667-10.667S347.224,0,341.333,0s-10.667,4.776-10.667,10.667S325.891,21.333,320,21.333
	c-5.891,0-10.667-4.776-10.667-10.667S304.558,0,298.667,0C292.776,0,288,4.776,288,10.667s-4.776,10.667-10.667,10.667
	s-10.667-4.776-10.667-10.667S261.891,0,256,0c-5.891,0-10.667,4.776-10.667,10.667s-4.776,10.667-10.667,10.667
	S224,16.558,224,10.667S219.224,0,213.333,0c-5.891,0-10.667,4.776-10.667,10.667S197.891,21.333,192,21.333
	c-5.891,0-10.667-4.776-10.667-10.667S176.558,0,170.667,0S160,4.776,160,10.667s-4.776,10.667-10.667,10.667
	c-5.891,0-10.667-4.776-10.667-10.667S133.891,0,128,0h-21.333C100.776,0,96,4.776,96,10.667v490.667
	c0,5.891,4.776,10.667,10.667,10.667H128c5.891,0,10.667-4.776,10.667-10.667s4.776-10.667,10.667-10.667
	c5.891,0,10.667,4.776,10.667,10.667S164.776,512,170.667,512s10.667-4.776,10.667-10.667s4.776-10.667,10.667-10.667
	c5.891,0,10.667,4.776,10.667,10.667S207.442,512,213.333,512c5.891,0,10.667-4.776,10.667-10.667s4.776-10.667,10.667-10.667
	s10.667,4.776,10.667,10.667S250.109,512,256,512c5.891,0,10.667-4.776,10.667-10.667s4.776-10.667,10.667-10.667
	S288,495.442,288,501.333S292.776,512,298.667,512c5.891,0,10.667-4.776,10.667-10.667s4.776-10.667,10.667-10.667
	c5.891,0,10.667,4.776,10.667,10.667S335.442,512,341.333,512S352,507.224,352,501.333s4.776-10.667,10.667-10.667
	c5.891,0,10.667,4.776,10.667,10.667S378.109,512,384,512h21.333c5.891,0,10.667-4.776,10.667-10.667V10.667
	C416,4.776,411.224,0,405.333,0z"/>
<g>
	<path style="fill:#90A4AE;" d="M234.667,85.333h-85.333c-5.891,0-10.667-4.776-10.667-10.667S143.442,64,149.333,64h85.333
		c5.891,0,10.667,4.776,10.667,10.667S240.558,85.333,234.667,85.333z"/>
	<path style="fill:#90A4AE;" d="M362.667,149.333H149.333c-5.891,0-10.667-4.776-10.667-10.667S143.442,128,149.333,128h213.333
		c5.891,0,10.667,4.776,10.667,10.667S368.558,149.333,362.667,149.333z"/>
	<path style="fill:#90A4AE;" d="M362.667,213.333H149.333c-5.891,0-10.667-4.776-10.667-10.667S143.442,192,149.333,192h213.333
		c5.891,0,10.667,4.776,10.667,10.667S368.558,213.333,362.667,213.333z"/>
	<path style="fill:#90A4AE;" d="M256,277.333H149.333c-5.891,0-10.667-4.776-10.667-10.667c0-5.891,4.776-10.667,10.667-10.667H256
		c5.891,0,10.667,4.776,10.667,10.667C266.667,272.558,261.891,277.333,256,277.333z"/>
	<path style="fill:#90A4AE;" d="M234.667,341.333h-85.333c-5.891,0-10.667-4.776-10.667-10.667c0-5.891,4.776-10.667,10.667-10.667
		h85.333c5.891,0,10.667,4.776,10.667,10.667C245.333,336.558,240.558,341.333,234.667,341.333z"/>
	<path style="fill:#90A4AE;" d="M234.667,405.333h-85.333c-5.891,0-10.667-4.776-10.667-10.667c0-5.891,4.776-10.667,10.667-10.667
		h85.333c5.891,0,10.667,4.776,10.667,10.667C245.333,400.558,240.558,405.333,234.667,405.333z"/>
</g>
<g>
	<path style="fill:#4CAF50;" d="M320,426.667c-25.365,2.505-48.469-14.703-53.333-39.723c-0.492-5.867,3.862-11.023,9.728-11.52
		c5.836-0.398,10.935,3.908,11.52,9.728c0.939,11.115,15.296,20.181,32,20.181c17.365,0,32-9.771,32-21.333
		c0-10.411-10.112-17.067-31.787-21.099l-2.261-0.448c-34.603-6.4-51.2-20.544-51.2-42.453c3.337-26.292,26.95-45.182,53.333-42.667
		c25.358-2.507,48.46,14.69,53.333,39.701c0.504,5.869-3.845,11.036-9.715,11.54c-0.004,0-0.009,0.001-0.013,0.001
		c-5.829,0.375-10.914-3.919-11.52-9.728c-0.981-11.136-15.339-20.181-32.085-20.181c-17.365,0-32,9.771-32,21.333
		c0,10.411,10.133,17.067,31.872,21.12l2.325,0.448c34.56,6.4,51.2,20.544,51.2,42.453C370.049,410.332,346.4,429.22,320,426.667z"
		/>
	<path style="fill:#4CAF50;" d="M320,448c-5.891,0-10.667-4.776-10.667-10.667V266.667c0-5.891,4.776-10.667,10.667-10.667
		c5.891,0,10.667,4.776,10.667,10.667v170.667C330.667,443.224,325.891,448,320,448z"/>
</g>
<g>
</g>
<g>
</g>
<g>
</g>
<g>
</g>
<g>
</g>
<g>
</g>
<g>
</g>
<g>
</g>
<g>
</g>
<g>
</g>
<g>
</g>
<g>
</g>
<g>
</g>
<g>
</g>
<g>
</g>
</svg>
