<svg viewBox="0 0 512 512" xmlns="http://www.w3.org/2000/svg"><path d="m156 110c0 12.460938 0 372.121094 0 372 0 11.046875 8.953125 20 20 20h306c11.046875 0 20-8.953125 20-20 0-10.402344 0-351.710938 0-372-16.644531 0-329.304688 0-346 0zm0 0" fill="#ffe781"/><path d="m10 236v246c0 11.050781 8.949219 20 20 20h212c11.050781 0 20-8.949219 20-20 0-4.144531 0-235.984375 0-246-15.5625 0-244.875 0-252 0zm0 0" fill="#e87288"/><path d="m462.25 386c5.519531 0 10-4.480469 10-10s-4.480469-10-10-10-10 4.480469-10 10 4.480469 10 10 10zm0 0"/><path d="m30 512h452c16.570312 0 30-13.429688 30-30v-372c0-5.523438-4.476562-10-10-10h-70c0-55.140625-44.859375-100-100-100-55.257812 0-100 44.699219-100 100h-76c-5.523438 0-10 4.476562-10 10v116h-136c-5.523438 0-10 4.476562-10 10v246c0 16.570312 13.429688 30 30 30zm-10-30v-36h232v36c0 5.523438-4.476562 10-10 10h-212c-5.523438 0-10-4.476562-10-10zm462 10h-211.71875c1.109375-3.128906 1.71875-6.492188 1.71875-10v-36h220v36c0 5.523438-4.476562 10-10 10zm-149.75-472c44.113281 0 80 35.886719 80 80h-160c0-44.210938 35.761719-80 80-80zm-166.25 100h66v46h-10.015625c-4.273437 0-8.183594 2.675781-9.472656 6.753906-2.179688 6.898438 2.914062 13.246094 9.488281 13.246094h40.015625c4.273437 0 8.183594-2.675781 9.472656-6.753906 2.179688-6.898438-2.914062-13.246094-9.488281-13.246094h-10v-46h160v46h-10.015625c-4.273437 0-8.183594 2.675781-9.472656 6.753906-2.179688 6.898438 2.914062 13.246094 9.488281 13.246094h40.015625c4.273437 0 8.183594-2.675781 9.472656-6.753906 2.179688-6.898438-2.914062-13.246094-9.488281-13.246094h-10v-46h60v306h-220v-190c0-5.523438-4.476562-10-10-10h-96zm86 126v180h-232v-180zm0 0"/><path d="m76 306v19.121094c0 32.164062 24.976562 59.292968 57.109375 60.8125 34.390625 1.621094 62.890625-25.890625 62.890625-59.933594v-20c6.011719 0 10.78125-5.300781 9.894531-11.484375-.714843-4.960937-5.195312-8.515625-10.207031-8.515625h-19.375c-5.011719 0-9.492188 3.554688-10.207031 8.515625-.886719 6.183594 3.882812 11.484375 9.894531 11.484375v19.273438c0 20.707031-16.859375 39.410156-37.527344 40.652343-23.214844 1.394531-42.472656-17.011719-42.472656-39.925781v-20c6.011719 0 10.78125-5.300781 9.894531-11.484375-.714843-4.960937-5.195312-8.515625-10.207031-8.515625h-19.375c-5.011719 0-9.492188 3.554688-10.207031 8.515625-.886719 6.183594 3.882812 11.484375 9.894531 11.484375zm0 0"/><path d="m472 335.6875v-79.375c0-5.011719-3.554688-9.492188-8.515625-10.207031-6.183594-.886719-11.484375 3.882812-11.484375 9.894531v80c0 6.011719 5.300781 10.78125 11.484375 9.894531 4.960937-.714843 8.515625-5.195312 8.515625-10.207031zm0 0"/></svg>