<?xml version="1.0" encoding="iso-8859-1"?>
<!-- Generator: Adobe Illustrator 19.0.0, SVG Export Plug-In . SVG Version: 6.00 Build 0)  -->
<svg version="1.1" id="Capa_1" xmlns="http://www.w3.org/2000/svg" xmlns:xlink="http://www.w3.org/1999/xlink" x="0px" y="0px"
	 viewBox="0 0 512 512" style="enable-background:new 0 0 512 512;" xml:space="preserve">
<path style="fill:#FFC107;" d="M394.667,256C318.117,255.918,256.082,193.883,256,117.333c0-3.605,0.277-7.125,0.533-10.667H96
	c-5.891-0.001-10.668,4.773-10.669,10.664c0,0.717,0.072,1.433,0.216,2.136L128.213,332.8c1.079,5.531,6.274,9.269,11.861,8.533
	l320-42.667c4.339-0.58,7.883-3.752,8.939-8L486.4,221.12C461.132,243.599,428.486,256.012,394.667,256z"/>
<g>
	<circle style="fill:#455A64;" cx="394.667" cy="458.667" r="53.333"/>
	<circle style="fill:#455A64;" cx="181.333" cy="458.667" r="53.333"/>
	<path style="fill:#455A64;" d="M191.125,384h246.208c5.891,0,10.667-4.776,10.667-10.667s-4.776-10.667-10.667-10.667H191.125
		c-25.408-0.053-47.272-17.976-52.309-42.88L85.12,51.2c-1.014-4.967-5.384-8.534-10.453-8.533h-64C4.776,42.667,0,47.442,0,53.333
		S4.776,64,10.667,64H65.92l51.989,259.968C124.954,358.831,155.557,383.924,191.125,384z"/>
</g>
<circle style="fill:#F44336;" cx="394.667" cy="117.333" r="117.333"/>
<g>
	<path style="fill:#FAFAFA;" d="M394.667,170.667c-28.736,0-51.2-12.331-53.333-29.312c-0.742-5.891,3.432-11.268,9.323-12.011
		c5.891-0.742,11.268,3.432,12.011,9.323c0.384,3.093,12.096,10.667,32,10.667c20.672,0,32-8.021,32-10.667
		c0,0-0.363-6.656-31.104-10.475L393.216,128c-15.616-2.027-51.883-6.4-51.883-32c0-18.24,22.933-32,53.333-32
		c28.715,0,51.2,12.309,53.333,29.291c0.741,5.844-3.397,11.182-9.241,11.923c-0.006,0.001-0.012,0.001-0.018,0.002
		c-5.833,0.825-11.23-3.235-12.055-9.068c-0.007-0.049-0.014-0.098-0.02-0.148c-0.32-2.475-10.923-10.667-32-10.667
		c-20.672,0-32,8.021-32,10.667c0,0,0.363,6.699,31.232,10.475l2.133,0.299C411.733,108.8,448,113.195,448,138.667
		C448,156.907,425.067,170.667,394.667,170.667z"/>
	<path style="fill:#FAFAFA;" d="M394.667,192c-5.891,0-10.667-4.776-10.667-10.667v-128c0-5.891,4.776-10.667,10.667-10.667
		c5.891,0,10.667,4.776,10.667,10.667v128C405.333,187.224,400.558,192,394.667,192z"/>
</g>
<path d="M394.667,512c-29.455,0-53.333-23.878-53.333-53.333s23.878-53.333,53.333-53.333S448,429.211,448,458.667
	S424.122,512,394.667,512z M394.667,426.667c-17.673,0-32,14.327-32,32s14.327,32,32,32s32-14.327,32-32
	S412.34,426.667,394.667,426.667z"/>
<path d="M181.333,512C151.878,512,128,488.122,128,458.667s23.878-53.333,53.333-53.333c29.455,0,53.333,23.878,53.333,53.333
	S210.789,512,181.333,512z M181.333,426.667c-17.673,0-32,14.327-32,32s14.327,32,32,32s32-14.327,32-32
	S199.006,426.667,181.333,426.667z"/>
<path d="M437.333,384H191.125c-35.558-0.082-66.155-25.16-73.216-60.011L65.92,64H10.667C4.776,64,0,59.224,0,53.333
	s4.776-10.667,10.667-10.667h64c5.07-0.001,9.439,3.566,10.453,8.533l53.717,268.587c5.035,24.896,26.888,42.817,52.288,42.88
	h246.208c5.891,0,10.667,4.776,10.667,10.667S443.224,384,437.333,384z"/>
<path d="M138.667,341.333c-5.891,0.383-10.977-4.082-11.36-9.973c-0.383-5.891,4.082-10.977,9.973-11.36l312.853-41.621
	l8.917-35.627c1.558-5.681,7.427-9.024,13.108-7.466c5.496,1.507,8.836,7.068,7.585,12.628l-10.667,42.667
	c-1.056,4.248-4.6,7.42-8.939,8l-320,42.667C139.65,341.31,139.159,341.338,138.667,341.333z"/>
<path d="M245.333,128H96c-5.891,0-10.667-4.776-10.667-10.667S90.109,106.667,96,106.667h149.333
	c5.891,0,10.667,4.776,10.667,10.667S251.224,128,245.333,128z"/>
<path d="M394.667,234.667c-64.801,0-117.333-52.532-117.333-117.333S329.865,0,394.667,0S512,52.532,512,117.333
	C511.929,182.106,459.439,234.596,394.667,234.667z M394.667,21.333c-53.019,0-96,42.981-96,96s42.981,96,96,96s96-42.981,96-96
	S447.686,21.333,394.667,21.333z"/>
<g>
</g>
<g>
</g>
<g>
</g>
<g>
</g>
<g>
</g>
<g>
</g>
<g>
</g>
<g>
</g>
<g>
</g>
<g>
</g>
<g>
</g>
<g>
</g>
<g>
</g>
<g>
</g>
<g>
</g>
</svg>
