<svg xmlns="http://www.w3.org/2000/svg" height="596pt" version="1.1" viewBox="1 -69 596.717 596" width="596pt">
<g id="surface1">
<path d="M 517.398438 10.339844 L 79.597656 10.339844 C 57.621094 10.339844 39.800781 28.160156 39.800781 50.140625 L 39.800781 388.441406 L 557.199219 388.441406 L 557.199219 50.140625 C 557.199219 28.160156 539.378906 10.339844 517.398438 10.339844 Z M 517.398438 10.339844 " style=" stroke:none;fill-rule:nonzero;fill:rgb(19.607843%,41.176471%,63.137255%);fill-opacity:1;" />
<path d="M 497.5 50.140625 L 99.5 50.140625 C 88.503906 50.140625 79.597656 59.046875 79.597656 70.042969 L 79.597656 408.339844 L 517.398438 408.339844 L 517.398438 70.042969 C 517.398438 59.046875 508.496094 50.140625 497.5 50.140625 Z M 497.5 50.140625 " style=" stroke:none;fill-rule:nonzero;fill:rgb(26.27451%,59.607843%,81.960784%);fill-opacity:1;" />
<path d="M 497.5 50.140625 L 442.773438 50.140625 L 84.574219 408.339844 L 517.398438 408.339844 L 517.398438 70.039062 C 517.398438 59.046875 508.496094 50.140625 497.5 50.140625 Z M 497.5 50.140625 " style=" stroke:none;fill-rule:nonzero;fill:rgb(24.313725%,54.901961%,78.039216%);fill-opacity:1;" />
<path d="M 557.199219 448.140625 L 39.800781 448.140625 C 23.3125 448.140625 9.949219 434.777344 9.949219 418.289062 L 9.949219 388.441406 L 237.625 388.441406 C 244.441406 388.441406 250.679688 392.289062 253.722656 398.390625 C 256.769531 404.488281 263.007812 408.339844 269.824219 408.339844 L 327.175781 408.339844 C 333.992188 408.339844 340.230469 404.488281 343.273438 398.390625 C 346.316406 392.289062 352.554688 388.441406 359.371094 388.441406 L 587.046875 388.441406 L 587.046875 418.289062 C 587.050781 434.777344 573.6875 448.140625 557.199219 448.140625 Z M 557.199219 448.140625 " style=" stroke:none;fill-rule:nonzero;fill:rgb(85.490196%,86.666667%,87.45098%);fill-opacity:1;" />
<path d="M 557.199219 388.441406 L 557.199219 418.289062 C 557.199219 434.777344 543.835938 448.140625 527.347656 448.140625 L 557.199219 448.140625 C 573.6875 448.140625 587.050781 434.777344 587.050781 418.289062 L 587.050781 388.441406 Z M 557.199219 388.441406 " style=" stroke:none;fill-rule:nonzero;fill:rgb(81.568627%,83.137255%,83.921569%);fill-opacity:1;" />
<path d="M 368.148438 159.589844 C 368.148438 198.058594 336.964844 229.242188 298.5 229.242188 C 260.035156 229.242188 228.851562 198.058594 228.851562 159.589844 C 228.851562 121.125 260.035156 89.941406 298.5 89.941406 C 336.964844 89.941406 368.148438 121.125 368.148438 159.589844 Z M 368.148438 159.589844 " style=" stroke:none;fill-rule:nonzero;fill:rgb(89.019608%,29.411765%,52.941176%);fill-opacity:1;" />
<path d="M 318.402344 149.640625 C 318.402344 160.628906 309.492188 169.539062 298.5 169.539062 C 287.507812 169.539062 278.597656 160.628906 278.597656 149.640625 C 278.597656 138.648438 287.507812 129.738281 298.5 129.738281 C 309.492188 129.738281 318.402344 138.648438 318.402344 149.640625 Z M 318.402344 149.640625 " style=" stroke:none;fill-rule:nonzero;fill:rgb(74.901961%,23.921569%,45.882353%);fill-opacity:1;" />
<path d="M 298.5 169.539062 C 282.011719 169.539062 268.648438 182.902344 268.648438 199.390625 L 268.648438 222.445312 C 287.515625 231.507812 309.484375 231.507812 328.351562 222.445312 L 328.351562 199.390625 C 328.351562 182.902344 314.988281 169.539062 298.5 169.539062 Z M 298.5 169.539062 " style=" stroke:none;fill-rule:nonzero;fill:rgb(74.901961%,23.921569%,45.882353%);fill-opacity:1;" />
<path d="M 139.300781 269.039062 L 457.699219 269.039062 L 457.699219 348.640625 L 139.300781 348.640625 Z M 139.300781 269.039062 " style=" stroke:none;fill-rule:nonzero;fill:rgb(52.941176%,80.784314%,85.098039%);fill-opacity:1;" />
<path d="M 139.300781 269.039062 L 457.699219 269.039062 L 457.699219 288.941406 L 139.300781 288.941406 Z M 139.300781 269.039062 " style=" stroke:none;fill-rule:nonzero;fill:rgb(44.313725%,76.862745%,81.960784%);fill-opacity:1;" />
<path d="M 169.148438 298.890625 L 189.050781 298.890625 L 189.050781 318.789062 L 169.148438 318.789062 Z M 169.148438 298.890625 " style=" stroke:none;fill-rule:nonzero;fill:rgb(19.607843%,41.176471%,63.137255%);fill-opacity:1;" />
<path d="M 208.949219 298.890625 L 228.851562 298.890625 L 228.851562 318.789062 L 208.949219 318.789062 Z M 208.949219 298.890625 " style=" stroke:none;fill-rule:nonzero;fill:rgb(19.607843%,41.176471%,63.137255%);fill-opacity:1;" />
<path d="M 248.75 298.890625 L 268.648438 298.890625 L 268.648438 318.789062 L 248.75 318.789062 Z M 248.75 298.890625 " style=" stroke:none;fill-rule:nonzero;fill:rgb(19.607843%,41.176471%,63.137255%);fill-opacity:1;" />
<path d="M 288.550781 298.890625 L 308.449219 298.890625 L 308.449219 318.789062 L 288.550781 318.789062 Z M 288.550781 298.890625 " style=" stroke:none;fill-rule:nonzero;fill:rgb(19.607843%,41.176471%,63.137255%);fill-opacity:1;" />
<path d="M 109.449219 79.988281 L 169.148438 79.988281 L 169.148438 99.890625 L 109.449219 99.890625 Z M 109.449219 79.988281 " style=" stroke:none;fill-rule:nonzero;fill:rgb(16.470588%,49.803922%,74.901961%);fill-opacity:1;" />
<path d="M 189.050781 79.988281 L 208.949219 79.988281 L 208.949219 99.890625 L 189.050781 99.890625 Z M 189.050781 79.988281 " style=" stroke:none;fill-rule:nonzero;fill:rgb(16.470588%,49.803922%,74.901961%);fill-opacity:1;" />
<path d="M 587.050781 378.488281 L 567.148438 378.488281 L 567.148438 50.140625 C 567.117188 22.679688 544.863281 0.421875 517.398438 0.390625 L 79.597656 0.390625 C 52.136719 0.421875 29.878906 22.679688 29.851562 50.140625 L 29.851562 378.492188 L 9.949219 378.492188 C 4.457031 378.492188 0 382.949219 0 388.441406 L 0 418.289062 C 0 440.269531 17.820312 458.089844 39.800781 458.089844 L 557.199219 458.089844 C 579.179688 458.089844 597 440.269531 597 418.289062 L 597 388.441406 C 597 382.949219 592.542969 378.488281 587.050781 378.488281 Z M 49.75 50.140625 C 49.75 33.652344 63.113281 20.289062 79.597656 20.289062 L 517.398438 20.289062 C 533.886719 20.289062 547.25 33.652344 547.25 50.140625 L 547.25 378.492188 L 527.347656 378.492188 L 527.347656 70.039062 C 527.347656 53.554688 513.984375 40.191406 497.5 40.191406 L 99.5 40.191406 C 83.011719 40.191406 69.648438 53.554688 69.648438 70.039062 L 69.648438 378.488281 L 49.75 378.488281 Z M 507.449219 70.039062 L 507.449219 378.488281 L 359.375 378.488281 C 348.757812 378.429688 339.035156 384.429688 334.320312 393.941406 C 332.976562 396.679688 330.179688 398.410156 327.125 398.390625 L 269.824219 398.390625 C 266.769531 398.410156 263.972656 396.679688 262.632812 393.941406 C 257.925781 384.449219 248.222656 378.449219 237.625 378.488281 L 89.550781 378.488281 L 89.550781 70.039062 C 89.550781 64.546875 94.007812 60.089844 99.5 60.089844 L 497.5 60.089844 C 502.992188 60.089844 507.449219 64.546875 507.449219 70.039062 Z M 577.097656 418.289062 C 577.097656 429.285156 568.195312 438.191406 557.199219 438.191406 L 39.800781 438.191406 C 28.804688 438.191406 19.898438 429.285156 19.898438 418.289062 L 19.898438 398.390625 L 237.625 398.390625 C 240.679688 398.371094 243.476562 400.101562 244.820312 402.835938 C 249.523438 412.328125 259.226562 418.328125 269.824219 418.289062 L 327.175781 418.289062 C 337.792969 418.351562 347.511719 412.351562 352.230469 402.835938 C 353.574219 400.109375 356.339844 398.390625 359.375 398.390625 L 577.097656 398.390625 Z M 577.097656 418.289062 " style=" stroke:none;fill-rule:nonzero;fill:rgb(0%,0%,0%);fill-opacity:1;" />
<path d="M 264.164062 231.289062 C 264.242188 231.289062 264.300781 231.398438 264.382812 231.4375 L 264.917969 231.65625 C 267.1875 232.710938 269.496094 233.648438 271.882812 234.511719 C 272.273438 234.652344 272.660156 234.800781 273.050781 234.929688 C 275.289062 235.699219 277.574219 236.34375 279.902344 236.921875 C 280.429688 237.050781 280.949219 237.210938 281.476562 237.328125 C 283.675781 237.804688 285.902344 238.164062 288.171875 238.453125 C 288.78125 238.535156 289.375 238.671875 289.984375 238.730469 C 295.65625 239.367188 301.386719 239.367188 307.058594 238.730469 C 307.664062 238.671875 308.261719 238.53125 308.867188 238.453125 C 311.136719 238.164062 313.363281 237.808594 315.5625 237.328125 C 316.089844 237.210938 316.558594 237.050781 317.136719 236.921875 C 319.464844 236.363281 321.753906 235.71875 323.992188 234.929688 C 324.378906 234.800781 324.765625 234.652344 325.15625 234.511719 C 327.523438 233.667969 329.832031 232.710938 332.121094 231.65625 L 332.65625 231.4375 C 332.738281 231.4375 332.796875 231.328125 332.878906 231.289062 C 372.539062 212.335938 389.324219 164.804688 370.367188 125.144531 C 351.414062 85.484375 303.882812 68.695312 264.222656 87.652344 C 224.5625 106.605469 207.777344 154.136719 226.730469 193.796875 C 234.570312 210.214844 247.804688 223.4375 264.222656 231.289062 Z M 318.398438 215.808594 L 318.269531 215.859375 C 315.226562 216.933594 312.101562 217.75 308.917969 218.316406 C 308.609375 218.375 308.300781 218.414062 307.992188 218.464844 C 301.703125 219.488281 295.296875 219.488281 289.007812 218.464844 C 288.699219 218.414062 288.390625 218.375 288.082031 218.316406 C 284.898438 217.75 281.773438 216.933594 278.726562 215.859375 L 278.597656 215.808594 L 278.597656 199.390625 C 278.597656 188.394531 287.503906 179.488281 298.5 179.488281 C 309.496094 179.488281 318.398438 188.394531 318.398438 199.390625 Z M 288.550781 149.640625 C 288.550781 144.148438 293.007812 139.691406 298.5 139.691406 C 303.992188 139.691406 308.449219 144.148438 308.449219 149.640625 C 308.449219 155.132812 303.992188 159.589844 298.5 159.589844 C 293.007812 159.589844 288.550781 155.132812 288.550781 149.640625 Z M 298.5 99.890625 C 331.425781 99.851562 358.148438 126.507812 358.191406 159.441406 C 358.210938 176.445312 350.976562 192.644531 338.300781 203.96875 L 338.300781 199.390625 C 338.269531 186.84375 332.289062 175.042969 322.191406 167.601562 C 326.160156 162.457031 328.332031 156.136719 328.351562 149.640625 C 328.351562 133.152344 314.988281 119.789062 298.5 119.789062 C 282.011719 119.789062 268.648438 133.152344 268.648438 149.640625 C 268.679688 156.128906 270.847656 162.417969 274.808594 167.550781 C 264.691406 175.015625 258.71875 186.824219 258.699219 199.390625 L 258.699219 203.96875 C 234.144531 182.027344 232.035156 144.339844 253.972656 119.78125 C 265.296875 107.105469 281.496094 99.871094 298.5 99.890625 Z M 298.5 99.890625 " style=" stroke:none;fill-rule:nonzero;fill:rgb(0%,0%,0%);fill-opacity:1;" />
<path d="M 457.699219 259.089844 L 139.300781 259.089844 C 133.808594 259.089844 129.351562 263.546875 129.351562 269.039062 L 129.351562 348.640625 C 129.351562 354.132812 133.808594 358.589844 139.300781 358.589844 L 457.699219 358.589844 C 463.191406 358.589844 467.648438 354.132812 467.648438 348.640625 L 467.648438 269.039062 C 467.648438 263.546875 463.191406 259.089844 457.699219 259.089844 Z M 447.75 338.691406 L 149.25 338.691406 L 149.25 278.988281 L 447.75 278.988281 Z M 447.75 338.691406 " style=" stroke:none;fill-rule:nonzero;fill:rgb(0%,0%,0%);fill-opacity:1;" />
<path d="M 169.148438 298.890625 L 189.050781 298.890625 L 189.050781 318.789062 L 169.148438 318.789062 Z M 169.148438 298.890625 " style=" stroke:none;fill-rule:nonzero;fill:rgb(0%,0%,0%);fill-opacity:1;" />
<path d="M 208.949219 298.890625 L 228.851562 298.890625 L 228.851562 318.789062 L 208.949219 318.789062 Z M 208.949219 298.890625 " style=" stroke:none;fill-rule:nonzero;fill:rgb(0%,0%,0%);fill-opacity:1;" />
<path d="M 248.75 298.890625 L 268.648438 298.890625 L 268.648438 318.789062 L 248.75 318.789062 Z M 248.75 298.890625 " style=" stroke:none;fill-rule:nonzero;fill:rgb(0%,0%,0%);fill-opacity:1;" />
<path d="M 288.550781 298.890625 L 308.449219 298.890625 L 308.449219 318.789062 L 288.550781 318.789062 Z M 288.550781 298.890625 " style=" stroke:none;fill-rule:nonzero;fill:rgb(0%,0%,0%);fill-opacity:1;" />
<path d="M 109.449219 79.988281 L 169.148438 79.988281 L 169.148438 99.890625 L 109.449219 99.890625 Z M 109.449219 79.988281 " style=" stroke:none;fill-rule:nonzero;fill:rgb(0%,0%,0%);fill-opacity:1;" />
<path d="M 189.050781 79.988281 L 208.949219 79.988281 L 208.949219 99.890625 L 189.050781 99.890625 Z M 189.050781 79.988281 " style=" stroke:none;fill-rule:nonzero;fill:rgb(0%,0%,0%);fill-opacity:1;" />
</g>
</svg>