<svg viewBox="0 -66 512 512" xmlns="http://www.w3.org/2000/svg"><path d="m9.75 230v120c0 11.050781 8.949219 20 20 20h50c0-16.570312 13.429688-30 30-30s30 13.429688 30 30h342c11.050781 0 20-8.949219 20-20 0-14.519531 0-105.386719 0-120zm0 0" fill="#ff6969"/><path d="m109.75 40c16.570312 0 30-13.429688 30-30h342c11.050781 0 20 8.949219 20 20v200c0 11.050781-8.949219 20-20 20h-342c0-16.570312-13.429688-30-30-30s-30 13.429688-30 30h-50c-11.050781 0-20-8.949219-20-20v-200c0-11.050781 8.949219-20 20-20h50c0 16.570312 13.429688 30 30 30zm0 0" fill="#ffe470"/><path d="m315.75 150c11.050781 0 20 8.949219 20 20s-8.949219 20-20 20-20-8.949219-20-20 8.949219-20 20-20zm0 0" fill="#ff6969"/><path d="m235.75 70c11.050781 0 20 8.949219 20 20s-8.949219 20-20 20-20-8.949219-20-20 8.949219-20 20-20zm0 0" fill="#ff6969"/><path d="m462 200c5.519531 0 10-4.480469 10-10s-4.480469-10-10-10-10 4.480469-10 10 4.480469 10 10 10zm0 0"/><path d="m110 160c5.523438 0 10-4.476562 10-10v-40c0-5.523438-4.476562-10-10-10s-10 4.476562-10 10v40c0 5.523438 4.476562 10 10 10zm0 0"/><path d="m236 120c16.542969 0 30-13.457031 30-30s-13.457031-30-30-30-30 13.457031-30 30 13.457031 30 30 30zm0-40c5.515625 0 10 4.484375 10 10s-4.484375 10-10 10-10-4.484375-10-10 4.484375-10 10-10zm0 0"/><path d="m316 140c-16.542969 0-30 13.457031-30 30s13.457031 30 30 30 30-13.457031 30-30-13.457031-30-30-30zm0 40c-5.515625 0-10-4.484375-10-10s4.484375-10 10-10 10 4.484375 10 10-4.484375 10-10 10zm0 0"/><path d="m208.929688 197.070312c3.90625 3.90625 10.234374 3.90625 14.140624 0l120-120c3.90625-3.90625 3.90625-10.234374 0-14.140624-3.902343-3.90625-10.234374-3.90625-14.140624 0l-120 120c-3.90625 3.90625-3.90625 10.234374 0 14.140624zm0 0"/><path d="m482 0h-342c-5.523438 0-10 4.476562-10 10 0 11.027344-8.972656 20-20 20s-20-8.972656-20-20c0-5.523438-4.476562-10-10-10h-50c-16.542969 0-30 13.457031-30 30v320c0 16.542969 13.457031 30 30 30h50c5.523438 0 10-4.476562 10-10 0-11.027344 8.972656-20 20-20s20 8.972656 20 20c0 5.523438 4.476562 10 10 10h342c16.542969 0 30-13.457031 30-30 0-10.160156 0-305.308594 0-320 0-16.542969-13.457031-30-30-30zm10 290c0 5.515625-4.484375 10-10 10h-333.265625c-4.453125-17.234375-20.128906-30-38.734375-30s-34.28125 12.765625-38.734375 30h-41.265625c-5.515625 0-10-4.484375-10-10v-31.71875c3.128906 1.109375 6.492188 1.71875 10 1.71875h50c5.523438 0 10-4.476562 10-10 0-11.027344 8.972656-20 20-20s20 8.972656 20 20c0 5.523438 4.476562 10 10 10h342c3.507812 0 6.871094-.609375 10-1.71875zm-472-260c0-5.515625 4.484375-10 10-10h41.265625c3.625 14.035156 14.699219 25.105469 28.734375 28.730469v21.269531c0 5.523438 4.476562 10 10 10s10-4.476562 10-10v-21.269531c14.035156-3.625 25.109375-14.695313 28.734375-28.730469h333.265625c5.515625 0 10 4.484375 10 10v200c0 5.515625-4.484375 10-10 10h-333.265625c-3.625-14.035156-14.699219-25.105469-28.734375-28.730469v-21.269531c0-5.523438-4.476562-10-10-10s-10 4.476562-10 10v21.269531c-14.035156 3.625-25.109375 14.695313-28.734375 28.730469h-41.265625c-5.515625 0-10-4.484375-10-10zm462 330h-333.265625c-4.453125-17.234375-20.128906-30-38.734375-30s-34.28125 12.765625-38.734375 30h-41.265625c-5.515625 0-10-4.484375-10-10v-31.71875c3.128906 1.109375 6.492188 1.71875 10 1.71875h50c5.523438 0 10-4.476562 10-10 0-11.027344 8.972656-20 20-20s20 8.972656 20 20c0 5.523438 4.476562 10 10 10h342c3.507812 0 6.871094-.609375 10-1.71875v31.71875c0 5.515625-4.484375 10-10 10zm0 0"/><path d="m462 160c5.523438 0 10-4.476562 10-10v-80c0-5.523438-4.476562-10-10-10s-10 4.476562-10 10v80c0 5.523438 4.476562 10 10 10zm0 0"/></svg>