<svg viewBox="0 -16 512 512" xmlns="http://www.w3.org/2000/svg"><path d="m310 10h-280c-11.046875 0-20 8.960938-20 20v420c0 11.050781 8.949219 20 20 20h280c11.050781 0 20-8.949219 20-20 0-18.996094 0-400.726562 0-420 0-11.042969-8.957031-20-20-20zm0 0" fill="#f6d465"/><path d="m495.390625 195h-358.78125c-4.058594 3.660156-6.609375 8.964844-6.609375 14.871094v180.117187c0 5.523438 2.238281 10.527344 5.859375 14.148438 3.621094 3.621093 8.621094 5.863281 14.140625 5.863281h332c5.519531 0 10.519531-2.242188 14.140625-5.863281 3.621094-3.625 5.859375-8.625 5.859375-14.148438v-180.117187c0-5.90625-2.550781-11.210938-6.609375-14.871094zm0 0" fill="#fff"/><path d="m495.378906 195.140625c-1.3125.984375-166.929687 125.183594-167.097656 125.308594-7.222656 5.621093-17.339844 5.621093-24.5625 0-.167969-.125-166.1875-124.625-167.097656-125.308594 3.550781-3.199219 8.238281-5.140625 13.378906-5.140625h332c5.140625 0 9.828125 1.941406 13.378906 5.140625zm0 0" fill="#f2775e"/><path d="m200 110c0 16.570312-13.429688 30-30 30s-30-13.429688-30-30 13.429688-30 30-30 30 13.429688 30 30zm0 0" fill="#fff"/><path d="m50.25 360c-5.519531 0-10 4.480469-10 10s4.480469 10 10 10 10-4.480469 10-10-4.480469-10-10-10zm0 0"/><path d="m30 480h280c16.570312 0 30-13.429688 30-30v-30h142c16.570312 0 30-13.429688 30-30v-180c0-16.460938-13.367188-30-30-30h-142v-150c0-16.734375-13.664062-30-30-30h-280c-16.300781 0-30 13.234375-30 30v420c0 16.570312 13.429688 30 30 30zm442.480469-280-149.949219 112.449219c-.046875.035156-.097656.074219-.144531.109375-3.613281 2.8125-8.660157 2.8125-12.277344 0-.046875-.039063-.09375-.074219-.140625-.109375l-149.949219-112.449219zm-80.875 85.460938 100.394531-75.285157v175.683594zm-251.605469-75.285157 100.394531 75.285157-100.394531 100.398437zm116.808594 87.40625 41.101562 30.824219c10.8125 8.355469 25.867188 8.355469 36.679688 0l41.101562-30.824219 102.414063 102.417969h-323.710938zm-106.808594-117.582031c-16.40625 0-30 13.300781-30 30v180c0 16.332031 13.210938 30 30 30h170v30c0 5.523438-4.476562 10-10 10h-280c-5.523438 0-10-4.476562-10-10v-389.230469l15.71875 40.167969c4.535156 11.578125 15.5 19.0625 27.929688 19.0625h67.617187c4.453125 17.234375 20.128906 30 38.734375 30 18.601562 0 34.28125-12.765625 38.734375-30h67.613281c12.433594 0 23.394532-7.484375 27.933594-19.066406l15.71875-40.160156v119.226562zm.25-70c0-11.027344 8.972656-20 20-20s20 8.972656 20 20-8.972656 20-20 20-20-8.972656-20-20zm160-90c1.457031 0 2.851562.320312 4.128906.898438l-28.472656 72.746093c-1.511719 3.859375-5.164062 6.355469-9.308594 6.355469h-67.613281c-4.453125-17.234375-20.128906-30-38.734375-30s-34.28125 12.765625-38.734375 30h-67.617187c-4.140626 0-7.796876-2.496094-9.304688-6.355469l-28.472656-72.746093c1.277344-.578126 2.671875-.898438 4.128906-.898438zm0 0"/><path d="m40 250.3125v79.375c0 5.011719 3.554688 9.492188 8.515625 10.207031 6.179687.886719 11.484375-3.882812 11.484375-9.894531v-80c0-6.011719-5.304688-10.78125-11.484375-9.894531-4.960937.714843-8.515625 5.195312-8.515625 10.207031zm0 0"/></svg>