<svg id="househomelove-svg-preload" data-name="househomelove" xmlns="http://www.w3.org/2000/svg" viewBox="0 0 100 100"><title>Househomelove Preload</title><style>#househomelove-svg-preload{opacity: 0; transform-origin: center center; animation-name: zoomIn; animation-duration: 3.5s; animation-delay: 0; animation-iteration-count: infinite;}.househomelove-heart-0{opacity: 0; transform-origin: center center; animation-name: jello; animation-duration: 3s; animation-delay: 0s; animation-iteration-count: infinite;}.househomelove-heart-1{opacity: 0; transform-origin: center center; animation-name: jello; animation-duration: 3s; animation-delay: 0.25s; animation-iteration-count: infinite;}.househomelove-heart-2{opacity: 0; transform-origin: center center; animation-name: jello; animation-duration: 3s; animation-delay: 0.5s; animation-iteration-count: infinite;}.househomelove-heart-3{opacity: 0; transform-origin: center center; animation-name: jello; animation-duration: 3s; animation-delay: 0.75s; animation-iteration-count: infinite;}.househomelove-heart-4{opacity: 0; transform-origin: center center; animation-name: jello; animation-duration: 3s; animation-delay: 1s; animation-iteration-count: infinite;}@keyframes zoomIn{0%{opacity: 0; transform: rotate(-15deg) scale(0.85);}25%{opacity: 1; transform: rotate(15deg) scale(1);}85%{opacity: 1; transform: rotate(-15deg) scale(1);}100%{opacity: 0; transform: rotate(15deg) scale(0.85);}}@keyframes jello{0%{opacity: 0;}from, 11.1%, to{transform: translate3d(0, 0, 0) scale3d(0);}22.2%{transform: skewX(-12.5deg) skewY(-12.5deg) scale(0.5);}33.3%{transform: skewX(6.25deg) skewY(6.25deg);}44.4%{transform: skewX(-3.125deg) skewY(-3.125deg);}55.5%{opacity: 1; transform: skewX(1.5625deg) skewY(1.5625deg);}66.6%{transform: skewX(-0.78125deg) skewY(-0.78125deg);}77.7%{transform: skewX(0.390625deg) skewY(0.390625deg);}88.8%{transform: skewX(-0.1953125deg) skewY(-0.1953125deg);}}</style><path class="househomelove-home" d="M89.78,34.07,53.46,3.76a6,6,0,0,0-7.69.06L10.16,34.07a5.57,5.57,0,0,0-2.07,4.52V91.67h0A5.93,5.93,0,0,0,14,97.59H86a5.93,5.93,0,0,0,5.92-5.95h0V38.59A5.82,5.82,0,0,0,89.78,34.07Z" fill="#ea546b"/><path class="househomelove-heart-0" d="M62.77,50.6c.19,0,1-1.45,2.32-1.45a2.53,2.53,0,0,1,2.48,2.41A2.9,2.9,0,0,1,67,53.39c-.69,1-3.62,3.5-4.25,3.5s-3.58-2.48-4.26-3.5A2.9,2.9,0,0,1,58,51.56a2.53,2.53,0,0,1,2.48-2.41C61.81,49.15,62.61,50.6,62.77,50.6Z" fill="#fff"/><path class="househomelove-heart-1" d="M57.21,35.8c.87,0,1.38.93,1.49.93s.65-.93,1.49-.93a1.62,1.62,0,0,1,1.58,1.54,1.86,1.86,0,0,1-.34,1.17,8.61,8.61,0,0,1-2.72,2.24A8.45,8.45,0,0,1,56,38.52a1.85,1.85,0,0,1-.34-1.17,1.62,1.62,0,0,1,1.58-1.54Z" fill="#fff"/><path class="househomelove-heart-2" d="M46.72,42.94c1.08,0,1.71,1.15,1.84,1.15s.81-1.15,1.84-1.15a2,2,0,0,1,1.94,1.94,2.29,2.29,0,0,1-.43,1.45c-.54.82-2.86,2.77-3.37,2.77s-2.84-1.94-3.37-2.77a2.29,2.29,0,0,1-.43-1.45A2,2,0,0,1,46.72,42.94Z" fill="#fff"/><path class="househomelove-heart-3" d="M50.06,81.45c-5.43,3.06-11.38,5.66-13,5.3C34.4,86.16,24.47,73.17,22.6,68.22A12.36,12.36,0,0,1,22,60.11a10.79,10.79,0,0,1,12.54-7.76c5.51,1.22,7.51,8,8.32,8.22s5.36-5.17,11-3.88a10.68,10.68,0,0,1,7.19,5.91s-.05.11-.17,0A10.84,10.84,0,0,0,55,60.71a8.78,8.78,0,0,0-1.94.21,10.42,10.42,0,0,0-6.51,4.57,10.92,10.92,0,0,0-1.6,7.76,12,12,0,0,0,3.74,6.82A12.63,12.63,0,0,0,50,81.2c.15.05.16.16,0,.25Z" fill="#fff"/><path class="househomelove-heart-4" d="M77.08,72.21C75.68,75.9,68.27,85.59,66.3,86s-12.85-5.2-15.66-7.93a9.23,9.23,0,0,1-2.94-5.31,8,8,0,0,1,6-9.2c4.23-.94,7.69,3,8.22,2.9s2.17-5.22,6.21-6.11a8,8,0,0,1,9.35,5.78A9.22,9.22,0,0,1,77.08,72.21Z" fill="#fff"/></svg>