<svg id="2238c246-80a2-42a8-8139-29365a0dfe3e" data-name="64626eb7-8c9b-4c7c-a758-75ee51cb03bb" xmlns="http://www.w3.org/2000/svg" viewBox="0 0 333.25 100"><title>homemail</title><path d="M101.44,38.23,92.57,28.6a9.87,9.87,0,0,0-7.95-3.21L71.17,26.46V17.59a1.44,1.44,0,0,0-1.34-1.53H13.64a1.53,1.53,0,0,0-1.53,1.53h0v53a4.11,4.11,0,0,0,4.09,4.13h5.24A10.7,10.7,0,0,0,32,83.94a10.58,10.58,0,0,0,10.55-9.17H69.8a10.65,10.65,0,0,0,21.1,0h7A5.81,5.81,0,0,0,103.73,69V44.8A9.37,9.37,0,0,0,101.44,38.23Z" fill="#ea536a"/><path d="M51,34.25c.14,0,.75-1.07,1.71-1.07A1.86,1.86,0,0,1,54.52,35a2.13,2.13,0,0,1-.4,1.35A9.7,9.7,0,0,1,51,38.89a9.79,9.79,0,0,1-3.14-2.58,2.13,2.13,0,0,1-.4-1.35,1.86,1.86,0,0,1,1.82-1.78C50.27,33.18,50.86,34.25,51,34.25Z" fill="#fff"/><path d="M46.88,23.35c.64,0,1,.69,1.1.69s.48-.69,1.1-.69a1.19,1.19,0,0,1,1.17,1.14,1.37,1.37,0,0,1-.25.86A6.35,6.35,0,0,1,48,27a6.23,6.23,0,0,1-2-1.65,1.37,1.37,0,0,1-.25-.86,1.19,1.19,0,0,1,1.17-1.14Z" fill="#fff"/><path d="M39.15,28.61c.8,0,1.26.85,1.36.85s.6-.85,1.36-.85A1.48,1.48,0,0,1,43.3,30a1.69,1.69,0,0,1-.3,1.11,7.69,7.69,0,0,1-2.48,2,7.53,7.53,0,0,1-2.49-2A1.69,1.69,0,0,1,37.7,30,1.48,1.48,0,0,1,39.15,28.61Z" fill="#fff"/><path d="M41.61,57c-4,2.25-8.39,4.17-9.59,3.9-2-.43-9.27-10-10.65-13.65a9.11,9.11,0,0,1-.4-6,8,8,0,0,1,9.24-5.71c4.06.9,5.53,5.91,6.13,6.06s4-3.81,8.1-2.86a7.87,7.87,0,0,1,5.3,4.36s0,.08-.12,0a8,8,0,0,0-4.37-1.43,6.47,6.47,0,0,0-1.43.16A7.68,7.68,0,0,0,39,45.23a8,8,0,0,0-1.18,5.71,8.83,8.83,0,0,0,2.75,5,9.31,9.31,0,0,0,1,.83c.11,0,.12.12,0,.19Z" fill="#fff"/><path d="M61.53,50.17c-1,2.72-6.49,9.86-8,10.19S44.11,56.52,42,54.51a6.8,6.8,0,0,1-2.17-3.91,5.93,5.93,0,0,1,4.43-6.78C47.42,43.13,50,46,50.36,46s1.6-3.84,4.58-4.5a5.93,5.93,0,0,1,6.89,4.26A6.79,6.79,0,0,1,61.53,50.17Z" fill="#fff"/><path d="M96.24,51.22H75.76V33.64l9.33-.76h.15a1.88,1.88,0,0,1,1.53.76l8.87,9.78a2.75,2.75,0,0,1,.61,1.38Z" fill="#fff"/><path d="M32,77.82a4.6,4.6,0,0,1-4.59-4.59,4.5,4.5,0,0,1,4.42-4.58H32a4.59,4.59,0,0,1,0,9.17Z" fill="#fff"/><path d="M80.34,77.82a4.59,4.59,0,1,1,4.59-4.59h0a4.5,4.5,0,0,1-4.41,4.59Z" fill="#fff"/><path d="M115.89,51a9.23,9.23,0,0,1,8.45-4.89,7.83,7.83,0,0,1,6.27,2.53q2.18,2.53,2.18,7.85V72.43h-2.86v-16q0-4.21-1.66-6a5.86,5.86,0,0,0-4.57-1.83,7.71,7.71,0,0,0-4.91,1.54,9,9,0,0,0-2.9,4.1V72.43H113V35.19h2.86Z"/><path d="M138.64,59.14a13.88,13.88,0,0,1,3.13-9.36,11.25,11.25,0,0,1,16.59,0,13.88,13.88,0,0,1,3.13,9.36v.79a13.91,13.91,0,0,1-3.12,9.37,11.29,11.29,0,0,1-16.6,0,13.87,13.87,0,0,1-3.13-9.37Zm2.86.78a12.28,12.28,0,0,0,2.27,7.54,8,8,0,0,0,12.59,0,12.24,12.24,0,0,0,2.28-7.54v-.79a12.18,12.18,0,0,0-2.29-7.49,8,8,0,0,0-12.58,0,12.26,12.26,0,0,0-2.27,7.49Z"/><path d="M169.87,46.6l.26,4.27a9.08,9.08,0,0,1,3.31-3.51,9.4,9.4,0,0,1,4.93-1.24,8.27,8.27,0,0,1,5,1.43,7.87,7.87,0,0,1,2.85,4.37,9.88,9.88,0,0,1,3.33-4.26,8.83,8.83,0,0,1,5.26-1.54,7.77,7.77,0,0,1,6.37,2.75q2.24,2.75,2.24,8.5V72.43h-2.86V57.29q0-4.78-1.68-6.76a5.83,5.83,0,0,0-4.69-2A6.44,6.44,0,0,0,189,50.64,9.87,9.87,0,0,0,186.77,56c0,.11,0,.27,0,.48s0,.36,0,.46V72.43H183.9V57.29q0-4.69-1.71-6.71a5.81,5.81,0,0,0-4.69-2,7.09,7.09,0,0,0-4.81,1.54,8.21,8.21,0,0,0-2.49,4.15V72.43h-2.89V46.6Z"/><path d="M220.48,72.94a10.37,10.37,0,0,1-8.06-3.58,13.07,13.07,0,0,1-3.21-9.07V59a13.48,13.48,0,0,1,3.19-9.19,9.89,9.89,0,0,1,7.72-3.65,9.57,9.57,0,0,1,7.47,3,11.5,11.5,0,0,1,2.72,8v2.44H212.07v.69a11.39,11.39,0,0,0,2.32,7.29,7.38,7.38,0,0,0,6.09,2.93,12.5,12.5,0,0,0,4.56-.74,9,9,0,0,0,3.22-2.12l1.22,2A10.36,10.36,0,0,1,225.79,72,14.1,14.1,0,0,1,220.48,72.94Zm-.36-24.37A6.84,6.84,0,0,0,214.79,51,10.38,10.38,0,0,0,212.29,57l0,.12h15.14v-.71a8.22,8.22,0,0,0-2-5.62A6.78,6.78,0,0,0,220.12,48.56Z"/><path d="M240.55,46.6l.31,3.37A8.75,8.75,0,0,1,244,47.13a9.36,9.36,0,0,1,4.42-1,8,8,0,0,1,4.34,1.15,6.92,6.92,0,0,1,2.72,3.44,9,9,0,0,1,3.15-3.37,8.5,8.5,0,0,1,4.58-1.22,7.64,7.64,0,0,1,6.15,2.66q2.26,2.66,2.26,8.08V72.43h-5.8V56.85q0-3.3-1.13-4.63a4.21,4.21,0,0,0-3.4-1.34,5,5,0,0,0-3.15,1,5.58,5.58,0,0,0-1.86,2.7q0,.36,0,.62c0,.17,0,.34,0,.5V72.43h-5.8V56.85q0-3.18-1.16-4.57a4.17,4.17,0,0,0-3.4-1.4,6.1,6.1,0,0,0-3,.68,5,5,0,0,0-1.95,1.92v19h-5.8V46.6Z" fill="#ea536a"/><path d="M293.31,72.43q-.31-1-.51-1.91a13.58,13.58,0,0,1-.27-1.86,10.25,10.25,0,0,1-3.14,3A8,8,0,0,1,285,72.94a8.59,8.59,0,0,1-6.2-2.08,7.54,7.54,0,0,1-2.16-5.71,6.74,6.74,0,0,1,3-5.84q3-2.09,8.33-2.09h4.51V55a4.19,4.19,0,0,0-1.19-3.17,4.74,4.74,0,0,0-3.41-1.15,4.84,4.84,0,0,0-3.15,1,3,3,0,0,0-1.17,2.46H278l0-.14a6.4,6.4,0,0,1,2.73-5.42,11.59,11.59,0,0,1,7.56-2.36,11,11,0,0,1,7.28,2.29A8.07,8.07,0,0,1,298.28,55V66.49a21.12,21.12,0,0,0,.21,3.07,16.12,16.12,0,0,0,.69,2.88Zm-7.11-4.15a7.29,7.29,0,0,0,4-1.1,5.53,5.53,0,0,0,2.33-2.51V60.86h-4.61a5.81,5.81,0,0,0-4,1.25,3.81,3.81,0,0,0-1.43,2.95,3,3,0,0,0,1,2.35A4,4,0,0,0,286.2,68.28Z" fill="#ea536a"/><path d="M310.55,40.28h-5.8V35.19h5.8Zm0,32.16h-5.8V46.6h5.8Z" fill="#ea536a"/><path d="M323.23,72.43h-5.8V35.19h5.8Z" fill="#ea536a"/></svg>