<svg id="househomelove-svg-preload" data-name="househomelove" xmlns="http://www.w3.org/2000/svg" viewBox="0 0 100 100"><title>Househomelove Preload</title><style>.househomelove-svg-preload{opacity: 0; transform-origin: center center; animation-name: zoomIn; animation-duration: 3.5s; animation-delay: 0; animation-iteration-count: infinite;}.househomelove-heart-0{opacity: 0; transform-origin: center center; animation-name: jello; animation-duration: 3s; animation-delay: 0s; animation-iteration-count: infinite;}.househomelove-heart-1{opacity: 0; transform-origin: center center; animation-name: jello; animation-duration: 3s; animation-delay: 0.25s; animation-iteration-count: infinite;}.househomelove-heart-2{opacity: 0; transform-origin: center center; animation-name: jello; animation-duration: 3s; animation-delay: 0.5s; animation-iteration-count: infinite;}.househomelove-heart-3{opacity: 0; transform-origin: center center; animation-name: jello; animation-duration: 3s; animation-delay: 0.75s; animation-iteration-count: infinite;}.househomelove-heart-4{opacity: 0; transform-origin: center center; animation-name: jello; animation-duration: 3s; animation-delay: 1s; animation-iteration-count: infinite;}@keyframes zoomIn{0%{opacity: 0; transform: rotate(-15deg) scale(0.85);}25%{opacity: 1; transform: rotate(15deg) scale(1);}85%{opacity: 1; transform: rotate(-15deg) scale(1);}100%{opacity: 0; transform: rotate(15deg) scale(0.85);}}@keyframes jello{0%{opacity: 0;}from, 11.1%, to{transform: translate3d(0, 0, 0) scale3d(0);}22.2%{transform: skewX(-12.5deg) skewY(-12.5deg) scale(0.5);}33.3%{transform: skewX(6.25deg) skewY(6.25deg);}44.4%{transform: skewX(-3.125deg) skewY(-3.125deg);}55.5%{opacity: 1; transform: skewX(1.5625deg) skewY(1.5625deg);}66.6%{transform: skewX(-0.78125deg) skewY(-0.78125deg);}77.7%{transform: skewX(0.390625deg) skewY(0.390625deg);}88.8%{transform: skewX(-0.1953125deg) skewY(-0.1953125deg);}}</style><g class="househomelove-svg-preload"><path class="househomelove-home" d="M83.85,36.44,52.94,10.65a5.14,5.14,0,0,0-6.54.05L16.1,36.44a4.74,4.74,0,0,0-1.76,3.85V85.46h0a5,5,0,0,0,5.06,5H80.63a5,5,0,0,0,5-5.06h0V40.29A5,5,0,0,0,83.85,36.44Z" fill="#ea546b"/><path class="househomelove-heart-0" d="M60.87,50.51c.16,0,.87-1.23,2-1.23A2.15,2.15,0,0,1,65,51.33a2.46,2.46,0,0,1-.46,1.56c-.58.89-3.08,3-3.62,3s-3-2.11-3.62-3a2.46,2.46,0,0,1-.46-1.56,2.15,2.15,0,0,1,2.11-2.05C60.05,49.27,60.73,50.51,60.87,50.51Z" fill="#fff"/><path class="househomelove-heart-1" d="M56.13,37.92c.74,0,1.17.79,1.26.79s.55-.79,1.26-.79A1.37,1.37,0,0,1,60,39.23a1.58,1.58,0,0,1-.29,1,7.33,7.33,0,0,1-2.32,1.91,7.19,7.19,0,0,1-2.32-1.91,1.58,1.58,0,0,1-.29-1,1.37,1.37,0,0,1,1.35-1.31Z" fill="#fff"/><path class="househomelove-heart-2" d="M47.21,44c.92,0,1.45,1,1.57,1s.69-1,1.57-1A1.7,1.7,0,0,1,52,45.64a2,2,0,0,1-.36,1.23,8.88,8.88,0,0,1-2.87,2.36,8.7,8.7,0,0,1-2.87-2.36,2,2,0,0,1-.36-1.23A1.7,1.7,0,0,1,47.21,44Z" fill="#fff"/><path class="househomelove-heart-3" d="M50,76.76c-4.62,2.6-9.68,4.82-11.07,4.51-2.25-.5-10.7-11.55-12.3-15.76a10.52,10.52,0,0,1-.47-6.91A9.18,9.18,0,0,1,36.88,52c4.69,1,6.39,6.83,7.08,7s4.56-4.4,9.35-3.3a9.09,9.09,0,0,1,6.12,5s0,.09-.14,0a9.22,9.22,0,0,0-5-1.65,7.47,7.47,0,0,0-1.65.18,8.87,8.87,0,0,0-5.54,3.89,9.29,9.29,0,0,0-1.36,6.6,10.2,10.2,0,0,0,3.18,5.8,10.75,10.75,0,0,0,1.15,1c.13,0,.14.14,0,.21Z" fill="#fff"/><path class="househomelove-heart-4" d="M73,68.9c-1.19,3.14-7.5,11.39-9.18,11.76s-10.93-4.43-13.33-6.75A7.85,7.85,0,0,1,48,69.4a6.85,6.85,0,0,1,5.12-7.83c3.6-.8,6.54,2.57,7,2.47s1.84-4.44,5.28-5.2a6.85,6.85,0,0,1,8,4.92A7.84,7.84,0,0,1,73,68.9Z" fill="#fff"/></g></svg>