<?xml version="1.0" encoding="iso-8859-1"?>
<!-- Generator: Adobe Illustrator 19.0.0, SVG Export Plug-In . SVG Version: 6.00 Build 0)  -->
<svg version="1.1" id="Capa_1" xmlns="http://www.w3.org/2000/svg" xmlns:xlink="http://www.w3.org/1999/xlink" x="0px" y="0px"
	 viewBox="0 0 512 512" style="enable-background:new 0 0 512 512;" xml:space="preserve">
<ellipse style="fill:#D3CDBF;" cx="256" cy="467.23" rx="173.95" ry="37.27"/>
<path style="fill:#FF5368;" d="M256,7.5c-98.031,0-177.5,79.462-177.5,177.484c0,35.137,10.211,67.889,27.828,95.451l124.78,195.219
	c11.617,18.175,38.166,18.175,49.783,0l124.78-195.219c17.617-27.562,27.828-60.314,27.828-95.451C433.5,86.962,354.031,7.5,256,7.5
	z M256,293c-60.751,0-110-49.249-110-110S195.249,73,256,73s110,49.249,110,110S316.751,293,256,293z"/>
<g>
	<path style="fill:#C5324F;" d="M335.014,26.026c-8.031,13.176-4.759,30.53,7.925,39.801C380.86,93.546,403.5,138.09,403.5,184.984
		c0,28.226-7.99,55.645-23.105,79.293l-124.78,195.22c-5.928,9.274-6.11,20.571-1.475,29.729
		c10.145,0.63,20.566-3.893,26.752-13.571l124.78-195.22c17.617-27.562,27.828-60.313,27.828-95.45
		C433.5,115.35,393.388,55.093,335.014,26.026z"/>
	<path style="fill:#C5324F;" d="M146,183c0-29.982,12.001-57.158,31.455-77l0,0c-12.312-12.071-32.79-9.645-41.66,5.142
		C122.893,132.648,116,157.323,116,183c0,65.813,45.649,121.167,106.947,136.059C239.785,323.15,256,310.328,256,293
		C195.249,293,146,243.751,146,183z"/>
</g>
<path style="fill:#FF5368;" d="M300.066,242.5h-88.133c-4.489,0-7.973-3.918-7.449-8.376l8.236-70.001
	c0.444-3.777,3.645-6.624,7.449-6.624h71.661c3.803,0,7.004,2.847,7.449,6.624l8.236,70.001
	C308.04,238.582,304.556,242.5,300.066,242.5z"/>
<path style="fill:#C5324F;" d="M307.515,234.123l-8.236-70c-0.444-3.777-3.646-6.624-7.449-6.624h-23.538l6.471,55.001h-67.735
	l-2.544,21.623c-0.525,4.459,2.959,8.377,7.449,8.377h88.133C304.556,242.5,308.04,238.582,307.515,234.123z"/>
<path d="M407.824,441.025c-16.183-5.783-39.074-10.557-66.202-13.806c-4.107-0.501-7.846,2.441-8.339,6.555
	c-0.492,4.112,2.442,7.846,6.556,8.339c67.911,8.134,82.611,22.092,82.611,25.111c0,1.98-7.641,11.015-45.021,19.024
	C345.076,493.182,301.951,497,256,497c-45.952,0-89.076-3.818-121.43-10.751c-37.379-8.01-45.02-17.044-45.02-19.024
	c0-3.02,14.7-16.978,82.611-25.111c4.113-0.493,7.047-4.227,6.555-8.339c-0.493-4.113-4.222-7.059-8.339-6.555
	c-27.127,3.249-50.019,8.022-66.201,13.806C84.241,448.15,74.55,456.72,74.55,467.225c0,14.47,18.604,25.49,56.877,33.691
	C164.783,508.063,209.024,512,256,512c46.977,0,91.217-3.937,124.573-11.084c38.272-8.201,56.877-19.222,56.877-33.691
	C437.45,456.72,427.76,448.15,407.824,441.025z"/>
<path d="M373.5,183c0-64.79-52.71-117.5-117.5-117.5S138.5,118.21,138.5,183S191.21,300.5,256,300.5S373.5,247.79,373.5,183z
	 M256,285.5c-56.519,0-102.5-45.981-102.5-102.5S199.481,80.5,256,80.5S358.5,126.481,358.5,183S312.519,285.5,256,285.5z"/>
<path d="M224.789,479.693c6.841,10.702,18.508,17.092,31.211,17.092c12.702,0,24.37-6.39,31.211-17.092
	c2.23-3.49,1.21-8.128-2.28-10.358c-3.489-2.23-8.129-1.213-10.358,2.28c-4.07,6.368-11.014,10.17-18.572,10.17
	s-14.501-3.802-18.572-10.17l-124.78-195.22C95.215,249.121,86,217.512,86,184.984C86,91.255,162.262,15,256,15
	s170,76.255,170,169.984c0,32.528-9.215,64.138-26.647,91.411L290.069,447.369c-2.23,3.49-1.21,8.128,2.28,10.358
	c3.488,2.23,8.128,1.21,10.358-2.28L411.99,284.473c18.979-29.689,29.01-64.092,29.01-99.489C441,82.983,358.01,0,256,0
	C153.991,0,71,82.983,71,184.984c0,35.396,10.031,69.799,29.009,99.489L224.789,479.693z"/>
<path d="M305.948,156.623c-0.444-3.777-3.646-6.624-7.448-6.624h-15v-27.501c0-15.163-12.337-27.5-27.5-27.5
	c-15.164,0-27.5,12.337-27.5,27.5v27.501h-15c-3.803,0-7.004,2.847-7.449,6.624l-10,85.001c-0.25,2.127,0.421,4.26,1.844,5.859
	c1.423,1.601,3.463,2.517,5.604,2.517H308.5c2.142,0,4.182-0.916,5.604-2.517c1.423-1.6,2.095-3.732,1.844-5.859L305.948,156.623z
	 M243.5,122.498c0-6.893,5.607-12.5,12.5-12.5s12.5,5.607,12.5,12.5v27.501h-25V122.498z M211.934,235l8.236-70.001h8.331v12.047
	c0,4.143,3.358,7.5,7.5,7.5s7.5-3.357,7.5-7.5v-12.047h25v12.047c0,4.143,3.357,7.5,7.5,7.5s7.5-3.357,7.5-7.5v-12.047h8.331
	L300.066,235H211.934z"/>
<g>
</g>
<g>
</g>
<g>
</g>
<g>
</g>
<g>
</g>
<g>
</g>
<g>
</g>
<g>
</g>
<g>
</g>
<g>
</g>
<g>
</g>
<g>
</g>
<g>
</g>
<g>
</g>
<g>
</g>
</svg>
