<svg height="500pt" viewBox="-44 0 500 500" width="500pt" xmlns="http://www.w3.org/2000/svg"><path d="m6.25 6.253906v487.496094h399.996094v-487.496094zm62.5 449.988282h-37.5v-37.5h37.5zm0-75h-37.5v-37.5h37.5zm0-74.996094h-37.5v-37.5h37.5zm0-75h-37.5v-37.5h37.5zm0-75h-37.5v-37.5h37.5zm0-75h-37.5v-37.5h37.5zm312.496094 375.011718h-37.5v-37.496093h37.5zm0-75.003906h-37.5v-37.496094h37.5zm0-75h-37.5v-37.5h37.5zm0-75.007812h-37.5v-37.492188h37.5zm0-75h-37.5v-37.5h37.5zm0-75.003906h-37.5v-37.496094h37.5zm0 0" fill="#59c3f0"/><path d="m381.246094 6.253906h25v487.480469h-25zm0 0" fill="#21a0d6"/><path d="m6.246094 6.253906h25.003906v487.480469h-25.003906zm0 0" fill="#96dcfa"/><path d="m93.746094 100h225v300.003906h-225zm0 0" fill="#fff"/><path d="m293.746094 100h25v300.003906h-25zm0 0" fill="#e6e7e8"/><path d="m93.75 100h25.003906v300.003906h-25.003906zm0 0" fill="#e6e7e8"/><path d="m156.246094 124.996094h100v25h-100zm0 0" fill="#fff"/><path d="m93.746094 6.25h225v56.242188h-225zm0 0" fill="#fff"/><path d="m293.742188 6.246094h25.003906v56.246094h-25.003906zm0 0" fill="#e6e7e8"/><path d="m93.746094 6.246094h25v56.246094h-25zm0 0" fill="#e6e7e8"/><path d="m93.746094 437.492188h225v56.242187h-225zm0 0" fill="#fff"/><path d="m293.742188 437.488281h25.003906v56.246094h-25.003906zm0 0" fill="#e6e7e8"/><path d="m93.746094 437.488281h25v56.246094h-25zm0 0" fill="#e6e7e8"/><path d="m211.792969 437.570312-35.355469-.003906v-35.351562l159.097656-159.097656 35.355469 35.355468zm0 0" fill="#fff"/><path d="m211.792969 437.570312 159.097656-159.097656-17.679687-17.679687-176.773438 176.773437zm0 0" fill="#e6e7e8"/><path d="m370.890625 207.757812 35.355469 35.355469-35.347656 35.347657-35.355469-35.355469zm0 0" fill="#f05458"/><path d="m353.214844 260.789062 35.347656-35.347656 17.679688 17.675782-35.347657 35.347656zm0 0" fill="#d9383c"/><g fill="#402943"><path d="m381.242188 412.511719h-37.496094c-3.449219 0-6.25 2.796875-6.25 6.25v37.496093c0 3.453126 2.800781 6.25 6.25 6.25h37.5c3.453125 0 6.25-2.796874 6.25-6.25v-37.496093c-.003906-3.453125-2.800782-6.25-6.253906-6.25zm-6.25 37.496093h-24.996094v-24.996093h24.996094zm0 0"/><path d="m68.75 37.496094h-37.503906c-3.449219 0-6.25 2.796875-6.25 6.25v37.5c0 3.453125 2.800781 6.25 6.25 6.25h37.5c3.453125 0 6.25-2.796875 6.25-6.25v-37.5c.003906-3.453125-2.792969-6.25-6.246094-6.25zm-6.25 37.5h-25v-25h25zm0 0"/><path d="m68.75 112.492188h-37.503906c-3.449219 0-6.25 2.800781-6.25 6.25v37.503906c0 3.453125 2.800781 6.25 6.25 6.25h37.5c3.453125 0 6.25-2.796875 6.25-6.25v-37.503906c.003906-3.449219-2.792969-6.25-6.246094-6.25zm-6.25 37.503906h-25v-25.003906h25zm0 0"/><path d="m68.75 187.492188h-37.503906c-3.449219 0-6.25 2.800781-6.25 6.25v37.503906c0 3.453125 2.800781 6.25 6.25 6.25h37.5c3.453125 0 6.25-2.796875 6.25-6.25v-37.503906c.003906-3.449219-2.792969-6.25-6.246094-6.25zm-6.25 37.503906h-25v-25.003906h25zm0 0"/><path d="m68.75 262.492188h-37.503906c-3.449219 0-6.25 2.800781-6.25 6.25v37.503906c0 3.453125 2.800781 6.25 6.25 6.25h37.5c3.453125 0 6.25-2.796875 6.25-6.25v-37.503906c.003906-3.449219-2.792969-6.25-6.246094-6.25zm-6.25 37.503906h-25v-25.003906h25zm0 0"/><path d="m68.75 337.492188h-37.503906c-3.449219 0-6.25 2.800781-6.25 6.25v37.5c0 3.453124 2.800781 6.25 6.25 6.25h37.5c3.453125 0 6.25-2.796876 6.25-6.25v-37.5c.003906-3.449219-2.792969-6.25-6.246094-6.25zm-6.25 37.5h-25v-25h25zm0 0"/><path d="m343.746094 87.492188h37.5c3.453125 0 6.25-2.796876 6.25-6.25v-37.496094c0-3.453125-2.796875-6.25-6.25-6.25h-37.5c-3.449219 0-6.25 2.796875-6.25 6.25v37.496094c0 3.453124 2.800781 6.25 6.25 6.25zm6.25-37.496094h25v24.996094h-25zm0 0"/><path d="m343.746094 162.496094h37.5c3.453125 0 6.25-2.796875 6.25-6.25v-37.5c0-3.449219-2.796875-6.25-6.25-6.25h-37.5c-3.449219 0-6.25 2.800781-6.25 6.25v37.5c0 3.453125 2.800781 6.25 6.25 6.25zm6.25-37.5h25v25h-25zm0 0"/><path d="m381.242188 337.507812h-37.496094c-3.449219 0-6.25 2.796876-6.25 6.25v37.5c0 3.449219 2.800781 6.25 6.25 6.25h37.5c3.453125 0 6.25-2.800781 6.25-6.25v-37.5c-.003906-3.453124-2.800782-6.25-6.253906-6.25zm-6.25 37.5h-24.996094v-25h24.996094zm0 0"/><path d="m68.75 412.492188h-37.503906c-3.449219 0-6.25 2.800781-6.25 6.25v37.5c0 3.453124 2.800781 6.25 6.25 6.25h37.5c3.453125 0 6.25-2.796876 6.25-6.25v-37.5c.003906-3.449219-2.792969-6.25-6.246094-6.25zm-6.25 37.5h-25v-25h25zm0 0"/><path d="m156.246094 156.246094h100c3.453125 0 6.25-2.796875 6.25-6.25v-25c0-3.449219-2.796875-6.25-6.25-6.25h-100c-3.449219 0-6.25 2.800781-6.25 6.25v25c0 3.453125 2.800781 6.25 6.25 6.25zm6.25-25h87.5v12.5h-87.5zm0 0"/><path d="m131.246094 206.261719h150c3.453125 0 6.25-2.800781 6.25-6.25 0-3.453125-2.796875-6.25-6.25-6.25h-150c-3.453125 0-6.25 2.796875-6.25 6.25 0 3.449219 2.800781 6.25 6.25 6.25zm0 0"/><path d="m131.246094 243.746094h150c3.453125 0 6.25-2.796875 6.25-6.25 0-3.449219-2.796875-6.25-6.25-6.25h-150c-3.453125 0-6.25 2.800781-6.25 6.25 0 3.453125 2.800781 6.25 6.25 6.25zm0 0"/><path d="m131.246094 281.238281h150c3.453125 0 6.25-2.796875 6.25-6.25s-2.796875-6.25-6.25-6.25h-150c-3.453125 0-6.25 2.796875-6.25 6.25s2.800781 6.25 6.25 6.25zm0 0"/><path d="m406.246094.00390625h-87.46875c-.007813 0-.019532-.00390625-.03125-.00390625h-225c-.007813 0-.019532.00390625-.027344.00390625h-87.46875c-3.453125 0-6.25 2.79687475-6.25 6.24999975v487.496094c0 3.453125 2.796875 6.25 6.25 6.25h399.996094c3.453125 0 6.25-2.796875 6.25-6.25v-487.496094c0-3.453125-2.796875-6.24999975-6.25-6.24999975zm-306.25 12.49999975h212.5v43.738282h-212.5zm-87.496094 0h74.996094v49.988282c0 3.453124 2.800781 6.25 6.25 6.25h225c3.453125 0 6.25-2.796876 6.25-6.25v-49.988282h75v215.527344l-12.503906-12.503906v-21.777344c0-3.453125-2.796876-6.25-6.25-6.25h-37.496094c-3.449219 0-6.25 2.796875-6.25 6.25v37.496094c0 .339844.03125.667968.078125.988281l-6.453125 6.453125c-.003906.007812-.007813.011719-.011719.015625l-6.113281 6.113281v-144.816406c0-3.453125-2.796875-6.25-6.25-6.25h-225c-3.449219 0-6.25 2.796875-6.25 6.25v300.003906c0 3.449219 2.800781 6.25 6.25 6.25h76.441406v24.988282h-76.441406c-3.449219 0-6.25 2.796874-6.25 6.25v50.011718h-74.996094zm199.292969 416.226563-8.839844-8.839844 132.585937-132.585937 8.839844 8.839843zm100.703125-83.027344v48.050781h-48.046875zm0 141.78125h-212.5v-43.746094h61.976562c-1.097656 2.320313-.710937 5.167969 1.207032 7.085938 1.21875 1.222656 2.820312 1.832031 4.421874 1.832031 1.597657 0 3.199219-.609375 4.417969-1.832031l7.007813-7.007813h32.761718c.277344 0 .554688-.039062.828126-.078125h99.878906zm62.496094-284.402344c-1.132813-.996093-2.582032-1.574219-4.101563-1.574219-1.660156 0-3.25.660157-4.417969 1.832032l-16.476562 16.472656v-19.8125h25v3.082031zm-39.457032 48.875 26.515625 26.515625-8.835937 8.832032-26.511719-26.515626zm-150.257812 150.257813 132.585937-132.585938 8.835938 8.835938-132.585938 132.589844zm127.21875-144.898438-48.910156 48.910156h-132.339844c-3.453125 0-6.25 2.796876-6.25 6.25 0 3.453126 2.796875 6.25 6.25 6.25h119.839844l-75.027344 75.027344h-76.0625v-287.503906h212.5zm-129.808594 159.988282 13.9375 13.9375h-13.9375zm192.304688-134.101563v16.796875h-16.792969zm-4.09375-13.578125-26.515626-26.515625 26.507813-26.507813 26.515625 26.515626zm-45.902344 217.875v-50.011719c0-3.449219-2.796875-6.25-6.25-6.25h-91.785156l24.988281-24.988281h66.796875c3.453125 0 6.25-2.796875 6.25-6.25v-66.800781l20.703125-20.699219h35.542969c3.453124 0 6.25-2.796875 6.25-6.25v-35.546875l12.503906-12.5v229.296875zm0 0"/></g></svg>