<?xml version="1.0" encoding="iso-8859-1"?>
<!-- Generator: Adobe Illustrator 19.0.0, SVG Export Plug-In . SVG Version: 6.00 Build 0)  -->
<svg version="1.1" id="Capa_1" xmlns="http://www.w3.org/2000/svg" xmlns:xlink="http://www.w3.org/1999/xlink" x="0px" y="0px"
	 viewBox="0 0 511.999 511.999" style="enable-background:new 0 0 511.999 511.999;" xml:space="preserve">
<polygon style="fill:#DCA746;" points="504.497,195.992 504.497,396.016 414.486,396.016 404.485,386.015 404.485,356.012 
	404.485,336.009 404.485,306.006 404.485,286.003 404.485,205.993 414.486,195.992 "/>
<polygon style="fill:#CE3A50;" points="404.485,336.009 404.485,356.012 404.485,386.015 394.484,396.016 7.502,396.016 
	7.502,195.992 394.484,195.992 404.485,205.993 404.485,286.003 404.485,306.006 "/>
<polygon style="fill:#F6BB42;" points="504.497,155.987 504.497,356.012 414.486,356.012 404.485,346.01 404.485,316.007 
	404.485,296.004 404.485,266.001 404.485,245.998 404.485,165.989 414.486,155.987 "/>
<polygon style="fill:#DA4453;" points="404.485,296.004 404.485,316.007 404.485,346.01 394.484,356.012 7.502,356.012 
	7.502,155.987 394.484,155.987 404.485,165.989 404.485,245.998 404.485,266.001 "/>
<polygon style="fill:#FFCE54;" points="504.497,115.983 504.497,316.007 414.486,316.007 404.485,306.006 404.485,276.002 
	404.485,255.999 404.485,225.996 404.485,205.993 404.485,125.984 414.486,115.983 "/>
<polygon style="fill:#ED5565;" points="404.485,255.999 404.485,276.002 404.485,306.006 394.484,316.007 7.502,316.007 
	7.502,115.983 394.484,115.983 404.485,125.984 404.485,205.993 404.485,225.996 "/>
<rect x="474.497" y="115.984" style="fill:#F6BB42;" width="30.004" height="200.024"/>
<rect x="474.497" y="316.008" style="fill:#DCA746;" width="30.004" height="40.005"/>
<rect x="474.497" y="356.013" style="fill:#CE953C;" width="30.004" height="40.005"/>
<g>
	<circle style="fill:#FFCE54;" cx="77.509" cy="185.992" r="20.002"/>
	<circle style="fill:#FFCE54;" cx="147.518" cy="256" r="20.002"/>
</g>
<path d="M504.499,108.482h-90.01c-1.989,0-3.897,0.79-5.305,2.197l-4.697,4.698l-4.697-4.698c-1.407-1.407-3.314-2.197-5.305-2.197
	H7.501c-4.143,0-7.501,3.358-7.501,7.501v200.025v0.001v40.002v0.003v40.003c0,4.142,3.358,7.501,7.501,7.501h386.983
	c1.989,0,3.897-0.79,5.304-2.197l4.698-4.698l4.698,4.698c1.407,1.407,3.314,2.197,5.305,2.197h90.011
	c4.142,0,7.501-3.358,7.501-7.501v-40.003v-0.003v-40.002v-0.001V115.983C512,111.84,508.642,108.482,504.499,108.482z
	 M15.002,323.51h379.482c1.989,0,3.897-0.79,5.304-2.197l4.699-4.698l4.697,4.698c1.407,1.407,3.314,2.197,5.305,2.197h82.51v25.003
	h-79.403l-7.804-7.805c-1.407-1.406-3.314-2.197-5.305-2.197c-1.989,0-3.897,0.79-5.304,2.197l-7.805,7.805H15.002V323.51z
	 M15.002,123.483h376.378l7.804,7.805c1.407,1.407,3.314,2.197,5.305,2.197c1.989,0,3.897-0.79,5.305-2.197l7.804-7.805h79.402
	v185.024h-79.403l-7.804-7.805c-1.407-1.406-3.314-2.197-5.305-2.197s-3.897,0.79-5.304,2.197l-7.806,7.805H15.002V123.483z
	 M417.595,388.516l-7.804-7.805c-1.407-1.406-3.314-2.197-5.305-2.197c-1.989,0-3.897,0.79-5.304,2.197l-7.805,7.805H15.002v-25.001
	h379.482c1.989,0,3.897-0.79,5.304-2.197l4.698-4.698l4.698,4.698c1.407,1.407,3.314,2.197,5.305,2.197h82.51v25.001H417.595z"/>
<path d="M404.487,283.503c4.143,0,7.501-3.358,7.501-7.501v-20.002c0-4.143-3.358-7.501-7.501-7.501
	c-4.142,0-7.501,3.358-7.501,7.501v20.002C396.986,280.144,400.344,283.503,404.487,283.503z"/>
<path d="M404.487,233.498c4.143,0,7.501-3.358,7.501-7.501v-20.002c0-4.143-3.358-7.501-7.501-7.501
	c-4.142,0-7.501,3.358-7.501,7.501v20.002C396.986,230.139,400.344,233.498,404.487,233.498z"/>
<path d="M404.487,183.493c4.143,0,7.501-3.358,7.501-7.501v-20.002c0-4.143-3.358-7.501-7.501-7.501
	c-4.142,0-7.501,3.358-7.501,7.501v20.002C396.986,180.134,400.344,183.493,404.487,183.493z"/>
<path d="M454.493,283.504c4.142,0,7.501-3.358,7.501-7.501V155.989c0-4.143-3.358-7.501-7.501-7.501
	c-4.143,0-7.501,3.358-7.501,7.501v120.014C446.992,280.145,450.35,283.504,454.493,283.504z"/>
<path d="M77.512,213.497c15.166,0,27.503-12.337,27.503-27.503c0-15.165-12.337-27.503-27.503-27.503
	c-15.165,0-27.503,12.339-27.503,27.503S62.347,213.497,77.512,213.497z M77.512,173.493c6.894,0,12.502,5.608,12.502,12.502
	s-5.608,12.502-12.502,12.502c-6.894,0-12.502-5.608-12.502-12.502S70.619,173.493,77.512,173.493z"/>
<path d="M147.518,228.496c-15.166,0-27.503,12.337-27.503,27.503c0,15.166,12.337,27.503,27.503,27.503
	c15.166,0,27.503-12.337,27.503-27.503C175.021,240.834,162.684,228.496,147.518,228.496z M147.518,268.501
	c-6.894,0-12.502-5.608-12.502-12.502s5.608-12.502,12.502-12.502c6.894,0,12.502,5.608,12.502,12.502
	C160.019,262.892,154.412,268.501,147.518,268.501z"/>
<path d="M162.217,160.686L52.205,270.697c-2.929,2.929-2.929,7.679,0,10.607c1.464,1.464,3.384,2.197,5.304,2.197
	c1.919,0,3.839-0.732,5.304-2.197l110.011-110.011c2.929-2.929,2.929-7.679,0-10.607
	C169.895,157.757,165.146,157.757,162.217,160.686z"/>
<path d="M351.045,178.493H231.031c-4.143,0-7.501,3.358-7.501,7.501s3.358,7.501,7.501,7.501h120.014
	c4.142,0,7.501-3.358,7.501-7.501S355.187,178.493,351.045,178.493z"/>
<path d="M351.045,208.497H231.031c-4.143,0-7.501,3.358-7.501,7.501s3.358,7.501,7.501,7.501h120.014
	c4.142,0,7.501-3.358,7.501-7.501S355.187,208.497,351.045,208.497z"/>
<path d="M291.031,238.5h-60c-4.143,0-7.501,3.358-7.501,7.501s3.358,7.501,7.501,7.501h60c4.142,0,7.501-3.358,7.501-7.501
	S295.174,238.5,291.031,238.5z"/>
<g>
</g>
<g>
</g>
<g>
</g>
<g>
</g>
<g>
</g>
<g>
</g>
<g>
</g>
<g>
</g>
<g>
</g>
<g>
</g>
<g>
</g>
<g>
</g>
<g>
</g>
<g>
</g>
<g>
</g>
</svg>
