<svg viewBox="0 0 512 512.00031" xmlns="http://www.w3.org/2000/svg"><path d="m502 112v50h-60v-50c0-13.25 8.589844-24.5 20.519531-28.460938 2.980469-1 6.171875-1.539062 9.480469-1.539062 16.570312 0 30 13.429688 30 30zm0 0" fill="#cae9fc"/><path d="m462 82 .519531 1.539062c-11.929687 3.960938-20.519531 15.210938-20.519531 28.460938v347.859375c0 21.699219-16.125 42.140625-40 42.140625-22.089844 0-40-17.910156-40-40v-20h-212v-320c0-22.089844 17.910156-40 40-40zm0 0" fill="#fafaff"/><path d="m402 502h-232c-33.140625 0-60-26.859375-60-60h252v20c0 22.089844 17.910156 40 40 40zm0 0" fill="#cae9fc"/><path d="m330.378906 142c20.5 0 34.621094 17.199219 34.621094 37.582031 0 28.179688-28.167969 46.839844-69.230469 82.417969-41.058593-35.578125-69.230469-54.238281-69.230469-82.417969 0-20.382812 14.121094-37.582031 34.609376-37.582031 26.3125 0 34.621093 30 34.621093 30s8.3125-30 34.609375-30zm0 0" fill="#e87288"/><path d="m10 110h60v292h-60zm0 0" fill="#e87288"/><path d="m70 80v30h-60v-30c0-16.785156 13.6875-30 30-30 16.558594 0 30 13.4375 30 30zm0 0" fill="#fed2a4"/><path d="m10 402h60c0 25.960938-8.417969 51.230469-24 72l-6 8-6-8c-15.578125-20.769531-24-46.039062-24-72zm0 0" fill="#fed2a4"/><path d="m38.195312 10.429688c-10.390624.910156-18.195312 9.941406-18.195312 20.371093v27.191407l.011719.007812h39.976562l.011719-.007812v-27.640626c0-11.648437-9.941406-20.960937-21.804688-19.921874zm0 0" fill="#e87288"/><path d="m210.25 312c-5.519531 0-10 4.480469-10 10s4.480469 10 10 10 10-4.480469 10-10-4.480469-10-10-10zm0 0"/><path d="m210.25 372c-5.519531 0-10 4.480469-10 10s4.480469 10 10 10 10-4.480469 10-10-4.480469-10-10-10zm0 0"/><path d="m382.25 312h-132c-5.523438 0-10 4.476562-10 10s4.476562 10 10 10h132c5.523438 0 10-4.476562 10-10s-4.476562-10-10-10zm0 0"/><path d="m382.25 372h-132c-5.523438 0-10 4.476562-10 10s4.476562 10 10 10h132c5.523438 0 10-4.476562 10-10s-4.476562-10-10-10zm0 0"/><path d="m30 485.332031v16.355469c0 5.011719 3.554688 9.492188 8.515625 10.207031 6.179687.886719 11.484375-3.882812 11.484375-9.894531v-16.667969l4-5.332031c16.765625-22.351562 26-50.050781 26-78v-282h16.523438c1.921874 0 3.476562 1.554688 3.476562 3.476562v101.886719c0 .972657.394531 1.917969 1.09375 2.59375 8.621094 8.382813 18.90625 2.414063 18.90625-5.957031v-111.574219c0-5.757812-4.667969-10.425781-10.425781-10.425781h-29.574219v-20c0-9.832031-3.535156-19.125-10-26.4375v-22.957031c0-15.78125-11.949219-29.332031-27.6875-30.5195315-17.582031-1.3242185-32.3125 12.6054685-32.3125 29.9140625v23.574219c-6.398438 7.25-10 16.644531-10 26.425781v322c0 27.949219 9.234375 55.648438 26 78zm30-93.332031h-40v-272h40zm-40-292v-20c0-10.980469 8.945312-20 20-20 10.867188 0 20 8.8125 20 20v20zm30-69.675781v10.957031c-3.238281-.839844-6.597656-1.28125-10-1.28125s-6.761719.441406-10 1.28125v-11.28125c0-6.007812 5.328125-10.796875 11.507812-9.890625 4.953126.730469 8.492188 5.207031 8.492188 10.214844zm9.785156 381.675781c-1.765625 19.054688-8.53125 37.566406-19.535156 53.246094-11-15.679688-17.769531-34.191406-19.535156-53.246094zm0 0"/><path d="m512 162v-50c0-22.089844-17.910156-40-40-40h-282c-27.613281 0-50 22.386719-50 50v310h-30c-5.53125 0-10 4.496094-10 10.027344.015625 38.585937 31.410156 69.972656 70 69.972656h232c29.269531 0 50-24.925781 50-52.140625v-287.859375h50c5.523438 0 10-4.476562 10-10zm-342 330c-24.144531 0-44.351562-17.207031-48.996094-40h230.996094v10c0 11.246094 3.734375 21.636719 10.023438 30zm262-379.90625v347.765625c0 17.183594-12.921875 33.308594-32.054688 32.074219-15.832031-1.023438-27.945312-14.597656-27.945312-30.464844v-19.46875c0-5.523438-4.476562-10-10-10h-202v-310c0-16.570312 13.429688-30 30-30h247.347656c-3.425781 5.9375-5.347656 12.886719-5.347656 20.09375zm60 39.90625h-40v-40c0-12.289062 10.964844-21.714844 23.277344-19.734375 9.746094 1.566406 16.722656 10.296875 16.722656 20.167969zm0 0"/><path d="m271.617188 254.347656c5.699218 4.8125 11.597656 9.789063 17.855468 15.210938 1.878906 1.628906 4.210938 2.441406 6.546875 2.441406 2.335938 0 4.671875-.8125 6.550781-2.441406 6.253907-5.421875 12.148438-10.394532 17.851563-15.207032 31.832031-26.863281 54.828125-46.273437 54.828125-74.769531 0-26.683593-19.597656-47.582031-44.617188-47.582031-16.824218 0-27.796874 9.019531-34.613281 18.195312-6.8125-9.175781-17.792969-18.195312-34.621093-18.195312-25.015626 0-44.609376 20.898438-44.609376 47.582031 0 28.496094 23 47.902344 54.828126 74.765625zm-10.21875-102.324218c18.257812 0 24.730468 21.789062 24.996093 22.714843 1.210938 4.289063 5.121094 7.238281 9.582031 7.261719h.050782c4.457031 0 8.386718-2.976562 9.617187-7.261719.265625-.925781 6.738281-22.714843 24.984375-22.714843 14.035156 0 24.621094 11.859374 24.621094 27.582031 0 19.203125-17.964844 34.367187-47.730469 59.484375-3.730469 3.148437-7.546875 6.367187-11.5 9.746094-3.957031-3.378907-7.773437-6.597657-11.503906-9.746094-29.761719-25.121094-47.726563-40.28125-47.726563-59.484375 0-15.722657 10.582032-27.582031 24.609376-27.582031zm0 0"/></svg>