<svg id="cf13af12-b55c-4edb-b1eb-748010039a4a" data-name="2238c246-80a2-42a8-8139-29365a0dfe3e" xmlns="http://www.w3.org/2000/svg" viewBox="0 0 195.78 54.5"><title>clickandcollect</title><path d="M64.43,30.91A5.62,5.62,0,0,0,60,32.79a7.59,7.59,0,0,0-1.63,5.15,7.73,7.73,0,0,0,1.57,5.2A5.61,5.61,0,0,0,64.41,45a15.39,15.39,0,0,0,4.09-.64v1.75a12.79,12.79,0,0,1-4.4.66,7.43,7.43,0,0,1-5.84-2.29,9.47,9.47,0,0,1-2.06-6.53,10.29,10.29,0,0,1,1-4.64,7.14,7.14,0,0,1,2.86-3.07,8.67,8.67,0,0,1,4.4-1.08,10.54,10.54,0,0,1,4.71,1l-.84,1.71A9.08,9.08,0,0,0,64.43,30.91Z" transform="translate(-2.9 -2.34)"/><path d="M73.89,46.51h-2V28.28h2Z" transform="translate(-2.9 -2.34)"/><path d="M77.85,30.19a1.27,1.27,0,0,1,.33-1,1.21,1.21,0,0,1,1.62,0,1.57,1.57,0,0,1,0,1.95,1.16,1.16,0,0,1-1.62,0A1.29,1.29,0,0,1,77.85,30.19ZM80,46.51H78V33.67H80Z" transform="translate(-2.9 -2.34)"/><path d="M89.21,46.74A5.49,5.49,0,0,1,84.9,45a7.08,7.08,0,0,1-1.53-4.86,7.25,7.25,0,0,1,1.55-5,5.59,5.59,0,0,1,4.42-1.76,9,9,0,0,1,1.86.2,6,6,0,0,1,1.45.47l-.6,1.65a10.18,10.18,0,0,0-1.41-.43,6.37,6.37,0,0,0-1.34-.17q-3.92,0-3.92,5a5.92,5.92,0,0,0,1,3.63A3.32,3.32,0,0,0,89.17,45a8.64,8.64,0,0,0,3.29-.69v1.73A7.09,7.09,0,0,1,89.21,46.74Z" transform="translate(-2.9 -2.34)"/><path d="M97.43,39.94A23.85,23.85,0,0,1,99,38.06l4.15-4.39h2.31l-5.2,5.47,5.56,7.37h-2.35l-4.54-6.07L97.43,41.7v4.81H95.51V28.28h1.92v9.66c0,.43,0,1.1-.09,2Z" transform="translate(-2.9 -2.34)"/><path d="M124,46.51h-4.42l-1.34-1.32a8.73,8.73,0,0,1-5.07,1.55,7.14,7.14,0,0,1-4.53-1.31A4.26,4.26,0,0,1,107,41.88a5.1,5.1,0,0,1,.71-2.74A6.92,6.92,0,0,1,110.14,37a7.6,7.6,0,0,1-1.27-1.93,4.91,4.91,0,0,1-.4-2,3.49,3.49,0,0,1,1.36-2.87,5.67,5.67,0,0,1,3.65-1.09,5.57,5.57,0,0,1,3.49,1,3.27,3.27,0,0,1,1.31,2.72,4.34,4.34,0,0,1-.81,2.55,8,8,0,0,1-2.61,2.19l3.32,3.25a13.88,13.88,0,0,0,1.44-3.53h3.73a16.72,16.72,0,0,1-1.16,3.09,14.6,14.6,0,0,1-1.67,2.67Zm-13.27-5a2,2,0,0,0,.75,1.61,3.09,3.09,0,0,0,1.94.59,5,5,0,0,0,2.66-.71l-3.89-3.87a5.18,5.18,0,0,0-1.07,1.08A2.24,2.24,0,0,0,110.77,41.54Zm4.2-8.31a1.23,1.23,0,0,0-.42-1,1.66,1.66,0,0,0-1.09-.35,1.91,1.91,0,0,0-1.24.37,1.32,1.32,0,0,0-.45,1.07,3.55,3.55,0,0,0,1.12,2.27,6.6,6.6,0,0,0,1.54-1.11A1.73,1.73,0,0,0,115,33.23Z" transform="translate(-2.9 -2.34)" fill="#ea536a"/><path d="M133.73,30.91a5.58,5.58,0,0,0-4.45,1.88,7.6,7.6,0,0,0-1.64,5.15,7.73,7.73,0,0,0,1.58,5.2A5.61,5.61,0,0,0,133.71,45a15.28,15.28,0,0,0,4.09-.64v1.75a12.72,12.72,0,0,1-4.39.66,7.46,7.46,0,0,1-5.85-2.29,9.47,9.47,0,0,1-2-6.53,10.29,10.29,0,0,1,1-4.64,7.08,7.08,0,0,1,2.86-3.07,8.62,8.62,0,0,1,4.4-1.08,10.6,10.6,0,0,1,4.71,1l-.85,1.71A9,9,0,0,0,133.73,30.91Z" transform="translate(-2.9 -2.34)"/><path d="M152.33,40.08a7.11,7.11,0,0,1-1.58,4.9,5.56,5.56,0,0,1-4.37,1.76,5.87,5.87,0,0,1-3.06-.8,5.36,5.36,0,0,1-2.06-2.32,8,8,0,0,1-.73-3.54,7.07,7.07,0,0,1,1.57-4.9,5.58,5.58,0,0,1,4.36-1.75,5.44,5.44,0,0,1,4.28,1.79A7.08,7.08,0,0,1,152.33,40.08Zm-9.78,0a6.07,6.07,0,0,0,1,3.75,3.9,3.9,0,0,0,5.8,0,6.05,6.05,0,0,0,1-3.75,5.94,5.94,0,0,0-1-3.72,3.49,3.49,0,0,0-2.93-1.28,3.42,3.42,0,0,0-2.88,1.26A6,6,0,0,0,142.55,40.08Z" transform="translate(-2.9 -2.34)"/><path d="M157.69,46.51h-1.95V28.28h1.95Z" transform="translate(-2.9 -2.34)"/><path d="M163.76,46.51h-1.95V28.28h1.95Z" transform="translate(-2.9 -2.34)"/><path d="M173.31,46.74a5.9,5.9,0,0,1-4.5-1.73,6.75,6.75,0,0,1-1.64-4.82,7.44,7.44,0,0,1,1.53-4.93,5.08,5.08,0,0,1,4.1-1.83A4.83,4.83,0,0,1,176.62,35,6.07,6.07,0,0,1,178,39.21v1.23h-8.85a5,5,0,0,0,1.15,3.43,4,4,0,0,0,3,1.17,10.3,10.3,0,0,0,4.1-.86v1.73a10.28,10.28,0,0,1-1.95.64A10.86,10.86,0,0,1,173.31,46.74Zm-.53-11.68a3.2,3.2,0,0,0-2.47,1,4.66,4.66,0,0,0-1.08,2.79h6.71a4.25,4.25,0,0,0-.82-2.82A2.87,2.87,0,0,0,172.78,35.06Z" transform="translate(-2.9 -2.34)"/><path d="M186.48,46.74A5.5,5.5,0,0,1,182.16,45a7.08,7.08,0,0,1-1.53-4.86,7.3,7.3,0,0,1,1.55-5,5.61,5.61,0,0,1,4.43-1.76,9,9,0,0,1,1.85.2,5.86,5.86,0,0,1,1.45.47l-.59,1.65a10.18,10.18,0,0,0-1.41-.43,6.54,6.54,0,0,0-1.35-.17q-3.92,0-3.91,5a6,6,0,0,0,.95,3.63A3.33,3.33,0,0,0,186.43,45a8.72,8.72,0,0,0,3.3-.69v1.73A7.12,7.12,0,0,1,186.48,46.74Z" transform="translate(-2.9 -2.34)"/><path d="M196.92,45.14a6.53,6.53,0,0,0,1-.08,5.43,5.43,0,0,0,.76-.16v1.49a3.36,3.36,0,0,1-.93.25,6.61,6.61,0,0,1-1.11.1c-2.48,0-3.73-1.3-3.73-3.92V35.18h-1.84v-.94l1.84-.81.82-2.74h1.13v3h3.73v1.51h-3.73v7.56a2.6,2.6,0,0,0,.55,1.78A1.93,1.93,0,0,0,196.92,45.14Z" transform="translate(-2.9 -2.34)"/><path d="M53.65,49.46,50,14.31a1.67,1.67,0,0,0-1.74-1.37H40.81c-.1-5.86-5.68-10.6-12.53-10.6S15.86,7.08,15.75,12.94H8.28a1.66,1.66,0,0,0-1.74,1.37L2.91,49.46s0,.08,0,.13c0,4,4.27,7.25,9.52,7.25H44.14c5.26,0,9.52-3.25,9.52-7.25A.53.53,0,0,0,53.65,49.46ZM28.28,5.35c4.92,0,8.92,3.39,9,7.59H19.25C19.36,8.74,23.37,5.35,28.28,5.35ZM44.23,53.76l-31.72.15c-3.29,0-6-1.84-6-4.15L9.79,16.05l5.86,0,0,4.57a1.64,1.64,0,0,0,1.76,1.5,1.63,1.63,0,0,0,1.74-1.51l0-4.57,18.07-.09,0,4.57a1.77,1.77,0,0,0,3.5,0l0-4.57,5.86,0,3.65,33.67C50.19,51.86,47.51,53.74,44.23,53.76Z" transform="translate(-2.9 -2.34)" fill="#ef546a"/><path d="M45.22,54.84,11.37,55C7.86,55,5,53,4.93,50.49l3.53-36.6,6.26,0,0,5a1.77,1.77,0,0,0,1.88,1.63,1.77,1.77,0,0,0,1.86-1.65l0-5,19.28-.09,0,5a1.89,1.89,0,0,0,3.74,0l0-5,6.25,0,3.9,36.57C51.57,52.77,48.72,54.82,45.22,54.84Z" transform="translate(-2.9 -2.34)" fill="#ef546a"/><path d="M35,29c.09,0,.52-.8,1.18-.8a1.34,1.34,0,0,1,1.26,1.36,1.63,1.63,0,0,1-.28,1A6.87,6.87,0,0,1,35,32.46a6.82,6.82,0,0,1-2.18-1.93,1.63,1.63,0,0,1-.28-1,1.34,1.34,0,0,1,1.26-1.33C34.47,28.19,34.88,29,35,29Z" transform="translate(-2.9 -2.34)" fill="#fff"/><path d="M32.12,20.83c.44,0,.69.52.76.52s.33-.52.76-.52a.87.87,0,0,1,.82.86,1,1,0,0,1-.18.64,4.49,4.49,0,0,1-1.38,1.23,4.3,4.3,0,0,1-1.39-1.23,1,1,0,0,1-.18-.64.87.87,0,0,1,.82-.86Z" transform="translate(-2.9 -2.34)" fill="#fff"/><path d="M26.75,24.77c.56,0,.88.64.95.64s.41-.64.94-.64a1.07,1.07,0,0,1,1,1,1.28,1.28,0,0,1-.21.83,5.49,5.49,0,0,1-1.72,1.5A5.28,5.28,0,0,1,26,26.64a1.33,1.33,0,0,1-.22-.83A1.06,1.06,0,0,1,26.75,24.77Z" transform="translate(-2.9 -2.34)" fill="#fff"/><path d="M28.46,46c-2.78,1.68-5.82,3.12-6.66,2.91-1.39-.32-6.43-7.48-7.39-10.21a7.33,7.33,0,0,1-.28-4.49A5.55,5.55,0,0,1,20.55,30c2.81.67,3.83,4.42,4.25,4.53s2.78-2.85,5.62-2.14a5.58,5.58,0,0,1,3.68,3.26s0,.06-.08,0a5.29,5.29,0,0,0-3-1.07,4.21,4.21,0,0,0-1,.12,5.35,5.35,0,0,0-3.34,2.55,6.35,6.35,0,0,0-.82,4.27,7.08,7.08,0,0,0,2.6,4.36c.08,0,.08.09,0,.15Z" transform="translate(-2.9 -2.34)" fill="#fff"/><path d="M42.29,40.9c-.7,2-4.51,7.38-5.56,7.63s-6.54-2.87-8-4.38a5.26,5.26,0,0,1-1.51-2.92,4.47,4.47,0,0,1,3.08-5.08c2.19-.51,4,1.63,4.23,1.63s1.11-2.87,3.18-3.36A4.11,4.11,0,0,1,42.5,37.6,5.47,5.47,0,0,1,42.29,40.9Z" transform="translate(-2.9 -2.34)" fill="#fff"/><rect x="8.52" y="11.89" width="7.19" height="6.44" fill="#ef546a"/><rect x="35.14" y="11.89" width="5.81" height="6.44" fill="#ef546a"/></svg>