<?xml version="1.0" encoding="utf-8"?>
<!-- Generator: Adobe Illustrator 22.1.0, SVG Export Plug-In . SVG Version: 6.00 Build 0)  -->
<svg version="1.1" id="Layer_1" xmlns="http://www.w3.org/2000/svg" xmlns:xlink="http://www.w3.org/1999/xlink" x="0px" y="0px"
	 viewBox="0 0 805 155.6" style="enable-background:new 0 0 805 155.6;" xml:space="preserve">
<style type="text/css">
	.st0{fill:#EF546A;}
</style>
<title>househomelove-white</title>
<path class="st0" d="M131.3,53L75.1,6.1c-3.5-2.8-8.5-2.8-11.9,0.1L8.1,53c-2.1,1.7-3.3,4.3-3.2,7v82.1l0,0c0,5.1,4.1,9.2,9.2,9.2
	c0,0,0,0,0,0h111.3c5.1,0,9.2-4.1,9.2-9.2c0,0,0,0,0,0l0,0V60C134.6,57.3,133.4,54.7,131.3,53z M89.9,77.6c0.3,0,1.6-2.2,3.6-2.2
	c2.1,0,3.7,1.7,3.8,3.7c0.1,1-0.2,2-0.8,2.8c-1.1,1.6-5.6,5.4-6.6,5.4s-5.5-3.8-6.6-5.4c-0.6-0.8-0.9-1.8-0.8-2.8
	c0.1-2.1,1.8-3.7,3.8-3.7C88.4,75.3,89.7,77.6,89.9,77.6z M81.3,54.7c1.3,0,2.1,1.4,2.3,1.4s1-1.4,2.3-1.4c1.3,0,2.4,1.1,2.4,2.4
	c0,0.6-0.2,1.3-0.5,1.8c-0.7,1-3.6,3.5-4.2,3.5s-3.6-2.5-4.2-3.5c-0.4-0.5-0.6-1.2-0.5-1.8C78.9,55.7,80,54.7,81.3,54.7L81.3,54.7z
	 M65.1,65.7c1.7,0,2.6,1.8,2.8,1.8s1.2-1.8,2.8-1.8c1.6,0.1,2.9,1.4,3,3c0,0.8-0.2,1.6-0.7,2.3c-0.8,1.3-4.4,4.3-5.2,4.3
	s-4.4-3-5.2-4.3c-0.5-0.7-0.7-1.5-0.7-2.3C62.1,67.1,63.4,65.7,65.1,65.7z M70.2,125.3c-8.4,4.7-17.6,8.8-20.1,8.2
	c-4.1-0.9-19.5-21-22.4-28.7c-1.7-4-2-8.4-0.9-12.6c2.4-8.4,10.9-13.9,19.4-12S57.9,92.7,59.2,93c1.1,0.2,8.3-8,17-6
	c4.9,1.2,9,4.6,11.1,9.2c0,0.1-0.1,0.2-0.3,0.1c-2.7-1.9-5.9-2.9-9.2-3c-1,0-2,0.1-3,0.3c-4.2,0.9-7.8,3.5-10.1,7.1
	c-2.3,3.5-3.2,7.8-2.5,12c0.7,4.1,2.7,7.8,5.8,10.6c0.7,0.6,1.4,1.2,2.1,1.8C70.4,125,70.4,125.2,70.2,125.3L70.2,125.3z M112.1,111
	c-2.2,5.7-13.6,20.7-16.7,21.4s-19.9-8.1-24.2-12.3c-2.4-2.1-4-5-4.6-8.2c-1.1-6.5,2.9-12.7,9.3-14.2c6.5-1.5,11.9,4.7,12.7,4.5
	s3.4-8.1,9.6-9.5c6.4-1.3,12.8,2.6,14.5,8.9C113.5,104.7,113.3,108,112.1,111z"/>
<path d="M166.8,92.4c3-5.7,9-9.1,15.4-8.9c5,0,8.8,1.5,11.4,4.6s4,7.9,4,14.3v29h-5.2v-29.2c0-5.1-1-8.8-3-11
	c-2.2-2.3-5.2-3.5-8.4-3.4c-3.2-0.1-6.4,0.9-8.9,2.8c-2.4,1.9-4.3,4.5-5.3,7.5v33.2h-5.2V63.5h5.2L166.8,92.4z"/>
<path d="M208.3,107.2c0-6.9,1.9-12.6,5.7-17.1c3.8-4.4,8.8-6.7,15.1-6.7c6.3,0,11.3,2.2,15.1,6.7c3.8,4.4,5.7,10.1,5.7,17.1v1.4
	c0,7-1.9,12.7-5.7,17.1s-8.8,6.6-15.1,6.6c-6.3,0-11.4-2.2-15.2-6.6c-3.8-4.4-5.7-10.1-5.7-17.1L208.3,107.2z M213.5,108.6
	c-0.2,4.9,1.3,9.7,4.1,13.8c5,6.4,14.2,7.5,20.5,2.5c0.9-0.7,1.7-1.5,2.5-2.5c2.9-4,4.3-8.8,4.2-13.8v-1.4c0.1-4.9-1.3-9.7-4.2-13.7
	c-4.9-6.3-14.1-7.5-20.4-2.5c-1,0.7-1.8,1.6-2.5,2.5c-2.8,4-4.3,8.8-4.1,13.7L213.5,108.6z"/>
<path d="M291.7,123.7c-1.4,2.6-3.5,4.9-6.1,6.4c-2.8,1.5-5.9,2.3-9.1,2.2c-5,0-8.9-1.7-11.7-5.1s-4.2-8.6-4.2-15.7V84.3h5.2v27.4
	c0,5.8,1,9.9,2.9,12.4c2,2.5,5.1,3.9,8.3,3.8c3.9,0,7.1-0.9,9.5-2.7c2.4-1.8,4.1-4.4,4.9-7.3V84.3h5.2v47.1h-4.6L291.7,123.7z"/>
<path d="M338.7,119.4c0-2.2-1-4.3-2.7-5.8c-1.8-1.7-5.1-3-9.8-4c-5.6-1.2-9.8-2.8-12.5-4.8c-2.7-2-4.2-5.2-4-8.5
	c0-3.6,1.7-7,4.5-9.1c3-2.5,7-3.7,12-3.7c5.3,0,9.5,1.3,12.6,3.9c3,2.4,4.6,6,4.4,9.9l-0.1,0.3h-4.8c0-2.6-1.2-5.1-3.3-6.8
	c-2.2-1.9-5.1-2.9-8.9-2.9s-6.6,0.8-8.6,2.4c-1.8,1.4-2.8,3.5-2.9,5.7c0,2.1,0.9,4,2.5,5.4c1.6,1.4,4.9,2.7,9.8,3.7
	c5.6,1.3,9.8,3,12.6,5.1c2.8,2.1,4.3,5.4,4.2,8.8c0.1,3.8-1.7,7.3-4.8,9.5c-3.2,2.4-7.4,3.6-12.6,3.6c-5.7,0-10.2-1.4-13.5-4.1
	s-4.8-6-4.6-9.8l0.1-0.3h4.8c0,3,1.6,5.8,4.2,7.4c2.8,1.6,5.9,2.4,9.1,2.3c3.8,0,6.8-0.8,8.9-2.5
	C337.4,124.1,338.7,121.9,338.7,119.4z"/>
<path d="M373.6,132.4c-5.6,0.1-11-2.3-14.7-6.5c-3.9-4.4-5.9-9.9-5.9-16.6v-2.4c0-6.7,1.9-12.3,5.8-16.8c3.4-4.2,8.6-6.7,14.1-6.7
	c5.8,0,10.3,1.8,13.6,5.5c3.3,3.7,5,8.5,5,14.6v4.4h-33.3v1.3c-0.2,4.8,1.3,9.5,4.2,13.3c2.6,3.5,6.8,5.5,11.1,5.3
	c2.8,0.1,5.7-0.4,8.3-1.3c2.2-0.8,4.2-2.2,5.9-3.9l2.2,3.6c-1.9,2-4.2,3.5-6.7,4.5C380.1,131.9,376.9,132.4,373.6,132.4z
	 M372.9,87.9c-3.7-0.1-7.3,1.6-9.7,4.4c-2.7,3.1-4.3,7-4.6,11.1l0.1,0.2h27.6v-1.3c0.1-3.8-1.2-7.4-3.6-10.3
	C380.2,89.2,376.6,87.7,372.9,87.9L372.9,87.9z"/>
<path d="M407,92.4c3-5.7,9-9.1,15.4-8.9c5,0,8.8,1.5,11.4,4.6s4,7.9,4,14.3v29h-5.2v-29.2c0-5.1-1-8.8-3-11
	c-2.2-2.3-5.2-3.5-8.3-3.3c-3.2-0.1-6.4,0.9-9,2.8c-2.4,1.9-4.3,4.5-5.3,7.5v33.3h-5.2V63.5h5.2V92.4z"/>
<path d="M448.5,107.2c0-6.9,1.9-12.6,5.7-17.1c3.8-4.4,8.8-6.7,15.1-6.7c6.3,0,11.4,2.2,15.1,6.7c3.8,4.4,5.7,10.1,5.7,17.1v1.4
	c0,7-1.9,12.7-5.7,17.1s-8.8,6.6-15.1,6.6c-6.3,0-11.4-2.2-15.2-6.6c-3.8-4.4-5.7-10.1-5.7-17.1L448.5,107.2z M453.8,108.6
	c-0.2,4.9,1.3,9.7,4.1,13.8c5,6.4,14.2,7.5,20.5,2.5c0.9-0.7,1.7-1.5,2.5-2.5c2.8-4,4.3-8.8,4.1-13.7v-1.4c0.1-4.9-1.3-9.7-4.2-13.7
	c-4.9-6.4-14-7.5-20.4-2.6c-1,0.8-1.8,1.6-2.6,2.6c-2.8,4-4.3,8.8-4.1,13.7L453.8,108.6z"/>
<path d="M505.5,84.3l0.5,7.8c1.4-2.6,3.5-4.8,6-6.4c2.7-1.6,5.8-2.3,9-2.3c3.2-0.1,6.4,0.8,9,2.6c2.6,2,4.4,4.8,5.2,8
	c1.3-3.1,3.4-5.8,6.1-7.8c2.8-1.9,6.2-2.9,9.6-2.8c5,0,8.9,1.7,11.6,5c2.7,3.3,4.1,8.5,4.1,15.5v27.5h-5.2v-27.6
	c0-5.8-1-9.9-3.1-12.3c-2.2-2.4-5.3-3.8-8.6-3.6c-4,0-7.1,1.3-9.4,3.8c-2.3,2.8-3.7,6.2-4.1,9.7v30H531v-27.6c0-5.7-1-9.8-3.1-12.2
	c-2.1-2.5-5.3-3.8-8.6-3.7c-3.7,0-6.6,0.9-8.8,2.8c-2.2,2-3.8,4.6-4.5,7.6v33.2h-5.3V84.3H505.5z"/>
<path d="M597.8,132.4c-5.6,0.1-11-2.3-14.7-6.5c-3.9-4.4-5.9-9.9-5.9-16.6v-2.4c0-6.7,1.9-12.3,5.8-16.8c3.4-4.2,8.6-6.7,14.1-6.7
	c5.8,0,10.3,1.8,13.6,5.5c3.3,3.7,5,8.5,5,14.6v4.4h-33.3v1.3c-0.2,4.8,1.3,9.5,4.2,13.3c2.6,3.5,6.8,5.5,11.1,5.3
	c2.8,0.1,5.7-0.4,8.3-1.3c2.2-0.8,4.2-2.2,5.9-3.9l2.2,3.6c-1.9,2-4.2,3.5-6.7,4.5C604.4,131.9,601.1,132.4,597.8,132.4z
	 M597.1,87.9c-3.7-0.1-7.3,1.6-9.7,4.4c-2.7,3.1-4.3,7-4.6,11.1l0.1,0.2h27.6v-1.3c0.1-3.8-1.2-7.4-3.6-10.3
	C604.5,89.2,600.9,87.7,597.1,87.9L597.1,87.9z"/>
<path class="st0" d="M634.7,131.4h-8.6V63.5h8.6V131.4z"/>
<path class="st0" d="M645.9,107.4c0-7,1.9-12.7,5.7-17.2s8.9-6.8,15.4-6.8c6.5,0,11.7,2.2,15.5,6.8c3.8,4.5,5.7,10.2,5.7,17.2v1
	c0,7-1.9,12.8-5.7,17.2c-3.8,4.5-8.9,6.7-15.4,6.7c-6.5,0-11.6-2.2-15.4-6.7c-3.8-4.5-5.7-10.2-5.7-17.2L645.9,107.4z M654.5,108.4
	c0,5,1.1,9.1,3.2,12.3c3.6,5.2,10.7,6.4,15.9,2.8c1.1-0.8,2-1.7,2.8-2.8c2.1-3.2,3.2-7.4,3.2-12.3v-1c0.2-4.3-1-8.6-3.2-12.3
	c-2-3.2-5.6-5.1-9.4-4.9c-3.8-0.2-7.3,1.7-9.3,4.9c-2.2,3.7-3.3,8-3.2,12.3V108.4z"/>
<path class="st0" d="M713.6,117.5l0.7,3.3h0.3l0.8-3.3l10.8-33.2h8.7l-17.3,47.1h-6.5l-17.5-47.1h8.8L713.6,117.5z"/>
<path class="st0" d="M761.7,132.4c-6.6,0-11.8-2.2-15.7-6.6s-5.8-10-5.8-17v-1.9c0-6.7,2-12.3,6-16.7c4-4.5,8.7-6.7,14.2-6.7
	c6.4,0,11.2,1.9,14.4,5.8c3.2,3.8,4.9,8.9,4.9,15.3v5.4h-30.6l-0.1,0.2c-0.1,4,1.1,7.9,3.4,11.1c2.2,2.9,5.7,4.5,9.3,4.4
	c2.6,0.1,5.2-0.4,7.6-1.2c2.1-0.8,4-1.9,5.7-3.4l3.3,5.6c-1.9,1.8-4.2,3.2-6.7,4.2C768.5,131.9,765.1,132.4,761.7,132.4z
	 M760.4,90.2c-2.9,0-5.6,1.3-7.4,3.6c-2.1,2.6-3.4,5.8-3.8,9.1l0.1,0.2h21.7V102c0.1-3-0.8-6-2.7-8.4
	C766.6,91.3,764,90.2,760.4,90.2z"/>
</svg>
